<svg xmlns="http://www.w3.org/2000/svg" xmlns:xlink="http://www.w3.org/1999/xlink" xmlns:xodm="http://www.corel.com/coreldraw/odm/2003" xml:space="preserve" version="1.1" style="shape-rendering:geometricPrecision;text-rendering:geometricPrecision;image-rendering:optimizeQuality;" viewBox="0 0 8.4666 10.58325" x="0px" y="0px" fill-rule="evenodd" clip-rule="evenodd"><defs><style type="text/css">
   
    .fil0 {fill:black;fill-rule:nonzero}
   
  </style></defs><g><path class="fil0" d="M4.981 1.5067c0.2963,0.082 0.5735,0.212 0.8226,0.3811 0.284,0.1928 0.5311,0.4367 0.7274,0.7182l0.6937 0c0.2216,0 0.3644,0.1229 0.4276,0.2802 0.0238,0.0591 0.0358,0.1229 0.0358,0.1857 0,0.0629 -0.012,0.1266 -0.0358,0.1857 -0.0632,0.1573 -0.2061,0.2802 -0.4276,0.2802l-0.2719 0c0.0209,0.0855 0.038,0.1727 0.0509,0.2611 0.0194,0.1335 0.0296,0.2694 0.0296,0.4065 0,0.5319 -0.1489,1.0298 -0.4073,1.4541 -0.2576,0.423 -0.6245,0.7724 -1.0614,1.009l0.0582 0.776c0.0198,0.2654 -0.1148,0.4475 -0.2976,0.5371 -0.0698,0.0342 -0.1464,0.0544 -0.2229,0.0599 -0.0766,0.0055 -0.1549,-0.0035 -0.2284,-0.0272 -0.1927,-0.0624 -0.3501,-0.2223 -0.3679,-0.4872l-0.0358 -0.532c-0.077,0.0063 -0.1554,0.0095 -0.2348,0.0096 -0.0806,0.0001 -0.1604,-0.0031 -0.239,-0.0096l-0.0358 0.532c-0.0177,0.2647 -0.1753,0.4247 -0.3679,0.4871 -0.0735,0.0237 -0.1518,0.0327 -0.2284,0.0272 -0.0765,-0.0055 -0.1531,-0.0257 -0.2229,-0.0599 -0.1828,-0.0895 -0.3174,-0.2714 -0.2976,-0.537l0.0581 -0.7757c-0.4344,-0.2352 -0.7998,-0.5825 -1.0575,-1.0029 -0.2607,-0.4254 -0.4111,-0.9257 -0.4111,-1.4605 0,-0.1349 0.0099,-0.2688 0.0287,-0.4005 0.0129,-0.0901 0.0303,-0.1793 0.0519,-0.2671l-0.272 0c-0.2216,0 -0.3644,-0.1229 -0.4276,-0.2802 -0.0238,-0.0591 -0.0358,-0.1229 -0.0358,-0.1857 0,-0.0629 0.012,-0.1266 0.0358,-0.1857 0.0632,-0.1573 0.2061,-0.2802 0.4276,-0.2802l0.6937 0c0.1962,-0.2812 0.4429,-0.5249 0.7267,-0.7177 0.2487,-0.1689 0.5262,-0.299 0.8234,-0.3812 -0.0336,-0.0883 -0.052,-0.1842 -0.052,-0.2842 0,-0.2207 0.0896,-0.4207 0.2342,-0.5653 0.1446,-0.1446 0.3447,-0.2342 0.5654,-0.2342 0.2207,0 0.4208,0.0896 0.5654,0.2342 0.1446,0.1446 0.2342,0.3446 0.2342,0.5653 0,0.0999 -0.0184,0.1956 -0.0519,0.2838zm0.6808 0.5905c-0.2435,-0.1653 -0.5183,-0.2898 -0.8138,-0.3629 -0.0156,0.0187 -0.0321,0.0368 -0.0493,0.054 -0.1446,0.1446 -0.3447,0.2342 -0.5654,0.2342 -0.2207,0 -0.4208,-0.0896 -0.5654,-0.2342 -0.0174,-0.0174 -0.0339,-0.0356 -0.0497,-0.0545 -0.2949,0.0732 -0.5697,0.198 -0.8141,0.3639 -0.2083,0.1414 -0.3945,0.313 -0.5524,0.5083l0.4981 0c0.128,0 0.2458,-0.0165 0.3562,-0.0503 0.1103,-0.0338 0.2168,-0.0861 0.3227,-0.1577 0.0739,-0.05 0.1565,-0.0899 0.2449,-0.117 0.0857,-0.0262 0.1762,-0.0405 0.2683,-0.0405l0.5828 0c0.0921,0 0.1826,0.0143 0.2684,0.0406l0.0062 0.0021c0.0865,0.0271 0.1669,0.0663 0.2387,0.1148 0.1059,0.0716 0.2124,0.1239 0.3227,0.1577 0.1104,0.0338 0.2282,0.0503 0.3562,0.0503l0.498 0c-0.1581,-0.1956 -0.3446,-0.3673 -0.5531,-0.5088zm1.0909 1.7375c-0.0147,-0.1006 -0.0355,-0.1999 -0.0617,-0.2969l-1.2462 0 0 1.5326 0.0989 1.3185c0.3536,-0.2127 0.6515,-0.509 0.8661,-0.8614 0.2343,-0.3848 0.3695,-0.8376 0.3695,-1.3221 0,-0.1268 -0.0092,-0.2507 -0.0266,-0.3707zm-2.5173 2.917c0.0714,0 0.1441,-0.0033 0.2178,-0.0098l-0.0767 -1.14c-0.0033,-0.0493 -0.033,-0.0824 -0.0708,-0.0985 -0.022,-0.0089 -0.047,-0.0136 -0.0723,-0.0136 -0.025,0 -0.0499,0.0047 -0.0717,0.0138 -0.0383,0.0161 -0.0683,0.049 -0.0716,0.0983l-0.0767 1.1401c0.075,0.0065 0.1492,0.0097 0.222,0.0097zm-2.1748 -1.2178c0.2142,0.3495 0.5106,0.6434 0.8624,0.8548l0.0989 -1.3199 0 -1.531 -1.2464 0c-0.0267,0.0984 -0.0477,0.1996 -0.0625,0.3029 -0.0169,0.1179 -0.0257,0.2398 -0.0257,0.3647 0,0.4872 0.1366,0.9422 0.3733,1.3285zm-0.8107 -2.6739l-0.008 0c-0.1012,0 -0.1653,0.0529 -0.1924,0.1204 -0.0113,0.0281 -0.017,0.0595 -0.017,0.0915 0,0.0319 0.0057,0.0634 0.017,0.0915 0.0271,0.0675 0.0911,0.1204 0.1924,0.1204l1.907 0c0.0701,0 0.127,0.0569 0.127,0.127 0,1.4346 -0.0729,2.6345 -0.1791,4.0525 -0.0109,0.1457 0.0598,0.244 0.1558,0.291 0.0394,0.0193 0.084,0.0309 0.1295,0.0341 0.0454,0.0032 0.0912,-0.0018 0.1332,-0.0154 0.1003,-0.0325 0.1827,-0.1186 0.1923,-0.2627l0.1295 -1.9252c0.0108,-0.1596 0.1053,-0.2649 0.2264,-0.3157 0.0532,-0.0223 0.1119,-0.0336 0.1699,-0.0336 0.0576,0 0.1161,0.0113 0.1694,0.0336 0.1216,0.0514 0.2161,0.1566 0.2267,0.3157l0.1295 1.9252c0.0095,0.1441 0.0921,0.2301 0.1928,0.2628 0.0418,0.0136 0.0875,0.0186 0.1327,0.0154 0.0455,-0.0032 0.0901,-0.0148 0.1295,-0.0341 0.096,-0.0471 0.1667,-0.1455 0.1558,-0.2911 -0.1117,-1.4902 -0.179,-2.5799 -0.179,-4.0525 0,-0.0701 0.0569,-0.127 0.127,-0.127l1.9069 0c0.1012,0 0.1653,-0.0529 0.1924,-0.1204 0.0113,-0.0281 0.017,-0.0595 0.017,-0.0915 0,-0.0319 -0.0057,-0.0634 -0.017,-0.0915 -0.0271,-0.0675 -0.0911,-0.1204 -0.1924,-0.1204l-1.5078 0c-0.1509,0 -0.2928,-0.0204 -0.4296,-0.0623 -0.137,-0.0419 -0.266,-0.1047 -0.3911,-0.1893 -0.0534,-0.036 -0.1115,-0.0647 -0.1722,-0.0838l-0.0053 -0.0015c-0.0605,-0.0185 -0.1257,-0.0286 -0.194,-0.0286l-0.5828 0c-0.0683,0 -0.1335,0.01 -0.1939,0.0285 -0.0629,0.0193 -0.1229,0.0485 -0.1775,0.0854 -0.1251,0.0846 -0.2541,0.1474 -0.3911,0.1893 -0.1368,0.0419 -0.2787,0.0623 -0.4296,0.0623l-1.4999 0zm3.3692 -2.0228c-0.0987,-0.0987 -0.2352,-0.1598 -0.3858,-0.1598 -0.1506,0 -0.2871,0.0611 -0.3858,0.1598 -0.0987,0.0987 -0.1598,0.2351 -0.1598,0.3857 0,0.1506 0.0611,0.2871 0.1598,0.3858 0.0987,0.0987 0.2352,0.1598 0.3858,0.1598 0.1506,0 0.2871,-0.0611 0.3858,-0.1598 0.0987,-0.0987 0.1598,-0.2352 0.1598,-0.3858 0,-0.1506 -0.0611,-0.287 -0.1598,-0.3857z"/></g><text x="0" y="23.4666" fill="#000000" font-size="5px" font-weight="bold" font-family="'Helvetica Neue', Helvetica, Arial-Unicode, Arial, Sans-serif">Created by Rofidatul Hasanah</text><text x="0" y="28.4666" fill="#000000" font-size="5px" font-weight="bold" font-family="'Helvetica Neue', Helvetica, Arial-Unicode, Arial, Sans-serif">from the Noun Project</text></svg>