<svg xmlns:dc="http://purl.org/dc/elements/1.1/" xmlns:cc="http://creativecommons.org/ns#" xmlns:rdf="http://www.w3.org/1999/02/22-rdf-syntax-ns#" xmlns:svg="http://www.w3.org/2000/svg" xmlns="http://www.w3.org/2000/svg" xmlns:sodipodi="http://sodipodi.sourceforge.net/DTD/sodipodi-0.dtd" xmlns:inkscape="http://www.inkscape.org/namespaces/inkscape" version="1.1" x="0px" y="0px" viewBox="0 0 100 125"><g transform="translate(0,-952.36218)"><path style="font-size:medium;font-style:normal;font-variant:normal;font-weight:normal;font-stretch:normal;text-indent:0;text-align:start;text-decoration:none;line-height:normal;letter-spacing:normal;word-spacing:normal;text-transform:none;direction:ltr;block-progression:tb;writing-mode:lr-tb;text-anchor:start;baseline-shift:baseline;opacity:1;color:#FFFFFF;fill:#FFFFFF;fill-opacity:1;stroke:none;stroke-width:0.90638143000000004;marker:none;visibility:visible;display:inline;overflow:visible;enable-background:accumulate;font-family:Sans;-inkscape-font-specification:Sans" d="M 49.96875 6 C 36.330513 5.9115 23.769497 14.98557 20.0625 28.75 C 19.225493 31.85789 19.016798 34.91466 19.03125 37.84375 C 19.08254 48.2386 24.666415 57.2192 30.96875 65.9375 C 37.271085 74.6558 44.37132 83.2358 48.15625 92.625 A 2.0002 2.0002 0 0 0 51.84375 92.625 C 55.62868 83.2358 62.728915 74.6558 69.03125 65.9375 C 75.333585 57.2192 80.91746 48.2386 80.96875 37.84375 C 80.9832 34.91466 80.774507 31.85789 79.9375 28.75 C 76.230503 14.98557 63.669487 5.91148 50.03125 6 C 50.01029 6.00014 49.98972 5.99982 49.96875 6 z M 49.96875 10 A 2.0002 2.0002 0 0 0 50.03125 10 C 61.89964 9.89844 72.824723 17.75908 76.0625 29.78125 C 76.772885 32.41898 76.982138 35.13022 76.96875 37.84375 C 76.92457 46.7976 71.970351 55.03205 65.78125 63.59375 C 60.381531 71.06335 54.244891 78.74705 50 87.34375 C 45.755109 78.74705 39.618469 71.06335 34.21875 63.59375 C 28.029649 55.03205 23.07543 46.7976 23.03125 37.84375 C 23.01786 35.13022 23.227115 32.41898 23.9375 29.78125 C 27.175277 17.75908 38.10036 9.89844 49.96875 10 z M 49.9375 23.875 C 42.873927 23.866 37.084788 29.63272 37.09375 36.6875 C 37.10275 43.74228 42.905176 49.491 49.96875 49.5 C 57.032323 49.51 62.790212 43.77353 62.78125 36.71875 C 62.77225 29.66397 57.001074 23.88401 49.9375 23.875 z M 49.9375 27.875 C 54.837952 27.881 58.775033 31.8246 58.78125 36.71875 C 58.78745 41.61291 54.837952 45.50626 49.9375 45.5 C 45.037048 45.494 41.099967 41.58165 41.09375 36.6875 C 41.08755 31.79334 45.037048 27.86874 49.9375 27.875 z " transform="translate(0,952.36218)"/></g></svg>