<svg xmlns:dc="http://purl.org/dc/elements/1.1/" xmlns:cc="http://creativecommons.org/ns#" xmlns:rdf="http://www.w3.org/1999/02/22-rdf-syntax-ns#" xmlns:svg="http://www.w3.org/2000/svg" xmlns="http://www.w3.org/2000/svg" xmlns:sodipodi="http://sodipodi.sourceforge.net/DTD/sodipodi-0.dtd" xmlns:inkscape="http://www.inkscape.org/namespaces/inkscape" viewBox="0 0 16.933333 21.1666675" version="1.1" x="0px" y="0px"><g transform="translate(0,-280.06665)"><g transform="matrix(0.26458334,0,0,0.26458334,-1278.4951,-386.51464)" style="" display="inline"><path d="m 4864.1074,2546.2568 c -6.0633,0 -11,4.9367 -11,11 0,6.0633 4.9367,11 11,11 6.0633,0 11,-4.9367 11,-11 0,-6.0633 -4.9367,-11 -11,-11 z m 0,2 c 4.9824,0 9,4.0176 9,9 0,4.9824 -4.0176,9 -9,9 -4.9824,0 -9,-4.0176 -9,-9 0,-4.9824 4.0176,-9 9,-9 z" style="color:#000000;font-variant-ligatures:normal;font-variant-position:normal;font-variant-caps:normal;font-variant-numeric:normal;font-variant-alternates:normal;font-feature-settings:normal;text-indent:0;text-decoration-line:none;text-decoration-style:solid;text-decoration-color:#000000;text-transform:none;direction:ltr;text-orientation:mixed;dominant-baseline:auto;baseline-shift:baseline;white-space:normal;shape-padding:0;isolation:auto;mix-blend-mode:normal;color-interpolation:sRGB;color-interpolation-filters:linearRGB;solid-color:#000000;solid-opacity:1;vector-effect:none;paint-order:fill markers stroke;color-rendering:auto;image-rendering:auto;shape-rendering:auto;enable-background:accumulate;" clip-rule="nonzero" display="inline" overflow="visible" visibility="visible" fill="#000000" fill-opacity="1" fill-rule="nonzero" stroke="none"/><g transform="translate(1.0009493,6.1156859e-4)"><path d="m 4875.1113,2527.3623 c -2.1933,0 -4.0039,1.8033 -4.0039,3.998 0,2.004 0.014,0.8039 0,1.9883 -0.015,1.1986 0.6587,2.1132 1.3086,2.7344 1.9851,1.8972 6.9766,6.9746 6.9766,6.9746 0.9331,0.9869 2.3964,-0.4484 1.4277,-1.4004 0,0 -4.9619,-5.0511 -7.0234,-7.0215 -0.4564,-0.4362 -0.6949,-0.8194 -0.6895,-1.2636 0.014,-1.1844 0,-0.017 0,-2.0118 0,-1.089 0.9106,-1.9969 2.002,-1.998 7e-4,0 0,0 0,0 0.5955,0.015 1.1147,0.2905 1.3965,0.5664 4.2077,4.12 8.3993,8.2752 12.6016,12.4141 3.0028,2.9574 3.998,6.9959 3.998,9.9961 v 19.0078 c -0.019,1.3523 2.0191,1.3523 2,0 v -19.0078 c 0,-3.4353 -1.1063,-7.9872 -4.5937,-11.4219 -4.1995,-4.1361 -8.3941,-8.2906 -12.6075,-12.416 -0.644,-0.6306 -1.6005,-1.1111 -2.748,-1.1387 -0.015,0 -0.032,0 -0.045,0 z" style="color:#000000;font-variant-ligatures:normal;font-variant-position:normal;font-variant-caps:normal;font-variant-numeric:normal;font-variant-alternates:normal;font-feature-settings:normal;text-indent:0;text-decoration-line:none;text-decoration-style:solid;text-decoration-color:#000000;text-transform:none;direction:ltr;text-orientation:mixed;dominant-baseline:auto;baseline-shift:baseline;white-space:normal;shape-padding:0;isolation:auto;mix-blend-mode:normal;color-interpolation:sRGB;color-interpolation-filters:linearRGB;solid-color:#000000;solid-opacity:1;vector-effect:none;color-rendering:auto;image-rendering:auto;shape-rendering:auto;enable-background:accumulate;" clip-rule="nonzero" display="inline" overflow="visible" visibility="visible" fill="#000000" fill-opacity="1" fill-rule="nonzero" stroke="none"/><path d="m 4883.1074,2543.3623 c -2.1967,0 -4,1.7999 -4,3.9961 a 1.0001,1.0001 0 1 0 2,0 c 0,-1.1142 0.883,-1.9961 2,-1.9961 1.1171,0 2,0.8819 2,1.9961 v 10.9883 a 1.0001,1.0001 0 1 0 2,0 v -10.9883 c 0,-2.1962 -1.8032,-3.9961 -4,-3.9961 z" style="color:#000000;font-variant-ligatures:normal;font-variant-position:normal;font-variant-caps:normal;font-variant-numeric:normal;font-variant-alternates:normal;font-feature-settings:normal;text-indent:0;text-decoration-line:none;text-decoration-style:solid;text-decoration-color:#000000;text-transform:none;direction:ltr;text-orientation:mixed;dominant-baseline:auto;baseline-shift:baseline;white-space:normal;shape-padding:0;isolation:auto;mix-blend-mode:normal;color-interpolation:sRGB;color-interpolation-filters:linearRGB;solid-color:#000000;solid-opacity:1;vector-effect:none;paint-order:markers fill stroke;color-rendering:auto;image-rendering:auto;shape-rendering:auto;enable-background:accumulate;" clip-rule="nonzero" display="inline" overflow="visible" visibility="visible" fill="#000000" fill-opacity="1" fill-rule="nonzero" stroke="none"/><path d="m 4880.0938,2546.3623 a 1.0000999,1.0000999 0 0 0 -0.9844,1.0137 c 0,5.3517 -0.3609,8.4443 -1.1797,11.1191 -0.4659,1.5216 -0.8223,3.1167 -0.8223,5.1777 0,2.4868 1.0003,4.2458 1.9981,5.8672 1.0363,1.6842 2.0097,2.8107 2.0019,4.8028 a 1.0000999,1.0000999 0 1 0 2,0.01 c 0.01,-2.6661 -1.3609,-4.3352 -2.2988,-5.8594 -0.9766,-1.587 -1.7012,-2.8477 -1.7012,-4.8184 0,-1.8371 0.2977,-3.1673 0.7344,-4.5937 0.8975,-2.9318 1.2676,-6.2613 1.2676,-11.7031 a 1.0000999,1.0000999 0 0 0 -1.0156,-1.0137 z" style="color:#000000;font-variant-ligatures:normal;font-variant-position:normal;font-variant-caps:normal;font-variant-numeric:normal;font-variant-alternates:normal;font-feature-settings:normal;text-indent:0;text-decoration-line:none;text-decoration-style:solid;text-decoration-color:#000000;text-transform:none;direction:ltr;text-orientation:mixed;dominant-baseline:auto;baseline-shift:baseline;white-space:normal;shape-padding:0;isolation:auto;mix-blend-mode:normal;color-interpolation:sRGB;color-interpolation-filters:linearRGB;solid-color:#000000;solid-opacity:1;vector-effect:none;color-rendering:auto;image-rendering:auto;shape-rendering:auto;enable-background:accumulate;" clip-rule="nonzero" display="inline" overflow="visible" visibility="visible" fill="#000000" fill-opacity="1" fill-rule="nonzero" stroke="none"/><path d="m 4851.0566,2527.3623 c -1.1474,0.028 -2.1059,0.5081 -2.75,1.1387 -4.2133,4.1254 -8.4079,8.2799 -12.6074,12.416 -3.4874,3.4347 -4.5918,7.9866 -4.5918,11.4219 v 19.0078 c -0.019,1.3523 2.0191,1.3523 2,0 v -19.0078 c 0,-3.0002 0.9933,-7.0387 3.9961,-9.9961 4.2023,-4.1389 8.3939,-8.2941 12.6016,-12.4141 0.2821,-0.2762 0.8021,-0.552 1.3984,-0.5664 1.0923,0 2.0039,0.9084 2.0039,1.998 0,1.9947 -0.014,0.8274 0,2.0118 0.01,0.4442 -0.2351,0.8274 -0.6914,1.2636 -2.0615,1.9704 -7.0234,7.0215 -7.0234,7.0215 -0.9687,0.952 0.4946,2.3873 1.4277,1.4004 0,0 4.9915,-5.0774 6.9766,-6.9746 0.6498,-0.6212 1.3251,-1.5358 1.3105,-2.7344 -0.014,-1.1844 0,0.016 0,-1.9883 0,-2.1947 -1.8105,-3.998 -4.0039,-3.998 -0.016,-10e-5 -0.033,0 -0.047,0 z" style="color:#000000;font-variant-ligatures:normal;font-variant-position:normal;font-variant-caps:normal;font-variant-numeric:normal;font-variant-alternates:normal;font-feature-settings:normal;text-indent:0;text-decoration-line:none;text-decoration-style:solid;text-decoration-color:#000000;text-transform:none;direction:ltr;text-orientation:mixed;dominant-baseline:auto;baseline-shift:baseline;white-space:normal;shape-padding:0;isolation:auto;mix-blend-mode:normal;color-interpolation:sRGB;color-interpolation-filters:linearRGB;solid-color:#000000;solid-opacity:1;vector-effect:none;color-rendering:auto;image-rendering:auto;shape-rendering:auto;enable-background:accumulate;" clip-rule="nonzero" display="inline" overflow="visible" visibility="visible" fill="#000000" fill-opacity="1" fill-rule="nonzero" stroke="none"/><path d="m 4843.1074,2543.3623 c -2.1967,0 -4,1.7999 -4,3.9961 v 10.9883 a 1.0001,1.0001 0 1 0 2,0 v -10.9883 c 0,-1.1142 0.883,-1.9961 2,-1.9961 1.1171,0 2,0.8819 2,1.9961 a 1.0001,1.0001 0 1 0 2,0 c 0,-2.1962 -1.8032,-3.9961 -4,-3.9961 z" style="color:#000000;font-variant-ligatures:normal;font-variant-position:normal;font-variant-caps:normal;font-variant-numeric:normal;font-variant-alternates:normal;font-feature-settings:normal;text-indent:0;text-decoration-line:none;text-decoration-style:solid;text-decoration-color:#000000;text-transform:none;direction:ltr;text-orientation:mixed;dominant-baseline:auto;baseline-shift:baseline;white-space:normal;shape-padding:0;isolation:auto;mix-blend-mode:normal;color-interpolation:sRGB;color-interpolation-filters:linearRGB;solid-color:#000000;solid-opacity:1;vector-effect:none;paint-order:markers fill stroke;color-rendering:auto;image-rendering:auto;shape-rendering:auto;enable-background:accumulate;" clip-rule="nonzero" display="inline" overflow="visible" visibility="visible" fill="#000000" fill-opacity="1" fill-rule="nonzero" stroke="none"/><path d="m 4846.0898,2546.3623 a 1.0000999,1.0000999 0 0 0 -0.9843,1.0137 c 0,5.4418 0.3681,8.7713 1.2656,11.7031 0.4367,1.4264 0.7363,2.7566 0.7363,4.5937 0,1.9707 -0.7265,3.2314 -1.7031,4.8184 -0.9379,1.5242 -2.3073,3.1933 -2.2969,5.8594 a 1.0000999,1.0000999 0 1 0 2,-0.01 c -0.01,-1.9921 0.9637,-3.1186 2,-4.8028 0.9978,-1.6214 2,-3.3804 2,-5.8672 0,-2.061 -0.3564,-3.6561 -0.8222,-5.1777 -0.8189,-2.6748 -1.1797,-5.7674 -1.1797,-11.1191 a 1.0000999,1.0000999 0 0 0 -1.0157,-1.0137 z" style="color:#000000;font-variant-ligatures:normal;font-variant-position:normal;font-variant-caps:normal;font-variant-numeric:normal;font-variant-alternates:normal;font-feature-settings:normal;text-indent:0;text-decoration-line:none;text-decoration-style:solid;text-decoration-color:#000000;text-transform:none;direction:ltr;text-orientation:mixed;dominant-baseline:auto;baseline-shift:baseline;white-space:normal;shape-padding:0;isolation:auto;mix-blend-mode:normal;color-interpolation:sRGB;color-interpolation-filters:linearRGB;solid-color:#000000;solid-opacity:1;vector-effect:none;color-rendering:auto;image-rendering:auto;shape-rendering:auto;enable-background:accumulate;" clip-rule="nonzero" display="inline" overflow="visible" visibility="visible" fill="#000000" fill-opacity="1" fill-rule="nonzero" stroke="none"/></g><g><g transform="translate(0.51465)"><path d="m 4863.0957,2552.2568 c -1.6418,0 -2.9883,1.3581 -2.9883,3 0,1.642 1.3465,3 2.9883,3 h 0.9941 c 0.5548,0 0.9883,0.4328 0.9883,1 0,0.5673 -0.4335,1 -0.9883,1 h -2.9824 a 1.0001,1.0001 0 1 0 0,2 h 2.9824 c 1.6419,0 2.9883,-1.358 2.9883,-3 0,-1.6419 -1.3464,-3 -2.9883,-3 h -0.9941 c -0.5548,0 -0.9883,-0.4327 -0.9883,-1 0,-0.5672 0.4335,-1 0.9883,-1 h 2.9824 a 1.0001,1.0001 0 1 0 0,-2 z" style="color:#000000;font-variant-ligatures:normal;font-variant-position:normal;font-variant-caps:normal;font-variant-numeric:normal;font-variant-alternates:normal;font-feature-settings:normal;text-indent:0;text-decoration-line:none;text-decoration-style:solid;text-decoration-color:#000000;text-transform:none;direction:ltr;text-orientation:mixed;dominant-baseline:auto;baseline-shift:baseline;white-space:normal;shape-padding:0;isolation:auto;mix-blend-mode:normal;color-interpolation:sRGB;color-interpolation-filters:linearRGB;solid-color:#000000;solid-opacity:1;vector-effect:none;paint-order:fill markers stroke;color-rendering:auto;image-rendering:auto;shape-rendering:auto;enable-background:accumulate;" clip-rule="nonzero" display="inline" overflow="visible" visibility="visible" fill="#000000" fill-opacity="1" fill-rule="nonzero" stroke="none"/><path d="m 4864.0918,2550.2568 a 1.0001,1.0001 0 0 0 -0.9844,1.0137 v 1.9727 a 1.0001,1.0001 0 1 0 2,0 v -1.9727 a 1.0001,1.0001 0 0 0 -1.0156,-1.0137 z" style="color:#000000;font-variant-ligatures:normal;font-variant-position:normal;font-variant-caps:normal;font-variant-numeric:normal;font-variant-alternates:normal;font-feature-settings:normal;text-indent:0;text-decoration-line:none;text-decoration-style:solid;text-decoration-color:#000000;text-transform:none;direction:ltr;text-orientation:mixed;dominant-baseline:auto;baseline-shift:baseline;white-space:normal;shape-padding:0;isolation:auto;mix-blend-mode:normal;color-interpolation:sRGB;color-interpolation-filters:linearRGB;solid-color:#000000;solid-opacity:1;vector-effect:none;color-rendering:auto;image-rendering:auto;shape-rendering:auto;enable-background:accumulate;" clip-rule="nonzero" display="inline" overflow="visible" visibility="visible" fill="#000000" fill-opacity="1" fill-rule="nonzero" stroke="none"/><path d="m 4863.0918,2560.2568 a 1.0001,1.0001 0 0 0 -0.9844,1.0137 v 1.9727 a 1.0001,1.0001 0 1 0 2,0 v -1.9727 a 1.0001,1.0001 0 0 0 -1.0156,-1.0137 z" style="color:#000000;font-variant-ligatures:normal;font-variant-position:normal;font-variant-caps:normal;font-variant-numeric:normal;font-variant-alternates:normal;font-feature-settings:normal;text-indent:0;text-decoration-line:none;text-decoration-style:solid;text-decoration-color:#000000;text-transform:none;direction:ltr;text-orientation:mixed;dominant-baseline:auto;baseline-shift:baseline;white-space:normal;shape-padding:0;isolation:auto;mix-blend-mode:normal;color-interpolation:sRGB;color-interpolation-filters:linearRGB;solid-color:#000000;solid-opacity:1;vector-effect:none;color-rendering:auto;image-rendering:auto;shape-rendering:auto;enable-background:accumulate;" clip-rule="nonzero" display="inline" overflow="visible" visibility="visible" fill="#000000" fill-opacity="1" fill-rule="nonzero" stroke="none"/></g><path d="m 4864.0918,2534.2568 a 1.0000999,1.0000999 0 0 0 -0.6914,0.291 l -6,5.9922 a 1.0000999,1.0000999 0 0 0 -0.293,0.7071 v 2.9941 a 1.0000999,1.0000999 0 1 0 2,0 v -2.5801 l 5,-4.9922 5,4.9922 v 2.5801 a 1.0000999,1.0000999 0 1 0 2,0 v -2.9941 a 1.0000999,1.0000999 0 0 0 -0.2949,-0.7071 l -6,-5.9922 a 1.0000999,1.0000999 0 0 0 -0.7207,-0.291 z" style="color:#000000;font-variant-ligatures:normal;font-variant-position:normal;font-variant-caps:normal;font-variant-numeric:normal;font-variant-alternates:normal;font-feature-settings:normal;text-indent:0;text-decoration-line:none;text-decoration-style:solid;text-decoration-color:#000000;text-transform:none;direction:ltr;text-orientation:mixed;dominant-baseline:auto;baseline-shift:baseline;white-space:normal;shape-padding:0;isolation:auto;mix-blend-mode:normal;color-interpolation:sRGB;color-interpolation-filters:linearRGB;solid-color:#000000;solid-opacity:1;vector-effect:none;color-rendering:auto;image-rendering:auto;shape-rendering:auto;enable-background:accumulate;" clip-rule="nonzero" display="inline" overflow="visible" visibility="visible" fill="#000000" fill-opacity="1" fill-rule="nonzero" stroke="none"/><path d="m 4863.1074,2529.3623 v 6 h 2 v -6 z" style="color:#000000;font-variant-ligatures:normal;font-variant-position:normal;font-variant-caps:normal;font-variant-numeric:normal;font-variant-alternates:normal;font-feature-settings:normal;text-indent:0;text-decoration-line:none;text-decoration-style:solid;text-decoration-color:#000000;text-transform:none;direction:ltr;text-orientation:mixed;dominant-baseline:auto;baseline-shift:baseline;white-space:normal;shape-padding:0;isolation:auto;mix-blend-mode:normal;color-interpolation:sRGB;color-interpolation-filters:linearRGB;solid-color:#000000;solid-opacity:1;vector-effect:none;color-rendering:auto;image-rendering:auto;shape-rendering:auto;enable-background:accumulate;" clip-rule="nonzero" display="inline" overflow="visible" visibility="visible" fill="#000000" fill-opacity="1" fill-rule="nonzero" stroke="none"/><path d="m 4865.1064,2541.2563 a 0.99997646,0.99997646 0 0 1 -1,1 0.99997646,0.99997646 0 0 1 -0.9999,-1 0.99997646,0.99997646 0 0 1 0.9999,-0.9999 0.99997646,0.99997646 0 0 1 1,0.9999 z" style="paint-order:fill markers stroke;" fill="#000000" fill-opacity="1" stroke="none"/><path d="m 4857.1074,2569.3623 v 3 a 1.0001,1.0001 0 0 0 1,1 h 12 a 1.0001,1.0001 0 0 0 1,-1 v -3 h -2 v 2 h -10 v -2 z" style="color:#000000;font-variant-ligatures:normal;font-variant-position:normal;font-variant-caps:normal;font-variant-numeric:normal;font-variant-alternates:normal;font-feature-settings:normal;text-indent:0;text-decoration-line:none;text-decoration-style:solid;text-decoration-color:#000000;text-transform:none;direction:ltr;text-orientation:mixed;dominant-baseline:auto;baseline-shift:baseline;white-space:normal;shape-padding:0;isolation:auto;mix-blend-mode:normal;color-interpolation:sRGB;color-interpolation-filters:linearRGB;solid-color:#000000;solid-opacity:1;vector-effect:none;color-rendering:auto;image-rendering:auto;shape-rendering:auto;enable-background:accumulate;" clip-rule="nonzero" display="inline" overflow="visible" visibility="visible" fill="#000000" fill-opacity="1" fill-rule="nonzero" stroke="none"/></g></g></g></svg>