<svg xmlns="http://www.w3.org/2000/svg" xmlns:xlink="http://www.w3.org/1999/xlink" version="1.1" x="0px" y="0px" viewBox="0 0 100 125" style="enable-background:new 0 0 100 100;" xml:space="preserve"><g><path d="M22.1,54.3c6.3,0,11.4-5.1,11.4-11.4s-5.1-11.4-11.4-11.4s-11.4,5.1-11.4,11.4C10.7,49.2,15.8,54.3,22.1,54.3z M22.1,33.5   c5.2,0,9.4,4.2,9.4,9.4s-4.2,9.4-9.4,9.4s-9.4-4.2-9.4-9.4S16.9,33.5,22.1,33.5z"/><path d="M91.1,59.7C91.1,59.6,91,59.6,91.1,59.7l-4.7-2.5c-0.9-0.6-2-0.5-2.8,0.3c-3.5,2.8-8.6,2.8-12.2,0   c-0.8-0.7-1.9-0.8-2.8-0.3L64,59.7c0,0-0.1,0-0.1,0.1c-1.8,1.3-3.2,3-3.9,5L58.7,64c-0.9-0.6-2-0.5-2.8,0.2   c-3.6,2.7-8.6,2.7-12.2,0c-0.8-0.7-1.9-0.8-2.8-0.2l-1.2,0.7c-0.8-2-2.1-3.8-3.9-5c0,0-0.1,0-0.1-0.1l-4.6-2.5   c-0.9-0.6-2-0.5-2.8,0.3c-3.5,2.8-8.6,2.8-12.2,0c-0.8-0.7-1.9-0.8-2.8-0.3l-4.6,2.5c0,0-0.1,0-0.1,0.1c-3.5,2.4-5.2,6.7-4.5,10.9   L7.3,85c0.5,2.4,2.7,4.1,5.2,4.1h19.6c0.8,0,1.5-0.2,2.2-0.5l0.7,3.3c0.5,2.4,2.7,4.1,5.2,4.1h19.6c2.5,0,4.6-1.7,5.2-4.1l0.7-3.3   c0.7,0.3,1.4,0.5,2.2,0.5h19.6c2.5,0,4.6-1.7,5.2-4.1l3.2-14.4C96.4,66.3,94.6,62.1,91.1,59.7z M31.9,87.1H12.3   c-1.6,0-2.9-1.1-3.2-2.6L5.9,70.2c-0.6-3.4,0.8-6.9,3.7-8.8l4.6-2.5c0,0,0.1,0,0.1-0.1c0.1-0.1,0.3-0.1,0.4,0c0,0,0.1,0,0.1,0.1   c4.3,3.5,10.5,3.5,14.8,0c0,0,0.1,0,0.1-0.1c0.1-0.1,0.2-0.1,0.4,0c0,0,0.1,0,0.1,0.1l4.6,2.5c1.5,1.1,2.6,2.6,3.3,4.3l-1.6,0.9   c0,0-0.1,0-0.1,0.1c-3.5,2.4-5.2,6.7-4.5,10.9l2,9.1C33.1,86.9,32.5,87.1,31.9,87.1z M62.8,91.4c-0.3,1.5-1.7,2.6-3.2,2.6H40   c-1.6,0-2.9-1.1-3.2-2.6l-3.2-14.3c-0.6-3.4,0.8-6.9,3.7-8.8l4.6-2.5c0,0,0.1,0,0.1-0.1c0.1-0.1,0.3-0.1,0.4,0l0.1,0.1   c4.3,3.3,10.4,3.3,14.7,0l0.1-0.1c0.1-0.1,0.2-0.1,0.4,0c0,0,0.1,0,0.1,0.1l4.6,2.5c2.8,2,4.2,5.5,3.7,8.8L62.8,91.4z M93.7,70.1   l-3.2,14.4c-0.3,1.5-1.7,2.6-3.2,2.6H67.7c-0.6,0-1.2-0.2-1.8-0.5l2-9.1c0.7-4.2-1.1-8.4-4.5-10.9c0,0-0.1,0-0.1-0.1l-1.6-0.9   c0.6-1.7,1.8-3.2,3.3-4.3l4.6-2.5c0,0,0.1,0,0.1-0.1c0.1-0.1,0.3-0.1,0.4,0c0,0,0.1,0,0.1,0.1c4.3,3.5,10.5,3.5,14.8,0   c0,0,0.1,0,0.1-0.1c0.1-0.1,0.2-0.1,0.4,0c0,0,0.1,0,0.1,0.1l4.6,2.5C92.8,63.3,94.3,66.8,93.7,70.1z"/><path d="M66.1,42.9c0,6.3,5.1,11.4,11.4,11.4s11.4-5.1,11.4-11.4s-5.1-11.4-11.4-11.4S66.1,36.6,66.1,42.9z M77.5,33.5   c5.2,0,9.4,4.2,9.4,9.4s-4.2,9.4-9.4,9.4s-9.4-4.2-9.4-9.4C68.1,37.7,72.3,33.5,77.5,33.5z"/><path d="M49.8,38.4c-6.3,0-11.4,5.1-11.4,11.4s5.1,11.4,11.4,11.4s11.4-5.1,11.4-11.4S56.1,38.4,49.8,38.4z M49.8,59.2   c-5.2,0-9.4-4.2-9.4-9.4s4.2-9.4,9.4-9.4s9.4,4.2,9.4,9.4S55,59.2,49.8,59.2z"/><path d="M34,27c-0.1,2.4-0.6,3.1-0.7,3.2c-0.4,0.2-0.7,0.6-0.6,1c0.1,0.5,0.5,0.9,1,0.9c4.6,0,6.7-2.2,7.4-3.3c0.2,0,0.4,0,0.6,0   c4.5,0,8.6-1.7,11.2-4.5c1,0.7,2.1,1.3,3.3,1.7c1.6,0.6,3.2,0.8,4.9,0.8c0.7,1,2.4,2.6,6,2.6c0.5,0,0.9-0.4,1-0.9   c0-0.4-0.2-0.8-0.6-1c-0.1-0.1-0.4-0.6-0.5-2.3c3.4-1.8,5.6-5.1,5.6-8.6c0-5.6-5.3-10.1-11.9-10.1c-1.6,0-3.1,0.3-4.6,0.8   c-1.1,0.4-2,0.9-2.9,1.5C50.5,5.9,46.3,4,41.6,4C33.5,4,27,9.6,27,16.4C27,20.7,29.6,24.7,34,27z M56.8,9.3   c1.2-0.4,2.6-0.7,3.9-0.7c5.5,0,9.9,3.6,9.9,8.1c0,2.9-1.9,5.6-5,7.1c0,0-0.1,0-0.1,0.1c-0.1,0-0.2,0.1-0.2,0.2l-0.1,0.1   c0,0.1-0.1,0.1-0.1,0.2s0,0.1,0,0.2s0,0.1,0,0.2c0,1.1,0.1,1.9,0.3,2.6c-2.1-0.5-2.7-1.8-2.8-1.9c-0.2-0.4-0.6-0.6-1-0.6   c-1.6,0.1-3.3-0.1-4.7-0.6c-1-0.3-1.9-0.8-2.7-1.4c1.3-1.9,2.1-4.1,2.1-6.4c0-2.2-0.7-4.2-1.8-6C55.2,10,55.9,9.6,56.8,9.3z    M41.6,6c7,0,12.6,4.7,12.6,10.4s-5.7,10.4-12.6,10.4c-0.4,0-0.7,0-1.1,0l0,0c-0.4,0-0.8,0.2-1,0.6c0,0.1-0.9,2-4,2.6   c0.2-0.8,0.4-2,0.4-3.6c0-0.4-0.3-0.8-0.6-0.9c-3.9-1.9-6.3-5.3-6.3-9C29,10.7,34.7,6,41.6,6z"/><path d="M34,17.6c0.1,0.1,0.2,0.2,0.3,0.2c0.1,0.1,0.2,0.1,0.4,0.1s0.3,0,0.4-0.1c0.1-0.1,0.2-0.1,0.3-0.2c0.2-0.2,0.3-0.4,0.3-0.7   c0-0.1,0-0.3-0.1-0.4c0-0.1-0.1-0.2-0.2-0.3c-0.1-0.1-0.2-0.2-0.3-0.2c-0.2-0.1-0.5-0.1-0.8,0c-0.1,0-0.2,0.1-0.3,0.2   s-0.2,0.2-0.2,0.3c-0.1,0.1-0.1,0.2-0.1,0.4s0,0.3,0.1,0.4C33.8,17.4,33.9,17.5,34,17.6z"/><path d="M41.6,17.9c0.3,0,0.5-0.1,0.7-0.3c0.2-0.2,0.3-0.4,0.3-0.7c0-0.1,0-0.3-0.1-0.4c0-0.1-0.1-0.2-0.2-0.3   c-0.4-0.4-1-0.4-1.4,0c-0.1,0.1-0.2,0.2-0.2,0.3c-0.1,0.1-0.1,0.2-0.1,0.4c0,0.3,0.1,0.5,0.3,0.7C41.1,17.8,41.4,17.9,41.6,17.9z"/><path d="M48.5,17.9c0.3,0,0.5-0.1,0.7-0.3c0.2-0.2,0.3-0.4,0.3-0.7c0-0.3-0.1-0.5-0.3-0.7c-0.4-0.4-1-0.4-1.4,0   c-0.2,0.2-0.3,0.4-0.3,0.7c0,0.3,0.1,0.5,0.3,0.7S48.2,17.9,48.5,17.9z"/></g></svg>