<svg xmlns="http://www.w3.org/2000/svg" viewBox="0 0 64 80" x="0px" y="0px"><title>25-Graduation</title><g data-name="25-Graduation"><path d="M61,57H58V17H56V57H16a1,1,0,0,0-1,.8S14.14,62,11,62c-2.91,0-3.86-3.49-4-4.11V17H5V58a1,1,0,0,0,0,.2c.4,2,2.17,5.8,6,5.8H56c2.25,0,3.92-.64,5-1.92a5.56,5.56,0,0,0,1-4.28A1,1,0,0,0,61,57Zm-1.59,3.83A4.25,4.25,0,0,1,56,62H15.15a8.79,8.79,0,0,0,1.63-3H60.06A3.1,3.1,0,0,1,59.41,60.83Z"/><path d="M21.55,6.89,25,8.62V18a8.2,8.2,0,0,0,2.77,6.54l-.54,1.67L20.6,29.08a1,1,0,0,0-.5.47l-1,2A1,1,0,0,0,19,32V44h2V32.24l.73-1.46,6-2.61L30.59,31l-1.29,1.29A1,1,0,0,0,29,33v1h2v-.59l1.71-1.71,3.54-3.54,6,2.61L43,32.24V44h2V32a1,1,0,0,0-.11-.45l-1-2a1,1,0,0,0-.5-.47l-6.63-2.87-.54-1.67A8.2,8.2,0,0,0,39,18V8.62l2-1V12h2V6a1,1,0,0,0-.07-.35l0-.09a1,1,0,0,0-.15-.23l0-.05a1,1,0,0,0-.24-.18l-10-5a1,1,0,0,0-.89,0l-10,5a1,1,0,0,0,0,1.79ZM32,29.59l-2.84-2.84.38-1.19a7,7,0,0,0,4.9,0l.38,1.19ZM37,18c0,2.77-1.31,6-5,6s-5-3.23-5-6V15H37Zm0-5H27V9.62l4.55,2.28a1,1,0,0,0,.89,0L37,9.62ZM32,2.12,37.76,5H31V7h6.76L32,9.88,24.24,6Z"/><rect x="34" y="35" width="6" height="2"/><rect x="38" y="39" width="2" height="2"/><path d="M12,10V42a2,2,0,0,0,2,2h2V42H14V10a3.89,3.89,0,0,0-4-4H5V8h5A1.88,1.88,0,0,1,12,10Z"/><rect x="5" y="13" width="2" height="2"/><rect x="56" y="13" width="2" height="2"/><rect x="1" y="6" width="2" height="2"/><rect x="61" y="6" width="2" height="2"/><rect x="17" y="47" width="34" height="2"/><rect x="13" y="52" width="34" height="2"/><path d="M52,42V10a1.88,1.88,0,0,1,2-2h5V6H54a3.89,3.89,0,0,0-4,4V42H48v2h2A2,2,0,0,0,52,42Z"/><path d="M19,26h3V24H19V11H17V24A2,2,0,0,0,19,26Z"/><path d="M42,26h3a2,2,0,0,0,2-2V11H45V24H42Z"/><rect x="49" y="52" width="2" height="2"/><path d="M23,37a3,3,0,1,0,3-3A3,3,0,0,0,23,37Zm4,0a1,1,0,1,1-1-1A1,1,0,0,1,27,37Z"/></g></svg>