<svg xmlns="http://www.w3.org/2000/svg" xmlns:xlink="http://www.w3.org/1999/xlink" version="1.1" x="0px" y="0px" viewBox="0 0 16 20" style="enable-background:new 0 0 16 16;" xml:space="preserve"><g><path style="font-size:medium;font-style:normal;font-variant:normal;font-weight:normal;font-stretch:normal;text-indent:0;text-align:start;text-decoration:none;line-height:normal;letter-spacing:normal;word-spacing:normal;text-transform:none;direction:ltr;block-progression:tb;writing-mode:lr-tb;text-anchor:start;baseline-shift:baseline;opacity:1;color:#FFFFFF;fill:#FFFFFF;fill-opacity:1;stroke:none;stroke-width:0.90638143000000004;marker:none;visibility:visible;display:inline;overflow:visible;enable-background:accumulate;font-family:Sans;-inkscape-font-specification:Sans" d="M13,3.5H3C2.17,3.5,1.5,4.17,1.5,5v6c0,0.4,0.16,0.76,0.41,1.03c0.01,0.01,0.01,0.03,0.02,0.04s0.03,0.02,0.04,0.02   C2.24,12.34,2.6,12.5,3,12.5h10c0.4,0,0.76-0.16,1.03-0.41c0.01-0.01,0.03-0.01,0.04-0.02s0.02-0.03,0.02-0.04   c0.25-0.27,0.41-0.63,0.41-1.03V5C14.5,4.17,13.83,3.5,13,3.5z M2.5,10.79V6.31L5.49,7.8L2.5,10.79z M3.21,11.5l3.22-3.22   l1.34,0.67C7.85,8.98,7.92,9,8,9s0.15-0.02,0.22-0.05l1.34-0.67l3.22,3.22H3.21z M13.5,10.79L10.51,7.8l2.99-1.49V10.79z    M13.5,5.19L8,7.94L2.5,5.19V5c0-0.28,0.22-0.5,0.5-0.5h10c0.28,0,0.5,0.22,0.5,0.5V5.19z"/></g></svg>