<svg xmlns="http://www.w3.org/2000/svg" xmlns:xlink="http://www.w3.org/1999/xlink" version="1.1" x="0px" y="0px" viewBox="0 0 512 640" style="enable-background:new 0 0 512 512;" xml:space="preserve"><g><g><g><g><g><path d="M282.75,116H256c-2.762,0-5-2.239-5-5v-6.75C251,72.131,277.131,46,309.25,46H336c2.762,0,5,2.239,5,5v6.75       C341,89.869,314.869,116,282.75,116z M261,106h21.75C309.355,106,331,84.355,331,57.75V56h-21.75       C282.645,56,261,77.645,261,104.25V106z"/></g><g><path d="M256,116h-26.75C197.131,116,171,89.869,171,57.75V51c0-2.761,2.239-5,5-5h26.75C234.869,46,261,72.131,261,104.25V111       C261,113.761,258.762,116,256,116z M181,56v1.75c0,26.605,21.645,48.25,48.25,48.25H251v-1.75C251,77.645,229.355,56,202.75,56       H181z"/></g><g><path d="M256,166c-2.762,0-5-2.239-5-5V11c0-2.761,2.238-5,5-5s5,2.239,5,5v150C261,163.761,258.762,166,256,166z"/></g></g><g><path d="M256,263.979c-49.559,0-95.735-19.722-130.023-55.531c-1.91-1.995-1.841-5.16,0.153-7.069      c1.994-1.91,5.159-1.841,7.069,0.153c32.384,33.821,75.996,52.447,122.801,52.447c46.805,0,90.416-18.626,122.801-52.447      c1.909-1.994,5.074-2.064,7.069-0.153c1.994,1.91,2.063,5.075,0.153,7.069C351.734,244.257,305.558,263.979,256,263.979z"/></g><g><path d="M129.587,452.011c-1.244,0-2.488-0.461-3.458-1.389c-1.995-1.91-2.063-5.075-0.153-7.069      c34.288-35.81,80.465-55.531,130.023-55.531c49.558,0,95.734,19.722,130.023,55.531c1.91,1.994,1.841,5.159-0.153,7.069      s-5.159,1.841-7.069-0.153c-32.385-33.821-75.996-52.447-122.801-52.447c-46.805,0-90.417,18.626-122.801,52.447      C132.217,451.494,130.903,452.011,129.587,452.011z"/></g><g><path d="M256,506c-0.912,0-1.823-0.249-2.629-0.747c-60.479-37.382-98.049-105.782-98.049-178.508      c0-36.101,9.312-72.113,26.927-104.145c17.384-31.61,41.978-57.839,71.122-75.854c1.611-0.996,3.646-0.996,5.258,0      c29.145,18.014,53.738,44.244,71.122,75.854c17.616,32.031,26.928,68.044,26.928,104.145c0,72.726-37.57,141.126-98.05,178.508      C257.823,505.751,256.912,506,256,506z M256,156.91c-55.181,35.472-90.678,101.769-90.678,169.835      c0,68.226,34.667,132.432,90.678,168.347c56.012-35.916,90.679-100.121,90.679-168.347      C346.679,258.679,311.182,192.382,256,156.91z"/></g><g><path d="M256,506c-99.252,0-180-80.748-180-180s80.748-180,180-180c99.252,0,180,80.748,180,180S355.252,506,256,506z M256,156      c-93.738,0-170,76.262-170,170s76.262,170,170,170s170-76.262,170-170S349.738,156,256,156z"/></g><g><path d="M431,331H81c-2.761,0-5-2.238-5-5s2.239-5,5-5h350c2.762,0,5,2.238,5,5S433.762,331,431,331z"/></g><g><path d="M256,506c-2.762,0-5-2.238-5-5V151c0-2.761,2.238-5,5-5s5,2.239,5,5v350C261,503.762,258.762,506,256,506z"/></g><g><path d="M256,506c-64.106,0-124.375-24.965-169.706-70.294C40.964,390.376,16,330.106,16,266V11c0-2.761,2.239-5,5-5      s5,2.239,5,5v255c0,126.822,103.178,230,230,230s230-103.178,230-230V11c0-2.761,2.238-5,5-5s5,2.239,5,5v255      c0,64.106-24.965,124.376-70.294,169.706C380.376,481.035,320.106,506,256,506z"/></g></g></g></g></svg>