<svg xmlns="http://www.w3.org/2000/svg" data-name="Layer 1" viewBox="0 0 90 112.5" x="0px" y="0px"><path d="M69.858,52.237H71.1a3.826,3.826,0,0,0,3.822-3.822V41.586A3.826,3.826,0,0,0,71.1,37.763H69.858a3.06,3.06,0,0,1-2.163-5.223l.879-.878a3.831,3.831,0,0,0,0-5.406l-4.829-4.829a3.826,3.826,0,0,0-5.406,0l-.879.878a3.058,3.058,0,0,1-5.222-2.163V18.9a3.827,3.827,0,0,0-3.823-3.823H41.586A3.827,3.827,0,0,0,37.763,18.9v1.242a3.058,3.058,0,0,1-5.222,2.163l-.879-.878a3.826,3.826,0,0,0-5.406,0l-4.829,4.829a3.826,3.826,0,0,0,0,5.406l.879.878a3.06,3.06,0,0,1-2.164,5.223H18.9a3.827,3.827,0,0,0-3.823,3.823v6.829A3.827,3.827,0,0,0,18.9,52.237h1.242a3.06,3.06,0,0,1,2.164,5.223l-.879.878a3.826,3.826,0,0,0,0,5.406l4.829,4.83a3.827,3.827,0,0,0,5.406,0l.879-.878a3.059,3.059,0,0,1,5.222,2.163V71.1a3.827,3.827,0,0,0,3.823,3.822h6.829A3.827,3.827,0,0,0,52.238,71.1V69.858a3.059,3.059,0,0,1,5.222-2.163l.879.878a3.829,3.829,0,0,0,5.406,0l4.829-4.829a3.828,3.828,0,0,0,0-5.406l-.879-.878a3.06,3.06,0,0,1,2.163-5.223Zm-3.921,6.98.879.879a1.339,1.339,0,0,1,0,1.891l-4.829,4.829a1.339,1.339,0,0,1-1.891,0l-.879-.879a5.544,5.544,0,0,0-9.465,3.921V71.1a1.338,1.338,0,0,1-1.337,1.336H41.586A1.337,1.337,0,0,1,40.249,71.1V69.858a5.461,5.461,0,0,0-3.423-5.123,5.631,5.631,0,0,0-2.157-.436,5.469,5.469,0,0,0-3.886,1.638l-.879.879a1.339,1.339,0,0,1-1.891,0l-4.829-4.829a1.339,1.339,0,0,1,0-1.891l.879-.879a5.544,5.544,0,0,0-3.921-9.465H18.9a1.339,1.339,0,0,1-1.337-1.337V41.586A1.338,1.338,0,0,1,18.9,40.249h1.242a5.545,5.545,0,0,0,3.921-9.466l-.879-.879a1.339,1.339,0,0,1,0-1.891l4.829-4.829a1.34,1.34,0,0,1,1.891,0l.879.879a5.545,5.545,0,0,0,9.466-3.921V18.9a1.338,1.338,0,0,1,1.337-1.337h6.829A1.338,1.338,0,0,1,49.752,18.9v1.242a5.544,5.544,0,0,0,9.465,3.921l.879-.879a1.34,1.34,0,0,1,1.891,0l4.829,4.829a1.346,1.346,0,0,1,0,1.891l-.879.879a5.545,5.545,0,0,0,3.921,9.466H71.1a1.338,1.338,0,0,1,1.337,1.337v6.829A1.339,1.339,0,0,1,71.1,49.752H69.858a5.544,5.544,0,0,0-3.921,9.465ZM45,27.852A17.148,17.148,0,1,0,62.148,45,17.167,17.167,0,0,0,45,27.852Zm0,31.81A14.662,14.662,0,1,1,59.663,45,14.678,14.678,0,0,1,45,59.662Zm0-27.126A12.464,12.464,0,1,0,57.464,45,12.478,12.478,0,0,0,45,32.536Zm0,22.442A9.978,9.978,0,1,1,54.978,45,9.989,9.989,0,0,1,45,54.978Zm3.959-9.521a3.465,3.465,0,0,1,.626,3.515,4.1,4.1,0,0,1-3.269,2.452v.76a1.243,1.243,0,0,1-2.486,0v-.831a4.645,4.645,0,0,1-3.617-3.485,1.243,1.243,0,1,1,2.422-.557c.369,1.6,2.169,1.809,3.174,1.678a1.718,1.718,0,0,0,1.462-.924.979.979,0,0,0-.222-1.017c-.484-.582-.966-.677-1.923-.82a8.817,8.817,0,0,1-1.8-.411l-.039-.015A3.735,3.735,0,0,1,40.7,42.327a3.853,3.853,0,0,1,2.634-3.491c.164-.061.329-.113.493-.157v-.862a1.243,1.243,0,0,1,2.486,0v.834A4.945,4.945,0,0,1,49.682,41.8a1.243,1.243,0,1,1-2.325.881A2.332,2.332,0,0,0,44.2,41.167a1.406,1.406,0,0,0-1.013,1.2c-.009.609.623.964,1.015,1.126a6.79,6.79,0,0,0,1.292.28A4.94,4.94,0,0,1,48.959,45.457ZM5.009,55.579a1.243,1.243,0,0,1-.882,1.52,1.224,1.224,0,0,1-.32.042,1.243,1.243,0,0,1-1.2-.924,43.85,43.85,0,0,1,77.183-37.9l.336-5.5a1.243,1.243,0,1,1,2.481.151L82.054,22a1.243,1.243,0,0,1-1.241,1.167,1.223,1.223,0,0,1-.287-.034l-8.617-2.046a1.243,1.243,0,1,1,.575-2.418l5.437,1.291A41.367,41.367,0,0,0,5.009,55.579Zm82.344.77A43.9,43.9,0,0,1,45.072,88.866,44,44,0,0,1,10.326,71.834l-.338,5.53a1.243,1.243,0,0,1-1.239,1.167c-.026,0-.052,0-.077,0a1.242,1.242,0,0,1-1.165-1.316l.552-9.038a1.243,1.243,0,0,1,1.528-1.133L18.2,69.087a1.243,1.243,0,0,1-.574,2.418l-5.41-1.284a41.365,41.365,0,0,0,72.823-35.6A1.243,1.243,0,0,1,87.449,34,43.841,43.841,0,0,1,87.353,56.349Z"/></svg>