<svg xmlns="http://www.w3.org/2000/svg" xmlns:xlink="http://www.w3.org/1999/xlink" version="1.1" x="0px" y="0px" viewBox="0 0 512 640" style="enable-background:new 0 0 512 512;" xml:space="preserve"><g><g><g><g><path d="M229.271,510.752H37.463c-2.759,0-4.995-2.236-4.995-4.995V177.952c0-2.759,2.237-4.995,4.995-4.995      h94.668c2.759,0,4.995,2.237,4.995,4.995s-2.237,4.995-4.995,4.995H42.459v317.815h186.813c11.984,0,21.734-9.749,21.734-21.734      V240.391c0-2.759,2.237-4.995,4.995-4.995c2.759,0,4.995,2.237,4.995,4.995v238.637      C260.995,496.521,246.764,510.752,229.271,510.752z"/></g><g><path d="M474.537,510.752H282.729c-17.493,0-31.724-14.231-31.724-31.724V240.391      c0-2.759,2.237-4.995,4.995-4.995c2.759,0,4.995,2.237,4.995,4.995v238.637c0,11.984,9.749,21.734,21.734,21.734h186.813      V182.947h-89.673c-2.759,0-4.995-2.237-4.995-4.995s2.236-4.995,4.995-4.995h94.668c2.759,0,4.995,2.237,4.995,4.995v327.805      C479.532,508.516,477.296,510.752,474.537,510.752z"/></g><g><g><path d="M203.957,323.435c-15.059,0-29.22-5.789-39.974-16.366c-10.886-10.705-16.927-24.975-17.041-40.222       c-21.089-8.981-34.69-29.526-34.69-52.472c0-16.696,7.289-32.5,19.998-43.361c-12.709-10.859-19.998-26.663-19.998-43.36       c0-23.715,14.825-45.066,36.975-53.387c-2.165-7.398-2.799-15.075-1.881-22.835c3.204-27.132,25.336-48.179,52.622-50.045l0,0       c16.01-1.093,31.246,4.305,42.917,15.205c11.51,10.75,18.111,25.943,18.111,41.686v207.274       c0,31.397-25.146,57.36-56.055,57.875C204.613,323.432,204.284,323.435,203.957,323.435z M200.649,11.354       c-22.497,1.539-40.742,18.886-43.383,41.25c-0.784,6.642-0.199,13.203,1.742,19.501c1.44,4.671-1.039,9.629-5.644,11.285       c-18.615,6.693-31.121,24.481-31.121,44.264c0,13.77,6.013,26.807,16.498,35.766c2.235,1.91,3.517,4.679,3.516,7.595       c0,2.917-1.281,5.684-3.516,7.594c-10.484,8.96-16.498,21.996-16.498,35.766c0,19.056,11.373,36.103,28.974,43.432       c3.473,1.448,5.716,4.812,5.715,8.572c0,12.741,4.992,24.653,14.058,33.568c9.063,8.913,21.05,13.676,33.786,13.492       c25.492-0.425,46.231-21.907,46.231-47.887V58.278c0-13.176-5.306-25.387-14.94-34.384       C226.439,14.903,213.855,10.453,200.649,11.354L200.649,11.354z"/></g><g><path d="M308.043,323.435c-0.328,0-0.655-0.003-0.983-0.009c-30.908-0.515-56.055-26.478-56.055-57.875V58.278       c0-15.742,6.601-30.936,18.111-41.686c11.669-10.899,26.907-16.3,42.916-15.205c27.287,1.866,49.418,22.913,52.623,50.045       c0.916,7.762,0.283,15.44-1.882,22.835c22.148,8.321,36.975,29.673,36.975,53.388c0,16.697-7.289,32.501-19.998,43.361       c12.709,10.859,19.998,26.663,19.998,43.36c0,22.946-13.599,43.49-34.69,52.472c-0.122,15.267-6.163,29.524-17.041,40.222       C337.263,317.645,323.1,323.434,308.043,323.435z M308.001,11.239c-11.978,0-23.258,4.427-32.066,12.654       c-9.634,8.998-14.94,21.209-14.94,34.384v207.274c0,25.98,20.74,47.461,46.231,47.887c12.753,0.197,24.724-4.579,33.786-13.492       c9.065-8.915,14.058-20.826,14.058-33.539c-0.002-3.788,2.24-7.153,5.713-8.6c17.602-7.329,28.975-24.377,28.975-43.433       c0-13.771-6.014-26.807-16.498-35.766c-2.235-1.909-3.516-4.677-3.517-7.594c0-2.917,1.282-5.685,3.517-7.595       c10.485-8.959,16.498-21.995,16.498-35.766c0-19.783-12.506-37.571-31.12-44.264c-4.606-1.656-7.085-6.613-5.646-11.285       c1.94-6.296,2.526-12.857,1.741-19.501c-2.641-22.363-20.887-39.711-43.382-41.25l0,0       C310.23,11.277,309.111,11.239,308.001,11.239z"/></g></g><g><path d="M209.171,385.874H84.293c-2.759,0-4.995-2.236-4.995-4.995s2.237-4.995,4.995-4.995h124.878      c2.759,0,4.995,2.236,4.995,4.995S211.929,385.874,209.171,385.874z"/></g><g><path d="M209.171,448.313H84.293c-2.759,0-4.995-2.236-4.995-4.995s2.237-4.995,4.995-4.995h124.878      c2.759,0,4.995,2.236,4.995,4.995S211.929,448.313,209.171,448.313z"/></g><g><path d="M427.707,385.874H302.829c-2.759,0-4.995-2.236-4.995-4.995s2.236-4.995,4.995-4.995h124.878      c2.759,0,4.995,2.236,4.995,4.995S430.466,385.874,427.707,385.874z"/></g><g><path d="M427.707,448.313H302.829c-2.759,0-4.995-2.236-4.995-4.995s2.236-4.995,4.995-4.995h124.878      c2.759,0,4.995,2.236,4.995,4.995S430.466,448.313,427.707,448.313z"/></g><g><path d="M193.561,229.777c-2.759,0-4.995-2.237-4.995-4.995v-31.22c0-2.759,2.237-4.995,4.995-4.995      c2.759,0,4.995,2.237,4.995,4.995v31.22C198.556,227.54,196.32,229.777,193.561,229.777z"/></g><g><path d="M318.439,151.728c-2.759,0-4.995-2.237-4.995-4.995v-31.22c0-2.759,2.236-4.995,4.995-4.995      s4.995,2.237,4.995,4.995v31.22C323.434,149.491,321.198,151.728,318.439,151.728z"/></g></g><g><path d="M178.537,122.01c-4.383,0-8.485-1.18-12.266-3.538c-15.959-9.953-19.42-38.012-19.56-39.201     c-0.321-2.74,1.639-5.221,4.379-5.543c2.733-0.329,5.219,1.636,5.542,4.375l0,0c0.809,6.791,5.07,25.76,14.936,31.9     c3.81,2.371,8.19,2.632,13.394,0.799c2.6-0.92,5.454,0.448,6.371,3.051c0.917,2.602-0.449,5.455-3.051,6.371     C184.903,121.415,181.649,122.01,178.537,122.01z"/></g><g><path d="M360.067,271.373c-1.97,0-3.836-1.172-4.626-3.107c-3.406-8.32-14.768-30.693-26.293-34.29     c-2.809-0.876-5.343-0.483-7.983,1.235c-2.313,1.506-5.406,0.852-6.912-1.46c-1.505-2.312-0.851-5.406,1.46-6.912     c5.112-3.328,10.789-4.158,16.421-2.397c18.053,5.643,31.125,36.542,32.556,40.046c1.043,2.554-0.182,5.47-2.736,6.513     C361.336,271.254,360.696,271.373,360.067,271.373z"/></g></g></g><text x="0" y="527" fill="#000000" font-size="5px" font-weight="bold" font-family="'Helvetica Neue', Helvetica, Arial-Unicode, Arial, Sans-serif">Created by Room design</text><text x="0" y="532" fill="#000000" font-size="5px" font-weight="bold" font-family="'Helvetica Neue', Helvetica, Arial-Unicode, Arial, Sans-serif">from the Noun Project</text></svg>