<svg xmlns="http://www.w3.org/2000/svg" xmlns:xlink="http://www.w3.org/1999/xlink" version="1.1" x="0px" y="0px" viewBox="0 0 100 125" style="enable-background:new 0 0 100 100;" xml:space="preserve"><path d="M84.4,3.5H15c-0.8,0-1.5,0.7-1.5,1.5v90c0,0.8,0.7,1.5,1.5,1.5h69.4c0.8,0,1.5-0.7,1.5-1.5V5C85.9,4.2,85.2,3.5,84.4,3.5z   M82.9,93.5H16.5v-87h66.4V93.5z M24.6,74.3c0-0.8,0.7-1.5,1.5-1.5h46.5c0.8,0,1.5,0.7,1.5,1.5s-0.7,1.5-1.5,1.5H26.1  C25.2,75.8,24.6,75.1,24.6,74.3z M24.6,80.5c0-0.8,0.7-1.5,1.5-1.5h46.5c0.8,0,1.5,0.7,1.5,1.5S73.4,82,72.6,82H26.1  C25.2,82,24.6,81.3,24.6,80.5z M24.6,86.9c0-0.8,0.7-1.5,1.5-1.5h36.7c0.8,0,1.5,0.7,1.5,1.5s-0.7,1.5-1.5,1.5H26.1  C25.2,88.4,24.6,87.7,24.6,86.9z M55.2,61.2v-3.1c0.8-0.5,1.5-1,2.2-1.7c2-2,3.1-4.6,3.1-7.4c0-5.7-4.7-10.4-10.5-10.4  c-2.8,0-5.4,1.1-7.4,3.1c-2,2-3.1,4.6-3.1,7.4c0,3.7,2,7.2,5.2,9.1v3.1c0,0.8,0.7,1.5,1.5,1.5h7.4C54.5,62.7,55.2,62,55.2,61.2z   M52.2,57.2v2.5h-4.4v-2.5c0-0.6-0.3-1.1-0.9-1.4c-2.6-1.2-4.4-3.9-4.4-6.8c0-2,0.8-3.9,2.2-5.3c1.4-1.4,3.3-2.2,5.3-2.2  c4.1,0,7.4,3.3,7.4,7.4c0,2-0.8,3.9-2.2,5.3c-0.6,0.6-1.3,1.1-2.2,1.5C52.5,56.1,52.2,56.6,52.2,57.2z M62.2,49.1  c0-0.8,0.7-1.5,1.5-1.5h1.8c0.8,0,1.5,0.7,1.5,1.5s-0.7,1.5-1.5,1.5h-1.8C62.9,50.6,62.2,49.9,62.2,49.1z M37.7,49.1  c0,0.8-0.7,1.5-1.5,1.5h-1.8c-0.8,0-1.5-0.7-1.5-1.5s0.7-1.5,1.5-1.5h1.8C37,47.6,37.7,48.2,37.7,49.1z M60.7,40.4  c-0.3,0.3-0.7,0.4-1.1,0.4s-0.8-0.1-1.1-0.4c-0.6-0.6-0.6-1.5,0-2.1l1.3-1.3c0.6-0.6,1.5-0.6,2.1,0s0.6,1.5,0,2.1L60.7,40.4z   M37.9,39.2c-0.6-0.6-0.6-1.5,0-2.1s1.5-0.6,2.1,0l1.3,1.3c0.6,0.6,0.6,1.5,0,2.1c-0.3,0.3-0.7,0.4-1.1,0.4s-0.8-0.1-1.1-0.4  L37.9,39.2z M50,36.8c-0.8,0-1.5-0.7-1.5-1.5v-1.8c0-0.8,0.7-1.5,1.5-1.5s1.5,0.7,1.5,1.5v1.8C51.5,36.2,50.8,36.8,50,36.8z   M51.5,49.8v1.8c0,0.8-0.7,1.5-1.5,1.5s-1.5-0.7-1.5-1.5v-1.8c0-0.8,0.7-1.5,1.5-1.5S51.5,49,51.5,49.8z M50.8,64.7  c0.8,0,1.5,0.7,1.5,1.5s-0.7,1.5-1.5,1.5h-1.8c-0.8,0-1.5-0.7-1.5-1.5s0.7-1.5,1.5-1.5H50.8z M26.1,26.5h46.5c0.8,0,1.5-0.7,1.5-1.5  V13.5c0-0.8-0.7-1.5-1.5-1.5H26.1c-0.8,0-1.5,0.7-1.5,1.5V25C24.6,25.9,25.2,26.5,26.1,26.5z M27.6,15h43.5v8.5H27.6V15z"/><text x="0" y="115" fill="#000000" font-size="5px" font-weight="bold" font-family="'Helvetica Neue', Helvetica, Arial-Unicode, Arial, Sans-serif">Created by eric steltenpohl</text><text x="0" y="120" fill="#000000" font-size="5px" font-weight="bold" font-family="'Helvetica Neue', Helvetica, Arial-Unicode, Arial, Sans-serif">from the Noun Project</text></svg>