<svg xmlns="http://www.w3.org/2000/svg" xmlns:xlink="http://www.w3.org/1999/xlink" version="1.1" x="0px" y="0px" viewBox="0 0 512 640" style="enable-background:new 0 0 512 512;" xml:space="preserve"><style type="text/css">
	.st0{display:none;}
	.st1{display:inline;}
</style><g class="st0"><path class="st1" d="M180,63.8L211.7,24h183.7v160.7l30.2-52.2l51.7,29.8l-81.9,141.8V488c-120.2,0-240.5,0-360.7,0V63.8H180z    M381.4,63.8V38h-163l-20.6,25.8H381.4z M102.3,196.5c5-6.2,11.8-10.7,19.5-13c-18.1-20.5-3.5-53,23.8-53c27.4,0,42,32.5,23.9,53   c7.7,2.3,14.5,6.9,19.5,13l1.6,2v37.4h11.8V119.8H88.9v116.2h11.8v-37.4L102.3,196.5z M122,198.3c-2.8,1.3-5.2,3.1-7.3,5.2v32.3   h61.9v-32.3c-2.1-2.2-4.6-3.9-7.3-5.2c-3.3-1.6-7-2.5-10.9-2.5H133C129,195.9,125.3,196.7,122,198.3L122,198.3z M145.6,144.5   c-15.8,0-23.8,19.3-12.6,30.5c11.2,11.2,30.5,3.2,30.5-12.6C163.5,152.5,155.5,144.5,145.6,144.5L145.6,144.5z M81.9,105.7h134.6   v144.2H74.9V105.7H81.9z M291.6,109.5h27.3l1.1,16.3c6.7,2.3,12.8,5.8,18.1,10.4l14.6-7.2l16.9,29.3l-13.5,9.1   c1.3,6.9,1.3,13.9,0,20.9l13.5,9.1l-16.9,29.3l-14.7-7.2c-5.3,4.6-11.4,8.1-18.1,10.4l-1.1,16.3h-33.8l-1.1-16.3   c-6.7-2.3-12.8-5.8-18.1-10.4l-14.7,7.2l-16.9-29.3l13.6-9.1c-1.4-6.9-1.4-13.9,0-20.9l-13.6-9.1l16.9-29.3l14.7,7.2   c5.3-4.6,11.4-8.1,18.1-10.4l1.1-16.3H291.6z M305.8,123.5h-7.7l-0.9,13.2c-6.1,1.5-10.1,2.2-15.8,5.5c-5.8,3.3-8.4,6.4-12.8,10.9   l-11.9-5.9L253,154l11,7.3c-1.8,6-3.1,9.8-3.1,16.5s1.3,10.5,3.1,16.5l-11,7.4l3.9,6.7l11.9-5.8c4.3,4.5,7,7.6,12.8,10.9   c5.7,3.3,9.7,4.1,15.8,5.5l0.9,13.2h7.7l0.9-13.2c6.1-1.5,10.1-2.2,15.8-5.5c5.8-3.3,8.4-6.4,12.8-10.9l11.9,5.8l3.8-6.7l-11-7.4   c1.8-6,3.1-9.8,3.1-16.5s-1.3-10.5-3.1-16.5l11-7.3l-3.9-6.7l-11.9,5.9c-4.3-4.5-7-7.6-12.8-10.9c-5.7-3.3-9.7-4.1-15.8-5.5   L305.8,123.5z M302,151.3c23.6,0,35.4,28.6,18.7,45.3c-16.7,16.7-45.3,4.8-45.3-18.8C275.5,163.2,287.4,151.3,302,151.3L302,151.3z    M310.9,169c-7.9-7.9-21.4-2.3-21.4,8.9s13.5,16.7,21.4,8.8C315.8,181.8,315.8,173.9,310.9,169L310.9,169z M240,388.6h7v14h-71.7   v-14H240z M228,416.4h7v14h-59.7v-14H228z M261.5,298.1h7v14h-93.2v-14H261.5z M249.5,325.9h7v14h-81.2v-14H249.5z M333.4,292.2   l48-83.2V77.8H48.7V474h332.8V328.4l-3.2,5.5v0c-18.7,32.5-37.5,64.9-56.2,97.4l-53,29.4l1.4-59.4L333.4,292.2z M345.6,299   l27.6,15.9l85.1-147.4l-27.5-15.9L345.6,299z M366.2,327l-27.6-15.9l-54.4,94.2l-0.7,31.5l28.3-15.7L366.2,327z M131.7,398.8H88.9   v27.4h42.8V398.8z M81.9,384.8h63.8v55.4H74.9v-55.4H81.9z M131.7,306.3H88.9v27.4h42.8V306.3z M81.9,292.3h63.8v55.4H74.9v-55.4   H81.9z"/></g><g><path d="M74.2,308.9v-138c0-12.7,10.4-23.1,23.1-23.1h37.6c12.7,0,23.1,10.4,23.1,23.1v0.7h31.9c6-3.7,12.5-8.1,19.2-12.6   c19.3-13.1,40-27.2,54.3-27.2l24.8-0.1V18.8h89.1v156.3h17.9c22,0,30.9,22.3,22.8,38.4c12.7,2.6,19.8,13.7,19.8,25.3h0   c0,12.3-7.9,23.7-21.5,25.6c3.5,6.7,3.7,15,0.3,21.9c-2.9,5.9-8.5,11-17,13.7c2.8,5.9,2.3,13-0.6,19c-3.6,7.4-11.1,14.1-21.7,16.6   v55.9l-39.8,101.7l-49.3-101.5v-53.5c-44.7-8.1-52-9.6-96.9-31.7H158v2.4c0,12.7-10.4,23.1-23.1,23.1H97.3   C84.6,332,74.2,321.6,74.2,308.9L74.2,308.9z M158,185.6v106.9h36.4l1.5,0.7c45.4,22.4,51.5,23.5,97.1,31.7l7.1,1.3l72-3.9   c7.2-1.1,12.1-5.1,14.2-9.5c2.8-5.8,0.3-10.2-7-10.4H308v-14h70.3l9.1-0.5c24.2-1.3,21-23.4,4.8-23.4c-26.8,0-53.7,0-80.5,0v-13.9   l100.3,0c7.7,0,11.8-5.6,11.8-11.9h0c0-6.5-4-11.9-11.7-11.9h-16.9v-0.1l-80.9,0.1v-13.9l78-0.1h4.3c4.9-0.4,8-3.2,9.4-6.7   c2.8-7-0.4-17.1-10.8-17.1h-107v-43.4l-24.8,0.1c-10,0.1-28.9,12.9-46.5,24.8c-3.7,2.5-22,14.7-23.2,15.1H158z M88.2,170.9v138   c0,5,4.1,9.1,9.1,9.1h37.6c5,0,9.1-4.1,9.1-9.1v-138c0-5-4.1-9.1-9.1-9.1H97.3C92.3,161.8,88.2,165.9,88.2,170.9L88.2,170.9z    M302.1,131.6V175l61.1,0.1V32.8h-61.1V131.6z M363.2,336.8c-20.4,1.1-40.7,2.2-61.1,3.3v48.5l33.9,69.8l27.2-69.5V336.8z"/></g><text x="0" y="527" fill="#000000" font-size="5px" font-weight="bold" font-family="'Helvetica Neue', Helvetica, Arial-Unicode, Arial, Sans-serif">Created by WBcreative</text><text x="0" y="532" fill="#000000" font-size="5px" font-weight="bold" font-family="'Helvetica Neue', Helvetica, Arial-Unicode, Arial, Sans-serif">from the Noun Project</text></svg>