<svg xmlns="http://www.w3.org/2000/svg" xmlns:xlink="http://www.w3.org/1999/xlink" version="1.1" x="0px" y="0px" viewBox="0 0 100 125" style="enable-background:new 0 0 100 100;" xml:space="preserve"><path d="M34.7650452,85.2600098h17.9638672c1.8496094,0,3.3544922-1.5043945,3.3544922-3.3540039V62.614502  c0-1.8496094-1.5048828-3.3544922-3.3544922-3.3544922H34.7650452c-1.8496094,0-3.3544922,1.5048828-3.3544922,3.3544922v19.2915039  C31.410553,83.7556152,32.9154358,85.2600098,34.7650452,85.2600098z M52.7289124,83.2600098H34.7650452  c-0.7470703,0-1.3544922-0.6074219-1.3544922-1.3540039v-3.1459961h20.6728516v3.1459961  C54.0834045,82.6525879,53.4759827,83.2600098,52.7289124,83.2600098z M54.0834045,72.7600098v5H33.410553v-5H54.0834045z   M33.410553,71.7600098v-4.8061523h20.6728516v4.8061523H33.410553z M34.7650452,61.2600098h17.9638672  c0.7470703,0,1.3544922,0.6074219,1.3544922,1.3544922v3.3393555H33.410553V62.614502  C33.410553,61.8674316,34.0179749,61.2600098,34.7650452,61.2600098z"/><path d="M64.9701233,60.7141113l5.5703125,2.5732422l-2.0302734,7.9643555  c-0.0576172,0.2255859,0.0478516,0.4609375,0.2548828,0.5678711c0.0732422,0.0375977,0.1513672,0.0556641,0.2294922,0.0556641  c0.1425781,0,0.2832031-0.0615234,0.3808594-0.1767578l9.1552734-10.7910156  c0.1025391-0.1201172,0.1416016-0.28125,0.1064453-0.4350586s-0.140625-0.2817383-0.2851562-0.3457031l-4.5166016-1.9941406  l5.6679688-8.7148438c0.1005859-0.1538086,0.1083984-0.3496094,0.0205078-0.5107422s-0.2558594-0.2617188-0.4394531-0.2617188  H67.1078186c-0.2431641,0-0.4511719,0.1748047-0.4921875,0.4145508l-1.9277344,11.1147461  C64.6488342,60.3977051,64.7650452,60.6188965,64.9701233,60.7141113z"/><path d="M20.1615295,58.5266113h3.0175781c0.5527344,0,1-0.4477539,1-1s-0.4472656-1-1-1h-3.0175781  c-4.7236319,0-8.5673819-3.8432617-8.5673819-8.5668945s3.84375-8.5664062,8.5673819-8.5664062H32.160553v13.0644531  c0,0.5522461,0.4472656,1,1,1s1-0.4477539,1-1V39.3933105h4.5302734c0.5527344,0,1-0.4477539,1-1s-0.4472656-1-1-1H34.160553  v-8.5405884c2.3154297-0.4656982,4.0654297-2.5131836,4.0654297-4.9633179v-4.0644531c0-0.5522461-0.4472656-1-1-1h-0.7011719  v-2.815918c0-0.5522461-0.4472656-1-1-1s-1,0.4477539-1,1v2.815918h-2.7275391v-2.815918c0-0.5522461-0.4472656-1-1-1  s-1,0.4477539-1,1v2.815918h-0.7011719c-0.5527344,0-1,0.4477539-1,1v4.0644531  c0,2.4500732,1.7492676,4.4976196,4.0644531,4.9633179v8.5405884H20.1615295  c-5.8271475,0-10.5673819,4.7402344-10.5673819,10.5664062C9.5941477,53.786377,14.3343821,58.5266113,20.1615295,58.5266113z   M30.0960999,23.8894043v-3.0644531h6.1298828v3.0644531c0,1.6899414-1.375,3.0644531-3.0654297,3.0644531  C31.4710999,26.9538574,30.0960999,25.5793457,30.0960999,23.8894043z"/><path d="M47.129303,39.3933105c0.5527344,0,1-0.4477539,1-1s-0.4472656-1-1-1h-3.8105469c-0.5527344,0-1,0.4477539-1,1  s0.4472656,1,1,1H47.129303z"/><path d="M56.9994202,23.8459473h30.265625c0.9794922,0,1.8740234-0.4526367,2.4541016-1.2412109  c0.5810547-0.7895508,0.7460938-1.7788086,0.4541016-2.7148438L86.4525452,7.9758301  c-0.3994141-1.2792969-1.5683594-2.1391602-2.9091797-2.1391602H60.7201233c-1.3388672,0-2.5078125,0.859375-2.9082031,2.1391602  L54.091217,19.8898926c-0.2929688,0.9350586-0.1279297,1.9243164,0.453125,2.7133789  C55.1244202,23.3933105,56.019928,23.8459473,56.9994202,23.8459473z M73.1791077,14.3415527V7.8366699h5.0598145  l0.9838867,6.5048828H73.1791077z M79.3739319,15.3415527l0.9837646,6.5043945h-7.1785889v-6.5043945H79.3739319z   M71.1791077,14.3415527h-6.0430908l0.9841309-6.5048828h5.05896V14.3415527z M71.1791077,15.3415527v6.5043945h-7.1784668  l0.9841309-6.5043945H71.1791077z M88.1078186,21.4191895c-0.1992188,0.2714844-0.5058594,0.4267578-0.8427734,0.4267578h-5.8964844  l-0.9836426-6.5043945h6.2724609l1.6066895,5.1445312C88.3646545,20.8078613,88.3080139,21.1481934,88.1078186,21.4191895z   M84.5433655,8.5720215l1.8017578,5.7695312H80.233551l-0.9836426-6.5048828h4.293457  C84.004303,7.8366699,84.4056702,8.1320801,84.5433655,8.5720215z M59.7201233,8.5725098  c0.1376953-0.4404297,0.5400391-0.7358398,1-0.7358398h4.3891602l-0.9841309,6.5048828h-6.2067871L59.7201233,8.5725098z   M55.9994202,20.486084l1.6066895-5.1445312h6.3676758l-0.9841309,6.5043945h-5.9902344  c-0.3369141,0-0.6445312-0.1557617-0.84375-0.4272461C55.9564514,21.1477051,55.8998108,20.8078613,55.9994202,20.486084z"/><path d="M54.950592,28.0212402h15.6835938v5.3271484h-3.8662109c-0.5527344,0-1,0.4477539-1,1s0.4472656,1,1,1h9.7324219  c0.5527344,0,1-0.4477539,1-1s-0.4472656-1-1-1h-3.8662109v-5.3271484h16.6796875c0.5527344,0,1-0.4477539,1-1s-0.4472656-1-1-1  H54.950592c-0.5527344,0-1,0.4477539-1,1S54.3978577,28.0212402,54.950592,28.0212402z"/><path d="M30.6752014,89.5183105h4.4470215l0.6447754,2.996582c0.2070312,0.9550781,1.0654297,1.6484375,2.0419922,1.6484375  h5.1992188c0.9775391,0,1.8359375-0.6933594,2.0429688-1.6494141l0.6447754-2.9956055h23.2041016l0.6452637,2.9946289  c0.2041016,0.9560547,1.0634766,1.6503906,2.0419922,1.6503906h5.1992188c0.9785156,0,1.8378906-0.6943359,2.0419922-1.6494141  l0.6452637-2.9956055h4.4465332c2.3837891,0,4.3222656-1.9389648,4.3222656-4.3222656V39.6887207  c0-1.5551758-1.265625-2.8208008-2.8212891-2.8208008H57.4935608c-1.5556641,0-2.8212891,1.265625-2.8212891,2.8208008v15.3134766  H30.6752014c-2.3837891,0-4.3222656,1.9389648-4.3222656,4.3222656v3.1967773l-2.4775391,0.2797852  c-1.1123047,0.1254883-1.9521484,1.0644531-1.9521484,2.1845703v14.5493164c0,1.1201172,0.8398438,2.059082,1.9521484,2.1845703  l2.4775391,0.2797852v3.1967773C26.3529358,87.5793457,28.2914124,89.5183105,30.6752014,89.5183105z M43.0960999,92.092041  c-0.0087891,0.0419922-0.0449219,0.0712891-0.0878906,0.0712891h-5.1992188c-0.0419922,0-0.078125-0.0297852-0.0869141-0.0703125  l-0.5537109-2.574707h6.4814453L43.0960999,92.092041z M76.8734436,92.0939941  c-0.0087891,0.0410156-0.0449219,0.0693359-0.0869141,0.0693359h-5.1992188c-0.0419922,0-0.078125-0.0283203-0.0869141-0.0703125  l-0.5546875-2.574707h6.4824219L76.8734436,92.0939941z M24.1000061,79.7321777  c-0.1005859-0.0112305-0.1767578-0.0961914-0.1767578-0.1972656V64.9855957c0-0.1010742,0.0761719-0.1860352,0.1767578-0.1972656  l4.2529297-0.4799805v-4.9838867c0-1.2802734,1.0419922-2.3222656,2.3222656-2.3222656h25.9970703V39.6887207  c0-0.4526367,0.3681641-0.8208008,0.8212891-0.8208008h27.9277344c0.453125,0,0.8212891,0.3681641,0.8212891,0.8208008v45.5073242  c0,1.2802734-1.0419922,2.3222656-2.3222656,2.3222656h-4.015625H68.4691467H46.1263733H34.691803h-4.0166016  c-1.2802734,0-2.3222656-1.0419922-2.3222656-2.3222656v-4.9838867L24.1000061,79.7321777z"/><text x="0" y="115" fill="#000000" font-size="5px" font-weight="bold" font-family="'Helvetica Neue', Helvetica, Arial-Unicode, Arial, Sans-serif">Created by Nook Fulloption</text><text x="0" y="120" fill="#000000" font-size="5px" font-weight="bold" font-family="'Helvetica Neue', Helvetica, Arial-Unicode, Arial, Sans-serif">from the Noun Project</text></svg>