<svg xmlns="http://www.w3.org/2000/svg" xmlns:xlink="http://www.w3.org/1999/xlink" version="1.1" x="0px" y="0px" viewBox="0 0 512 640" style="enable-background:new 0 0 512 512;" xml:space="preserve"><style type="text/css">
	.st0{fill-rule:evenodd;clip-rule:evenodd;}
</style><path class="st0" d="M108.205,323.898c3.546,0,7.02,0.309,10.398,0.898l-10.398-12.875l-10.398,12.875  C101.185,324.207,104.659,323.898,108.205,323.898L108.205,323.898z M148.028,339.006c25.864,22.937,27.097,62.919,2.631,87.385  c-23.448,23.448-61.46,23.447-84.908,0c-23.448-23.448-23.448-61.459,0-84.907c10.059-10.059,20.459-24.553,29.603-35.876  c-30.619-8.277-52.762-36.312-52.762-68.807v-50.052c0-3.866,3.134-7,7-7h31.999c3.866,0,7,3.134,7,7v50.052  c0,21.911,26.878,33.994,43.063,17.808c4.59-4.59,7.448-10.901,7.448-17.808v-50.052c0-3.866,3.134-7,7-7h87.397v-39.817  c-16.936-13.425-18.504-38.635-3.131-54.008c14.157-14.157,37.106-14.157,51.263,0c15.373,15.373,13.806,40.583-3.13,54.008v39.817  h87.396c3.866,0,7,3.134,7,7v50.052c0,21.911,26.878,33.994,43.063,17.808c4.59-4.59,7.448-10.901,7.448-17.808v-50.052  c0-3.866,3.134-7,7-7h32c3.866,0,7,3.134,7,7v50.052c0,34.303-24.655,63.519-57.681,69.949c8.937,11.066,19.042,25.142,28.88,34.981  c23.448,23.448,23.448,61.46,0,84.908c-23.448,23.448-61.46,23.448-84.907,0c-23.448-23.448-23.448-61.46,0-84.908  c9.838-9.838,19.944-23.916,28.88-34.981c-33.027-6.431-57.681-35.646-57.681-69.949v-12.05h-48.397v195.355h11.154  c11.064,0,20.089,9.026,20.089,20.09c0,4.732,0.408,10.119-0.947,14.357h11.171c11.063,0,20.09,9.026,20.09,20.09v8.267  c0,11.064-9.027,20.09-20.09,20.09H198.027c-11.064,0-20.089-9.027-20.089-20.09v-8.267c0-11.063,9.026-20.09,20.089-20.09h11.171  c-1.354-4.236-0.947-9.627-0.947-14.357c0-11.063,9.026-20.09,20.09-20.09h5.159V224.752h-48.397v12.05  c0,36.057-27.205,66.348-62.505,70.716L148.028,339.006L148.028,339.006z M140.761,351.382c-17.979-17.979-47.133-17.979-65.112,0  c-17.979,17.979-17.979,47.132,0,65.111c17.979,17.979,47.132,17.979,65.111,0C158.74,398.515,158.74,369.361,140.761,351.382  L140.761,351.382z M96.564,412.922h4.178v3.805c0,3.866,3.134,7,7,7s7-3.134,7-7v-4.072c14.169-2.475,20.002-20.053,9.617-30.436  c-6.011-6.011-12.022-5.279-19.597-5.279c-5.244,0-5.245-7.984,0-7.984h15.084c3.866,0,7-3.134,7-7c0-3.866-3.134-7-7-7h-5.104  v-3.805c0-3.866-3.134-7-7-7s-7,3.134-7,7v4.259c-13.614,3.128-18.776,20.166-8.692,30.249c6.011,6.011,12.021,5.28,19.597,5.28  c5.245,0,5.245,7.984,0,7.984H96.564c-3.866,0-7,3.134-7,7S92.698,412.922,96.564,412.922L96.564,412.922z M247.499,420.106h17.003  V137.554c0-7.806,6.863-7.765,11.003-15.233c8.07-14.562-2.387-33.015-19.504-33.015c-17.117,0-27.574,18.453-19.504,33.015  c1.748,3.153,4.218,5.832,7.178,7.802c2.27,1.157,3.825,3.517,3.825,6.24V420.106L247.499,420.106z M289.656,454.553  c3.335,0,6.09-2.754,6.09-6.09v-8.267c0-3.336-2.754-6.09-6.09-6.09H228.34c-3.336,0-6.09,2.754-6.09,6.09v8.267  c0,3.335,2.755,6.09,6.09,6.09H289.656L289.656,454.553z M319.969,468.553c-40.647,0-81.295,0-121.942,0  c-3.336,0-6.09,2.754-6.09,6.09v8.267c0,3.335,2.754,6.09,6.09,6.09h121.942c3.336,0,6.09-2.754,6.09-6.09v-8.267  C326.059,471.307,323.304,468.553,319.969,468.553L319.969,468.553z M117.202,81.65c-26.856,0-48.803,21.947-48.803,48.803v31.671  c0,3.866,3.134,7,7,7h83.607c3.866,0,7-3.134,7-7v-31.671C166.006,103.597,144.058,81.65,117.202,81.65L117.202,81.65z   M117.203,95.649c-19.129,0-34.804,15.676-34.804,34.803v24.671h69.607v-24.671C152.006,111.324,136.33,95.649,117.203,95.649  L117.203,95.649z M117.203,9C98.646,9,83.601,24.046,83.601,42.602c0,18.556,15.045,33.602,33.602,33.602  c18.556,0,33.602-15.046,33.602-33.602C150.804,24.046,135.758,9,117.203,9L117.203,9z M131.064,28.741  c7.654,7.654,7.654,20.069,0,27.723C118.75,68.778,97.6,60.016,97.6,42.602C97.6,25.188,118.75,16.427,131.064,28.741  L131.064,28.741z M408.551,325.044l-10.398-12.875l-10.398,12.875C394.614,323.846,401.692,323.846,408.551,325.044L408.551,325.044  z M396.195,95.649c-19.128,0-34.804,15.675-34.804,34.803v24.671h69.607v-24.671C430.999,111.324,415.323,95.649,396.195,95.649  L396.195,95.649z M396.195,81.65c-26.855,0-48.803,21.947-48.803,48.803v31.671c0,3.866,3.134,7,7,7h83.607c3.866,0,7-3.134,7-7  v-31.671C444.998,103.597,423.051,81.65,396.195,81.65L396.195,81.65z M396.195,23c-17.415,0-26.175,21.15-13.861,33.464  s33.464,3.553,33.464-13.862C415.797,31.774,407.022,23,396.195,23L396.195,23z M372.435,18.843  c-13.123,13.123-13.123,34.396,0,47.519c13.123,13.123,34.396,13.123,47.519,0c13.123-13.123,13.123-34.396,0-47.519  C406.831,5.72,385.558,5.719,372.435,18.843L372.435,18.843z M430.709,351.63c-17.979-17.979-47.133-17.979-65.111,0  c-17.979,17.979-17.979,47.132,0,65.111c17.979,17.979,47.132,17.979,65.111,0C448.688,398.763,448.687,369.609,430.709,351.63  L430.709,351.63z M386.512,413.169h4.179v3.805c0,3.866,3.134,7,7,7c3.866,0,7-3.134,7-7v-4.072  c14.163-2.473,20.005-20.048,9.617-30.436c-6.01-6.011-12.023-5.28-19.597-5.28c-5.245,0-5.245-7.984,0-7.984h15.083  c3.866,0,7-3.134,7-7s-3.134-7-7-7h-5.103v-3.805c0-3.866-3.134-7-7-7c-3.866,0-7,3.134-7,7v4.26  c-13.61,3.126-18.779,20.163-8.692,30.249c6.011,6.011,12.021,5.28,19.598,5.28c5.245,0,5.244,7.984,0,7.984h-15.084  c-3.866,0-7,3.134-7,7C379.512,410.035,382.646,413.169,386.512,413.169L386.512,413.169z M233.499,193.749h-80.397v43.052  c0,21.541-17.714,39.255-39.255,39.255c-21.541,0-39.255-17.714-39.255-39.255v-43.052h-18v43.052  c0,31.477,25.778,57.255,57.255,57.255c31.477,0,57.255-25.779,57.255-57.255v-19.049c0-3.866,3.134-7,7-7h55.397V193.749  L233.499,193.749z M278.501,210.752h55.397c3.866,0,7,3.134,7,7v19.049c0,31.476,25.778,57.255,57.255,57.255  c31.477,0,57.255-25.779,57.255-57.255v-43.052h-18v43.052c0,21.541-17.714,39.255-39.255,39.255  c-21.541,0-39.255-17.714-39.255-39.255v-43.052h-80.396V210.752z"/><text x="0" y="527" fill="#000000" font-size="5px" font-weight="bold" font-family="'Helvetica Neue', Helvetica, Arial-Unicode, Arial, Sans-serif">Created by El_afrinia.c</text><text x="0" y="532" fill="#000000" font-size="5px" font-weight="bold" font-family="'Helvetica Neue', Helvetica, Arial-Unicode, Arial, Sans-serif">from the Noun Project</text></svg>