<svg xmlns="http://www.w3.org/2000/svg" data-name="Layer 1" viewBox="0 0 98 122.5" x="0px" y="0px"><title>Critical Thinking</title><path d="M88.674,21.744l-7.7-4.239-.907-8.744A1.336,1.336,0,0,0,78,7.785L65.341,16.177a1.336,1.336,0,0,0-.59,1.252l.583,5.618-3.077,2.041c-4.169-4.21-10.046-6.747-17.083-7.358C27.635,16.2,17.958,22.674,14.724,38.091a17.68,17.68,0,0,0-.375,4.868c.024.716.049,1.456,0,2.368-.124.768-2.172,3.471-3.157,4.77-.712.938-1.326,1.75-1.683,2.321-2.247,3.6.4,5.275,1.823,6.176a6.7,6.7,0,0,1,1.274.94.409.409,0,0,1,.087.38,2.694,2.694,0,0,1-.062.264,2.858,2.858,0,0,0-.044,1.62,3.514,3.514,0,0,0,1.062,1.465h0a2.3,2.3,0,0,0-.146.241,3.2,3.2,0,0,0,0,2.523,4.453,4.453,0,0,0,.309.653,2.163,2.163,0,0,1,.322.923c.047.443.067.913.088,1.41.1,2.229.214,5,3.14,6.427a13.582,13.582,0,0,0,4.449,1.069c1.859.226,3.464.422,4.58,1.571,2.223,2.288,3.177,5.866,2.917,10.94l0,.058a1.326,1.326,0,0,0,.37.946l0,0a1.342,1.342,0,0,0,.47.317h0a1.362,1.362,0,0,0,.471.093H64.649a1.337,1.337,0,0,0,1.185-1.955C59.605,76.546,59.307,67.365,64.8,56.8c4.49-8.633,5.177-17.681,1.962-25.039l3.018-2,4.949,2.724a1.34,1.34,0,0,0,1.383-.057L88.768,24.03a1.337,1.337,0,0,0-.094-2.286ZM62.431,55.561c-5.646,10.86-5.668,20.323.052,32.2H32.023c.053-5.141-1.168-8.928-3.713-11.547-1.773-1.825-4.111-2.11-6.174-2.362a11.45,11.45,0,0,1-3.6-.818c-1.424-.694-1.546-1.96-1.639-4.138-.022-.518-.045-1.053-.1-1.58a4.761,4.761,0,0,0-.633-1.919,1.834,1.834,0,0,1-.137-.273,2.012,2.012,0,0,1-.115-.422l.043-.046a1.957,1.957,0,0,0,.506-2.088,3.6,3.6,0,0,0-.956-1.233c-.1-.092-.235-.227-.328-.328.011-.048.026-.1.038-.151a5.209,5.209,0,0,0,.119-.539,3.106,3.106,0,0,0-.764-2.6,8.688,8.688,0,0,0-1.807-1.383c-1.548-.982-1.827-1.159-.988-2.5.293-.469.9-1.273,1.547-2.124,2.18-2.876,3.614-4.861,3.693-6.206.062-1.056.033-1.9.009-2.636a15.262,15.262,0,0,1,.319-4.229c2.942-14.025,11.457-19.655,27.6-18.246,6.178.536,11.335,2.677,15.031,6.208L56.4,28.971a18.926,18.926,0,1,0,5.743,13.575,18.779,18.779,0,0,0-1.29-6.87l3.65-2.42C67.178,39.792,66.453,47.826,62.431,55.561Zm-22.1-14.519a4.013,4.013,0,0,0,3.143,4.739,3.737,3.737,0,0,0,.4.061c.024,0,.049,0,.073,0,.11.009.22.017.33.017h.021a4.042,4.042,0,0,0,.505-.037c.039-.005.077-.01.115-.017a3.929,3.929,0,0,0,1-.3l.113-.053a3.976,3.976,0,0,0,.462-.26l1.971-1.307a5.429,5.429,0,1,1-5.261-6.769,5.5,5.5,0,0,1,.813.06l-1.972,1.308A3.992,3.992,0,0,0,40.335,41.042Zm19.134,1.5a16.26,16.26,0,1,1-5.355-12.059l-2.381,1.579a13.516,13.516,0,1,0,4.453,6.7l2.381-1.579A16.15,16.15,0,0,1,59.469,42.546Zm-16.258,8.1a8.11,8.11,0,0,0,8.1-8.1c0-.176-.012-.352-.023-.528l2.538-1.684a10.843,10.843,0,1,1-4.449-6.707l-2.536,1.682a8.1,8.1,0,1,0-3.632,15.339Zm32.1-20.9-4.949-2.724a1.34,1.34,0,0,0-1.384.057L59.75,33.2h0L45.023,42.966a1.358,1.358,0,0,1-1.872-.379c-.023-.035-.039-.074-.059-.11a.906.906,0,0,1-.123-.318c-.005-.02-.014-.039-.018-.06a1.377,1.377,0,0,1,.2-1.013c.016-.023.037-.043.054-.066a1.443,1.443,0,0,1,.112-.136,1.339,1.339,0,0,1,.208-.17l14.726-9.765h0l9.23-6.121a1.337,1.337,0,0,0,.59-1.252l-.583-5.619,10.14-6.724.752,7.244a1.335,1.335,0,0,0,.685,1.033l6.38,3.512Z"/><text x="0" y="113" fill="#000000" font-size="5px" font-weight="bold" font-family="'Helvetica Neue', Helvetica, Arial-Unicode, Arial, Sans-serif">Created by Good Wife</text><text x="0" y="118" fill="#000000" font-size="5px" font-weight="bold" font-family="'Helvetica Neue', Helvetica, Arial-Unicode, Arial, Sans-serif">from the Noun Project</text></svg>