<svg xmlns="http://www.w3.org/2000/svg" data-name="Layer 1" viewBox="0 0 95 118.75" x="0px" y="0px"><defs><style>.cls-1{fill-rule:evenodd;}</style></defs><title>a</title><path class="cls-1" d="M89.507,46.728l-11.5,4.408a.294.294,0,0,1-.365-.163l-9-23.522a.307.307,0,0,1,.008-.227.271.271,0,0,1,.157-.138l11.5-4.408a.275.275,0,0,1,.1-.012.28.28,0,0,1,.267.176l9,23.522a.282.282,0,0,1-.163.364ZM70.3,51.35a8.386,8.386,0,0,1,3.436-2.713l-6.572-17.18c-.921.314-2.012.69-3.258,1.13a1.337,1.337,0,0,1-.859.025A66.4,66.4,0,0,0,48.53,30.138a2.853,2.853,0,0,0-2.061.641L37.33,38.038a1.168,1.168,0,0,0-.466.954l-.122,8.691a1.122,1.122,0,0,0,1.6.879,1.377,1.377,0,0,1,.39-.113c1.976-.327,3.383-2.286,3.959-5.539a1.379,1.379,0,0,1,.04-.175,6.093,6.093,0,0,1,.962-1.9,4.047,4.047,0,0,1,6-.515L65.958,55.657A19.842,19.842,0,0,0,70.3,51.35Zm-5.274,9.218a1.541,1.541,0,0,1-1.009.515,1.524,1.524,0,0,1-1.079-.352l-.916-.779,0,.013a1.191,1.191,0,0,0-.133-.126l-7.063-5.99A1.407,1.407,0,1,0,53.005,56l7.063,5.991a1.482,1.482,0,0,1-1.916,2.261l-.857-.729h0l-.007-.012-6.81-5.777a1.407,1.407,0,0,0-1.82,2.147l6.811,5.777a1.482,1.482,0,0,1-1.916,2.261l-.391-.339h0l-6.266-5.313a1.407,1.407,0,0,0-1.818,2.148l5.8,4.923.462.389a1.483,1.483,0,0,1,.171,2.085,1.438,1.438,0,0,1-1.008.515,1.453,1.453,0,0,1-1.08-.339l-4.548-3.856a4.345,4.345,0,0,0,.09-1.2,4.247,4.247,0,0,0-1.445-2.939,4.131,4.131,0,0,0-1.689-.917,4.292,4.292,0,0,0-1.275-4.458,4.2,4.2,0,0,0-1.949-.98,4.287,4.287,0,0,0-1.391-3.968l-.929,1.054.929-1.054a4.285,4.285,0,0,0-4.473-.741,4.287,4.287,0,0,0-7.2-1.231l-.96,1.093a18.109,18.109,0,0,1-1.758-2.851,1.342,1.342,0,0,0-.585-.591l-1.025-.565,6.675-17.456,5.175,2.449a1.423,1.423,0,0,0,.557.125c1.543.05,2.956.1,4.245.138L35.58,35.84a3.972,3.972,0,0,0-1.528,3.114l-.123,8.766c0,.038,0,.076,0,.126a3.939,3.939,0,0,0,5.444,3.341c1.6-.314,4.977-1.7,6.071-7.7a3.084,3.084,0,0,1,.493-.954,1.169,1.169,0,0,1,.879-.49,1.193,1.193,0,0,1,.947.326L64.8,58.42a1.562,1.562,0,0,1,.227,2.148ZM40.548,69.6l1.246-1.419a1.478,1.478,0,1,0-2.223-1.947l-1.249,1.407A1.483,1.483,0,1,0,40.548,69.6Zm-6.427-3.68a1.491,1.491,0,0,0,2.09-.126l1.246-1.419h0l1.374-1.57a1.476,1.476,0,0,0-.135-2.084,1.477,1.477,0,0,0-2.089.138l-2.622,2.976a1.477,1.477,0,0,0,.135,2.085Zm-4.337-3.805a1.481,1.481,0,0,0,2.091-.139L34.5,59h0l.994-1.13a1.491,1.491,0,0,0-.135-2.1,1.507,1.507,0,0,0-.976-.365,1.461,1.461,0,0,0-1.114.5l-3.616,4.106a1.494,1.494,0,0,0,.135,2.1ZM25.449,58.3a1.477,1.477,0,0,0,2.087-.138h0l2.336-2.65a1.5,1.5,0,0,0-.133-2.1,1.508,1.508,0,0,0-1.073-.365,1.553,1.553,0,0,0-1.018.5L25.314,56.21a1.441,1.441,0,0,0-.363,1.067,1.465,1.465,0,0,0,.5,1.018ZM17,51.136a.3.3,0,0,0,.364-.163l8.994-23.522a.3.3,0,0,0-.007-.227.276.276,0,0,0-.155-.138l-11.5-4.408a.308.308,0,0,0-.364.164l-9,23.522a.28.28,0,0,0,.162.364L17,51.136Zm75.3-5.777-9-23.522a3.1,3.1,0,0,0-4-1.784l-11.5,4.4a3.108,3.108,0,0,0-1.785,4.006l.142.365c-.8.276-1.724.6-2.764.966A68.753,68.753,0,0,0,48.72,27.338a5.622,5.622,0,0,0-4,1.243l-3.452,2.738Q38.31,31.225,34,31.093l-5.1-2.4.091-.239A3.109,3.109,0,0,0,27.2,24.449l-11.5-4.4a3.1,3.1,0,0,0-4,1.784l-9,23.522a3.1,3.1,0,0,0,1.786,3.994l11.5,4.408a3.105,3.105,0,0,0,3.995-1.783l.207-.553c.108.063.214.113.32.176a20.019,20.019,0,0,0,2.222,3.391,4.287,4.287,0,0,0,3.686,6.48H26.5A4.283,4.283,0,0,0,30.76,65.29h.074a4.26,4.26,0,0,0,1.429,2.738A4.2,4.2,0,0,0,35.09,69.1h.083a4.29,4.29,0,0,0,7.486,2.361l.766-.866L47.6,74.131a4.305,4.305,0,0,0,2.768,1.017,3.386,3.386,0,0,0,.36-.025,4.207,4.207,0,0,0,2.924-1.494,4.255,4.255,0,0,0,1.011-2.562,4.276,4.276,0,0,0,4.09-3.68,3.169,3.169,0,0,0,.352.025,4.294,4.294,0,0,0,4.231-3.554,4,4,0,0,0,.55.038c.119,0,.239-.013.361-.013a4.256,4.256,0,0,0,3.513-6.053,22.487,22.487,0,0,0,4.774-4.785c.009,0,.018-.012.026-.025a5.572,5.572,0,0,1,2.181-1.758l.27.716a3.107,3.107,0,0,0,4,1.783l11.5-4.408A3.094,3.094,0,0,0,92.3,45.359Z"/><text x="0" y="110" fill="#000000" font-size="5px" font-weight="bold" font-family="'Helvetica Neue', Helvetica, Arial-Unicode, Arial, Sans-serif">Created by lakonicon</text><text x="0" y="115" fill="#000000" font-size="5px" font-weight="bold" font-family="'Helvetica Neue', Helvetica, Arial-Unicode, Arial, Sans-serif">from the Noun Project</text></svg>