<svg xmlns="http://www.w3.org/2000/svg" xmlns:xlink="http://www.w3.org/1999/xlink" version="1.1" x="0px" y="0px" viewBox="0 0 72 90" style="enable-background:new 0 0 72 72;" xml:space="preserve"><style type="text/css">
	.st0{fill-rule:evenodd;clip-rule:evenodd;}
</style><path d="M36.05,1.11c12.73,0,23.02,10.3,23.02,23.02c0,1.85-0.19,3.79-0.68,5.54c-0.1,0.39-0.39,0.68-0.78,0.68h-4.08  c-0.58,0-0.97-0.58-0.78-1.17c0.49-1.65,0.78-3.3,0.78-5.05c0-9.62-7.87-17.49-17.49-17.49c-3.21,0-6.12,0.87-8.74,2.33  c3.89,0.39,6.41,1.46,8.06,2.62c2.53,1.94,3.4,4.76,2.91,7.09c1.46-2.04,4.47-2.53,6.8-2.33c1.94,0.29,4.18,0.97,6.61,2.72  c0.1,0.1,0.19,0.29,0.29,0.39c0.19,0.49-0.1,0.97-0.49,1.17c-1.55,0.58-4.37,3.4-6.12,4.57c-2.14,1.55-4.86,1.17-6.7-0.78  c-0.87,0.97-1.46,2.04-1.85,3.11c0,0.49,0,1.17,0,1.75c3.59,0.19,7.19,1.46,10.1,3.98h8.94c0.68,0,1.07,0.78,0.78,1.36  c-0.78,1.46-1.65,2.82-2.72,4.08c-0.19,0.19-0.39,0.29-0.68,0.29H18.76c-0.29,0-0.58-0.1-0.68-0.39c-1.07-1.26-1.94-2.62-2.72-4.08  c-0.19-0.49,0.19-1.17,0.78-1.26h9.03c2.82-2.53,6.41-3.79,10.01-3.98c-0.1-2.14-0.29-4.37-0.87-6.51  c-3.11,0.78-6.22-0.78-7.38-3.79c-0.78-2.04-1.46-5.93-2.43-7.97c-3.59,3.21-5.93,7.87-5.93,13.11c0,1.75,0.19,3.4,0.68,5.05  c0.29,0.58-0.19,1.17-0.78,1.17h-3.98c-0.39,0-0.78-0.29-0.87-0.68c-0.49-1.75-0.68-3.69-0.68-5.54  C12.93,11.4,23.23,1.11,36.05,1.11L36.05,1.11z M56.65,56.96l4.08-4.08c0.87-1.07-1.85-2.62-4.27-0.49L48.49,59  C51.21,58.42,54.12,57.74,56.65,56.96L56.65,56.96z M10.31,50.65v16.42h2.14c0.68,0,1.26-0.58,1.26-1.26V51.91  c0-0.68-0.58-1.26-1.26-1.26H10.31z M8.56,67.06V50.65H6.42c-0.68,0-1.26,0.58-1.26,1.26V65.8c0,0.68,0.58,1.26,1.26,1.26H8.56z   M6.42,49h6.02c1.36,0,2.53,0.97,2.82,2.33c4.66-0.97,8.35-3.98,13.6-3.69c4.76,0,9.52,0.29,14.28,0.49c2.33,0.1,2.43,3.4,1.65,5.15  c-0.78,1.55-2.62,3.01-5.83,3.3l-5.15,0.29c2.33,2.53,6.12,2.91,9.23,2.82c0.68,0,1.46-0.1,2.23-0.19l10.1-8.35  c4.18-3.69,8.94,0.19,6.51,2.82l-2.04,2.14c2.53-0.68,5.34-1.65,7.48,0.39c1.36,1.17,2.04,4.18-0.19,4.86l-26.52,8.84  c-7.38,2.82-17.49-3.5-25.35-3.69c-0.29,1.36-1.46,2.33-2.82,2.33H6.42c-1.65,0-3.01-1.36-3.01-3.01V51.91  C3.41,50.26,4.77,49,6.42,49L6.42,49z M15.36,52.98v11.85c7.77,0.19,17.68,6.22,24.67,3.79l26.52-8.84  c0.97-0.39,0.19-1.65-0.29-2.14c-1.75-1.55-4.95-0.19-6.9,0.29c-4.66,1.26-11.56,3.21-16.22,3.4c-4.37,0.1-9.13-0.68-11.56-4.76  c-0.29-0.49,0.1-1.17,0.68-1.17l6.61-0.49c2.53-0.19,3.89-1.26,4.47-2.43c0.29-0.58,0.58-2.72-0.29-2.72  c-4.66-0.29-9.42-0.49-14.18-0.49C24.01,49,20.02,52.1,15.36,52.98L15.36,52.98z M44.11,33.26c-4.95-3.11-11.27-3.11-16.13,0H44.11z   M54.41,35.01H17.6c0.49,0.78,0.97,1.55,1.55,2.23h33.71C53.44,36.56,53.93,35.78,54.41,35.01L54.41,35.01z M49.07,43.17  c-3.89,2.62-8.45,4.08-13.02,4.08c-4.66,0-9.23-1.46-13.11-4.08c-0.68-0.49-0.29-1.55,0.49-1.55h25.16  C49.46,41.61,49.75,42.78,49.07,43.17L49.07,43.17z M45.47,43.36H26.63c2.91,1.46,6.12,2.14,9.42,2.14  C39.26,45.5,42.46,44.82,45.47,43.36L45.47,43.36z M37.8,22.96c-0.29-0.78-0.39-1.55-0.29-2.33c-0.39,0.58-0.97,1.07-1.55,1.55  c0.19,0.78,0.39,1.55,0.49,2.33C36.83,23.93,37.31,23.45,37.8,22.96L37.8,22.96z M39.26,21.7c0.78-0.58,1.65-1.07,2.62-1.46  c1.07-0.39,1.65,1.26,0.58,1.65c-0.97,0.29-1.75,0.78-2.53,1.36c1.17,1.36,3.01,1.55,4.47,0.58c1.85-1.26,3.4-2.82,5.15-4.08  c-1.75-1.07-3.3-1.55-4.66-1.65c-2.43-0.29-4.08,0.49-4.66,1.07C39.35,19.95,39.06,20.82,39.26,21.7L39.26,21.7z M33.82,21.12  c-0.68-1.94-1.85-3.89-3.4-5.83c-0.78-0.87,0.58-1.94,1.26-1.17c1.75,2.14,2.91,4.18,3.69,6.31c2.04-1.65,1.85-5.25-1.07-7.38  c-1.55-1.17-4.08-2.23-8.06-2.43c0.97,2.43,1.36,5.25,2.23,7.77C29.35,20.63,31.58,21.7,33.82,21.12L33.82,21.12z M36.05,2.76  c-11.85,0-21.37,9.62-21.37,21.37c0,1.55,0.1,3.01,0.49,4.47h2.23c-0.39-1.46-0.58-2.91-0.58-4.47c0-10.59,8.65-19.14,19.23-19.14  s19.14,8.55,19.14,19.14c0,1.55-0.19,3.01-0.49,4.47h2.23c0.29-1.46,0.49-2.91,0.49-4.47C57.42,12.37,47.81,2.76,36.05,2.76  L36.05,2.76z"/><text x="0" y="87" fill="#000000" font-size="5px" font-weight="bold" font-family="'Helvetica Neue', Helvetica, Arial-Unicode, Arial, Sans-serif">Created by ND'studio</text><text x="0" y="92" fill="#000000" font-size="5px" font-weight="bold" font-family="'Helvetica Neue', Helvetica, Arial-Unicode, Arial, Sans-serif">from the Noun Project</text></svg>