<svg xmlns="http://www.w3.org/2000/svg" xmlns:xlink="http://www.w3.org/1999/xlink" version="1.1" x="0px" y="0px" viewBox="0 0 64 80" enable-background="new 0 0 64 64" xml:space="preserve"><g><g><path d="M51,37c-0.666,0-1.774,0.429-4.017,1.319C44.136,39.45,40.236,41,38,41c-0.229,0-0.446-0.094-0.914-0.307    c-1.336-0.607-3.537-1.607-10.211-1.688C26.349,36.93,24.149,35,20,35c-0.213,0-0.424-0.017-0.631-0.031    C19.25,34.96,19.126,34.951,19,34.944V34c0-0.553-0.448-1-1-1h-8c-0.552,0-1,0.447-1,1v16c0,0.553,0.448,1,1,1h8    c0.552,0,1-0.447,1-1v-0.273C21.34,50.953,26.12,53,32,53c8.208,0,20.055-7.834,20.635-8.228C53.03,44.448,55,42.741,55,41    C55,38.794,53.206,37,51,37z M17,49h-6V35h6v8.768V48V49z M51.402,43.196C50.616,43.712,39.37,51,32,51    c-6.378,0-11.5-2.686-13-3.561v-3.672v-6.816c0.076,0.005,0.144,0.007,0.224,0.013C19.479,36.982,19.737,37,20,37    c3.283,0,5,1.509,5,3c0,0.553,0.448,1,1,1c6.928,0,9.095,0.985,10.259,1.515C36.832,42.774,37.327,43,38,43    c2.619,0,6.558-1.564,9.722-2.822C49.015,39.665,50.623,39.025,51,39c1.103,0,2,0.897,2,2C53,41.562,52.085,42.621,51.402,43.196z    "/><path d="M22,29h28c0.553,0,1-0.448,1-1V12c0-0.552-0.447-1-1-1H22c-0.552,0-1,0.448-1,1v16C21,28.552,21.448,29,22,29z M23,13h26    v14H23V13z"/><path d="M36,15c-2.757,0-5,2.243-5,5s2.243,5,5,5s5-2.243,5-5S38.757,15,36,15z M36,23c-1.654,0-3-1.346-3-3s1.346-3,3-3    s3,1.346,3,3S37.654,23,36,23z"/><path d="M28,19h-2c-0.552,0-1,0.448-1,1s0.448,1,1,1h2c0.552,0,1-0.448,1-1S28.552,19,28,19z"/><path d="M46,19h-2c-0.553,0-1,0.448-1,1s0.447,1,1,1h2c0.553,0,1-0.448,1-1S46.553,19,46,19z"/></g></g><text x="0" y="79" fill="#000000" font-size="5px" font-weight="bold" font-family="'Helvetica Neue', Helvetica, Arial-Unicode, Arial, Sans-serif">Created by Ralf Schmitzer</text><text x="0" y="84" fill="#000000" font-size="5px" font-weight="bold" font-family="'Helvetica Neue', Helvetica, Arial-Unicode, Arial, Sans-serif">from the Noun Project</text></svg>