<svg xmlns="http://www.w3.org/2000/svg" xmlns:xlink="http://www.w3.org/1999/xlink" version="1.1" x="0px" y="0px" viewBox="0 0 72 90" style="enable-background:new 0 0 72 72;" xml:space="preserve"><path d="M41.86,39.61c0-2.23,0-4.55,0-6.78c0-1.65-3-1.65-3,0v6.78C38.86,41.35,41.86,41.35,41.86,39.61L41.86,39.61z M34.02,38.44  h1.36c0.77,0,1.36,0.19,1.84,0.58c0-2.42,0-4.84,0-7.16c0-2.13-3.2-2.13-3.2,0C34.02,34.09,34.02,36.22,34.02,38.44L34.02,38.44z   M29.08,38.44h3.2c0-1.74,0-3.49,0-5.23c0-2.03-3.2-2.03-3.2,0V38.44z M30.92,56.26h10.46c1.74-2.32,4.84-4.65,4.84-9.59v-4.16  c-1.16,0.48-2.71,0.29-3.68-0.68c-1.26,1.07-3.39,1.07-4.55-0.19c-0.58,2.32-2.71,3.97-5.03,3.97c0.29,0.29,0.58,0.68,0.77,1.07  c0.48,0.97,0.87,2.13,0.87,3.39c-0.1,1.16-1.74,1.16-1.74,0c0-0.97-0.19-1.84-0.68-2.61c-0.39-0.77-0.97-1.45-1.65-2.03  c-0.68-0.48-0.39-1.55,0.48-1.55h2.23c1.45,0,3.58-2.03,3-3.29c0-0.29-0.29-0.39-0.87-0.39H28.4c-1.55,0-2.61,0.77-2.61,2.42  c-0.19,4.36,0.29,6.97,3.2,10.17C29.95,53.94,30.73,54.61,30.92,56.26L30.92,56.26z M28.79,56.26h0.39  c-0.19-0.87-0.87-1.74-1.45-2.32c-1.74-1.94-3.97-4.45-3.68-11.33c0.1-2.13,1.26-3.58,3.39-4.07v-5.33c0-2.71,3-4.07,5.13-2.71  c1.07-2.52,4.84-2.61,6-0.19c1.74-1.07,4.45-0.29,4.94,1.84c1.94-0.87,4.45,0.29,4.45,2.61c0,3.97,0,7.94,0,11.91  c0,4.26-1.74,6.49-4.36,9.59c0.39,0,0.77,0.39,0.77,0.77v5.23c0,0.48-0.39,0.87-0.87,0.87H28.79c-0.48,0-0.87-0.39-0.87-0.87v-5.23  C27.92,56.55,28.3,56.26,28.79,56.26L28.79,56.26z M35.47,18.11l-3.39,1.36l0.19-3.58c0-0.39-0.1-0.68-0.39-1.07l-2.23-2.81  l3.39-0.87c0.39-0.1,0.68-0.39,0.87-0.68l2.03-3l2.13,3c0.19,0.29,0.48,0.58,0.87,0.68l3.39,0.87l-2.23,2.81  c-0.29,0.39-0.39,0.68-0.39,1.07l0.19,3.58l-3.39-1.36C36.15,18.02,35.76,18.02,35.47,18.11L35.47,18.11z M35.95,19.66l3.49,1.36  c1.07,0.39,2.23-0.39,2.13-1.55l-0.19-3.58l2.32-2.9c0.68-0.87,0.29-2.23-0.77-2.52l-3.58-0.87l-2.03-3.2  c-0.68-0.87-2.03-0.87-2.61,0l-2.13,3.2l-3.49,0.87c-1.07,0.29-1.45,1.65-0.77,2.52l2.32,2.9l-0.19,3.58  c-0.1,1.16,1.06,1.94,2.03,1.55L35.95,19.66z M54.74,26.25l-2.32,0.87l0.1-2.42c0-0.39-0.1-0.68-0.29-0.97l-1.65-2.03l2.42-0.58  c0.39-0.1,0.58-0.29,0.77-0.58l1.45-2.23l1.45,2.23c0.19,0.29,0.48,0.48,0.77,0.58l2.42,0.58l-1.55,2.03  c-0.19,0.29-0.39,0.58-0.29,0.97l0.1,2.42l-2.42-0.87C55.41,26.15,55.12,26.15,54.74,26.25L54.74,26.25z M55.22,27.79l2.71,0.97  c0.87,0.39,1.94-0.29,1.84-1.36l-0.1-2.71l1.74-2.23c0.58-0.77,0.29-1.94-0.77-2.23l-2.61-0.68l-1.65-2.42  c-0.68-0.87-1.55-0.87-2.32,0l-1.55,2.42l-2.71,0.68c-0.97,0.29-1.36,1.45-0.68,2.23l1.74,2.23l-0.1,2.71  c-0.1,1.07,0.87,1.74,1.84,1.36L55.22,27.79z M17.27,26.25l2.32,0.87l-0.1-2.42c0-0.39,0.1-0.68,0.29-0.97l1.55-2.03l-2.32-0.58  c-0.39-0.1-0.68-0.29-0.87-0.58l-1.45-2.23l-1.45,2.23c-0.19,0.29-0.39,0.48-0.77,0.58l-2.32,0.58l1.55,2.03  c0.19,0.29,0.29,0.58,0.29,0.97l-0.1,2.42l2.32-0.87C16.59,26.15,16.88,26.15,17.27,26.25L17.27,26.25z M16.69,27.79l-2.61,0.97  c-0.97,0.39-1.94-0.29-1.84-1.36l0.1-2.71l-1.74-2.23c-0.58-0.77-0.29-1.94,0.68-2.23l2.71-0.68l1.65-2.42  c0.68-0.87,1.55-0.87,2.23,0l1.65,2.42l2.71,0.68c0.97,0.29,1.26,1.45,0.68,2.23l-1.74,2.23l0.1,2.71c0.1,1.07-0.97,1.74-1.84,1.36  L16.69,27.79z M21.33,65.46c0,1.07-1.65,1.07-1.65,0V50.93c0-1.16,1.65-1.16,1.65,0V65.46z M50.57,65.46c0,1.07,1.74,1.07,1.74,0  V50.93c0-1.16-1.74-1.16-1.74,0V65.46z M13.49,47.64c0,1.16-1.74,1.16-1.74,0V32.64c0-1.16,1.74-1.16,1.74,0V47.64z M58.51,47.64  c0,1.16,1.74,1.16,1.74,0V32.64c0-1.16-1.74-1.16-1.74,0V47.64z M17.46,57.13c0,1.16-1.65,1.16-1.65,0V41.74  c0-1.16,1.65-1.16,1.65,0V57.13z M54.54,57.13c0,1.16,1.65,1.16,1.65,0V41.74c0-1.16-1.65-1.16-1.65,0V57.13z M39.34,61.49v-3.58  h-9.68v3.58H39.34z M40.99,57.91v3.58h1.65v-3.58H40.99z M46.31,34.77c0-1.55-2.71-1.55-2.81,0v4.84c0,1.94,2.61,1.84,2.71,0.29  L46.31,34.77z"/><text x="0" y="87" fill="#000000" font-size="5px" font-weight="bold" font-family="'Helvetica Neue', Helvetica, Arial-Unicode, Arial, Sans-serif">Created by dan's</text><text x="0" y="92" fill="#000000" font-size="5px" font-weight="bold" font-family="'Helvetica Neue', Helvetica, Arial-Unicode, Arial, Sans-serif">from the Noun Project</text></svg>