<svg xmlns="http://www.w3.org/2000/svg" data-name="Layer 1" viewBox="0 0 100 125" x="0px" y="0px"><defs><style>.cls-1{fill-rule:evenodd;}</style></defs><title>a</title><path class="cls-1" d="M15.2,18.016a1.673,1.673,0,0,0,1.665,1.644H29.684a1.673,1.673,0,0,0,1.665-1.644ZM39.484,64.809H7.061v5.152a1.724,1.724,0,0,0,1.716,1.716H37.768a1.724,1.724,0,0,0,1.716-1.716V64.809ZM7.061,62.748V19.731a1.723,1.723,0,0,1,1.716-1.715h4.358a3.734,3.734,0,0,0,3.726,3.705H29.684a3.734,3.734,0,0,0,3.726-3.705h4.358a1.723,1.723,0,0,1,1.716,1.715V62.748ZM25,41.2a2.441,2.441,0,1,0,.713,1.724A2.433,2.433,0,0,0,25,41.2Zm-7.49,11.129a10,10,0,0,0,11.531,0,6.38,6.38,0,0,0-11.531,0ZM30.342,37.088A10,10,0,0,0,15.917,50.929a8.469,8.469,0,0,1,5.235-4.038,4.5,4.5,0,1,1,4.241,0,8.469,8.469,0,0,1,5.235,4.038,10,10,0,0,0-.286-13.841Zm-7.07-4.99A12.062,12.062,0,1,0,31.8,35.631,12.022,12.022,0,0,0,23.272,32.1Zm29,51.82H29.345v3.927a3.606,3.606,0,0,0,1.332,2.721,5.225,5.225,0,0,0,3.405,1.206H88.2a5.225,5.225,0,0,0,3.405-1.206,3.606,3.606,0,0,0,1.332-2.721V83.918H70.008l-.938,2.22a1.027,1.027,0,0,1-.955.648H54.189a1.026,1.026,0,0,1-.966-.628l-.947-2.24Zm-19.74-2.061V73.738h5.232a3.786,3.786,0,0,0,3.777-3.777V43.927h48.2v37.93H69.33v0a1.026,1.026,0,0,0-.946.628l-.949,2.244H54.849l-.913-2.159a1.03,1.03,0,0,0-.982-.717Zm-4.221,0h2.16V73.738H8.777A3.786,3.786,0,0,1,5,69.961V19.731a3.785,3.785,0,0,1,3.777-3.776H37.768a3.785,3.785,0,0,1,3.777,3.776V41.866H90.778A1.031,1.031,0,0,1,91.809,42.9v38.96h2.16A1.03,1.03,0,0,1,95,82.888v4.957a5.646,5.646,0,0,1-2.057,4.283,7.282,7.282,0,0,1-4.741,1.7H34.082a7.282,7.282,0,0,1-4.741-1.7,5.646,5.646,0,0,1-2.057-4.283V82.888a1.03,1.03,0,0,1,1.031-1.031ZM63.422,60.612a3.225,3.225,0,1,0,.944,2.28,3.214,3.214,0,0,0-.944-2.28Zm-9.644,13.9a12.5,12.5,0,0,0,14.729,0,8.059,8.059,0,0,0-14.729,0ZM69.98,55.57A12.5,12.5,0,0,0,52.17,73.109a10.171,10.171,0,0,1,3.095-3.56,10.066,10.066,0,0,1,4.007-1.712,5.279,5.279,0,1,1,3.74,0,10.066,10.066,0,0,1,4.007,1.712,10.171,10.171,0,0,1,3.095,3.56A12.5,12.5,0,0,0,69.98,55.57Zm-8.838-5.722a14.562,14.562,0,1,0,10.295,4.265,14.514,14.514,0,0,0-10.295-4.265ZM20.712,69.093a1.031,1.031,0,1,1,0-2.061h5.067a1.031,1.031,0,1,1,0,2.061ZM70.065,24.862a6.8,6.8,0,0,1-2.771,3.026,8.715,8.715,0,0,1-8.692,0,6.8,6.8,0,0,1-2.771-3.026,1.027,1.027,0,0,0-1.876.837,8.843,8.843,0,0,0,3.593,3.952,10.723,10.723,0,0,0,10.8,0A8.843,8.843,0,0,0,71.941,25.7a1.027,1.027,0,0,0-1.876-.837ZM56.894,18.977H56.9a1.374,1.374,0,1,0,0-2.748h-.006a1.374,1.374,0,1,0,0,2.748Zm12.1,0H69a1.374,1.374,0,1,0,0-2.748H69a1.374,1.374,0,1,0,0,2.748Zm3.886-6.635A14.05,14.05,0,1,0,77,22.277a14,14,0,0,0-4.115-9.935ZM62.948,6.167a16.11,16.11,0,1,0,11.391,4.718A16.062,16.062,0,0,0,62.948,6.167Z"/><text x="0" y="115" fill="#000000" font-size="5px" font-weight="bold" font-family="'Helvetica Neue', Helvetica, Arial-Unicode, Arial, Sans-serif">Created by Good Father</text><text x="0" y="120" fill="#000000" font-size="5px" font-weight="bold" font-family="'Helvetica Neue', Helvetica, Arial-Unicode, Arial, Sans-serif">from the Noun Project</text></svg>