<svg xmlns="http://www.w3.org/2000/svg" viewBox="0 0 96 120" x="0px" y="0px"><g data-name="1"><path d="M59.36,42.45h-8l1.77-12.77a2.61,2.61,0,0,0-4.69-1.9L34.53,46.84h0A2.61,2.61,0,0,0,36.38,51l7,.68-1.1,14.82a2.57,2.57,0,0,0,1.75,2.66,2.65,2.65,0,0,0,.87.15,2.57,2.57,0,0,0,2.15-1.17L61.53,46.51a2.61,2.61,0,0,0-2.17-4.06ZM45.42,65.23l1-13.73a2.63,2.63,0,0,0-2.35-2.79l-6.74-.65L50,30.8,48.36,42.48A2.57,2.57,0,0,0,49,44.55a2.59,2.59,0,0,0,2,.9h7.69ZM48,7.58A40.42,40.42,0,1,0,88.42,48,40.46,40.46,0,0,0,48,7.58Zm0,77.84A37.42,37.42,0,1,1,85.42,48,37.45,37.45,0,0,1,48,85.42Zm1.5-8.81a1.5,1.5,0,0,1-1.5,1.5A30.15,30.15,0,0,1,17.89,48a1.5,1.5,0,0,1,3,0A27.14,27.14,0,0,0,48,75.11,1.5,1.5,0,0,1,49.5,76.61ZM78.11,48a1.5,1.5,0,0,1-3,0A27.14,27.14,0,0,0,48,20.89a1.5,1.5,0,0,1,0-3A30.15,30.15,0,0,1,78.11,48Z"/></g><text x="0" y="111" fill="#000000" font-size="5px" font-weight="bold" font-family="'Helvetica Neue', Helvetica, Arial-Unicode, Arial, Sans-serif">Created by Nisa Varma</text><text x="0" y="116" fill="#000000" font-size="5px" font-weight="bold" font-family="'Helvetica Neue', Helvetica, Arial-Unicode, Arial, Sans-serif">from the Noun Project</text></svg>