<svg xmlns:dc="http://purl.org/dc/elements/1.1/" xmlns:cc="http://creativecommons.org/ns#" xmlns:rdf="http://www.w3.org/1999/02/22-rdf-syntax-ns#" xmlns:svg="http://www.w3.org/2000/svg" xmlns="http://www.w3.org/2000/svg" xmlns:sodipodi="http://sodipodi.sourceforge.net/DTD/sodipodi-0.dtd" xmlns:inkscape="http://www.inkscape.org/namespaces/inkscape" viewBox="0 0 16.933333 21.1666675" version="1.1" enable-background="new" x="0px" y="0px"><svg:g><svg:path style="color:#000000;font-style:normal;font-variant:normal;font-weight:normal;font-stretch:normal;font-size:medium;line-height:normal;font-family:sans-serif;font-variant-ligatures:normal;font-variant-position:normal;font-variant-caps:normal;font-variant-numeric:normal;font-variant-alternates:normal;font-feature-settings:normal;text-indent:0;text-align:start;text-decoration:none;text-decoration-line:none;text-decoration-style:solid;text-decoration-color:#000000;letter-spacing:normal;word-spacing:normal;text-transform:none;writing-mode:lr-tb;direction:ltr;text-orientation:mixed;dominant-baseline:auto;baseline-shift:baseline;text-anchor:start;white-space:normal;shape-padding:0;clip-rule:nonzero;display:inline;overflow:visible;visibility:visible;opacity:1;isolation:auto;mix-blend-mode:normal;color-interpolation:sRGB;color-interpolation-filters:linearRGB;solid-color:#000000;solid-opacity:1;vector-effect:none;fill:#000000;fill-opacity:1;fill-rule:nonzero;stroke:none;stroke-width:0.52916676;stroke-linecap:round;stroke-linejoin:round;stroke-miterlimit:4;stroke-dasharray:none;stroke-dashoffset:0;stroke-opacity:1;paint-order:stroke fill markers;color-rendering:auto;image-rendering:auto;shape-rendering:auto;text-rendering:auto;enable-background:accumulate" d="m 6.7321467,0.79400667 c -1.907667,0 -3.458705,1.55311003 -3.458705,3.46078003 0,1.39125 0.82663,2.59015 2.013316,3.13882 -2.133585,0.62333 -3.689181,2.58837 -3.689181,4.9258003 v 1.46657 a 0.26460979,0.26460979 0 0 0 0.265618,0.26356 h 6.48694 c 0.592915,1.23403 1.8514783,2.08979 3.3098773,2.08979 2.026105,0 3.675745,-1.64757 3.675745,-3.67368 0,-2.02611 -1.64964,-3.6736803 -3.675745,-3.6736803 -0.365922,0 -0.718889,0.055 -1.05265,0.15503 -0.6342753,-0.72881 -1.4710333,-1.27713 -2.4246583,-1.55597 1.183868,-0.54979 2.0086643,-1.74704 2.0086643,-3.13624 0,-1.90767 -1.5515563,-3.46078003 -3.4592213,-3.46078003 z m 0,0.52917003 c 1.621682,0 2.929536,1.30992 2.929536,2.93161 0,1.62169 -1.307854,2.92953 -2.929536,2.92953 -1.621684,0 -2.929538,-1.30784 -2.929538,-2.92953 0,-1.62169 1.307854,-2.93161 2.929538,-2.93161 z m 0,6.39083 c 1.325018,0 2.510515,0.55208 3.3486333,1.43918 -1.2366203,0.59195 -2.0944473,1.8521703 -2.0944473,3.3124603 0,0.36671 0.05564,0.72033 0.156064,1.05472 h -6.015653 v -1.20096 c 0,-2.5560403 2.049446,-4.6054003 4.605403,-4.6054003 z m 4.9278653,1.60713 c 1.740122,0 3.146578,1.4043903 3.146578,3.1445103 0,1.74013 -1.406456,3.14452 -3.146578,3.14452 -1.7401253,0 -3.1445123,-1.40439 -3.1445123,-3.14452 0,-1.74012 1.404387,-3.1445103 3.1445123,-3.1445103 z m 0.01034,1.0562703 a 0.26460979,0.26460979 0 0 0 -0.259927,0.17673 l -0.413927,1.19011 -1.2583223,0.0253 a 0.26460979,0.26460979 0 0 0 -0.156064,0.47543 l 1.0051073,0.7617 -0.365353,1.20562 a 0.26460979,0.26460979 0 0 0 0.404112,0.29352 l 1.033529,-0.71934 1.035079,0.71986 a 0.26460979,0.26460979 0 0 0 0.403074,-0.29249 l -0.363802,-1.20717 1.005107,-0.76016 a 0.26460979,0.26460979 0 0 0 -0.156062,-0.4749 l -1.25884,-0.0274 -0.413411,-1.19011 a 0.26460979,0.26460979 0 0 0 -0.21394,-0.17415 0.26460979,0.26460979 0 0 0 -0.02635,-0.003 z m -0.0098,1.07022 0.223761,0.64492 a 0.26460979,0.26460979 0 0 0 0.245462,0.17777 l 0.681611,0.0145 -0.543118,0.41237 a 0.26460979,0.26460979 0 0 0 -0.09405,0.28681 l 0.198953,0.65577 -0.562239,-0.39222 a 0.26460979,0.26460979 0 0 0 -0.301274,5.3e-4 l -0.560173,0.38964 0.196887,-0.65319 a 0.26460979,0.26460979 0 0 0 -0.09303,-0.28836 l -0.544668,-0.41237 0.682643,-0.0145 a 0.26460979,0.26460979 0 0 0 0.24443,-0.17777 z"/></svg:g><text x="0" y="31.933334" fill="#000000" font-size="5px" font-weight="bold" font-family="'Helvetica Neue', Helvetica, Arial-Unicode, Arial, Sans-serif">Created by Alzam</text><text x="0" y="36.933334" fill="#000000" font-size="5px" font-weight="bold" font-family="'Helvetica Neue', Helvetica, Arial-Unicode, Arial, Sans-serif">from the Noun Project</text></svg>