<svg xmlns="http://www.w3.org/2000/svg" xmlns:xlink="http://www.w3.org/1999/xlink" version="1.1" x="0px" y="0px" viewBox="0 0 64 80" style="enable-background:new 0 0 64 64;" xml:space="preserve"><rect x="31" y="1" width="2" height="3"/><rect x="31" y="60" width="2" height="3"/><rect x="60" y="31" width="3" height="2"/><rect x="1" y="31" width="3" height="2"/><rect x="51.36" y="10.141" transform="matrix(0.7071 -0.7071 0.7071 0.7071 7.6045 40.6402)" width="3" height="2"/><rect x="9.641" y="51.859" transform="matrix(0.7071 -0.7071 0.7071 0.7071 -34.1142 23.3598)" width="3" height="2"/><rect x="51.859" y="51.36" transform="matrix(0.7071 -0.7071 0.7071 0.7071 -21.8951 52.8594)" width="2" height="3"/><rect x="10.141" y="9.641" transform="matrix(0.7071 -0.7071 0.7071 0.7071 -4.6146 11.1406)" width="2" height="3"/><path d="M50.444,20.391l-0.876-0.435c-5.67-2.812-10.664-6.641-14.842-11.376L32.75,6.339c-0.379-0.432-1.121-0.432-1.5,0  L29.273,8.58c-4.178,4.735-9.172,8.563-14.842,11.376l-0.876,0.435C13.215,20.56,13,20.906,13,21.286v5.407  c0,10.488,4.734,20.261,12.988,26.812l5.39,4.277C31.561,57.928,31.78,58,32,58s0.439-0.072,0.622-0.217l5.39-4.277  C46.266,46.954,51,37.182,51,26.693v-5.407C51,20.906,50.785,20.56,50.444,20.391z M49,26.693c0,9.874-4.458,19.076-12.232,25.246  L33,54.93V49h-2v5.93l-3.768-2.99C19.458,45.77,15,36.567,15,26.693v-4.787l0.32-0.159c5.903-2.928,11.103-6.913,15.453-11.845  L31,9.645V16h2V9.645l0.227,0.257c4.351,4.932,9.55,8.917,15.453,11.845L49,21.906V26.693z"/><path d="M42,26.782v-4.779c0-0.553-0.447-1-1-1h-3c-0.553,0-1,0.447-1,1v0.596l-4.039-3.367C32.781,19.082,32.555,19,32.32,19H31.68  c-0.235,0-0.464,0.083-0.645,0.235l-10.68,9C20.13,28.426,20,28.705,20,29v5c0,0.389,0.226,0.742,0.578,0.906  c0.352,0.165,0.767,0.109,1.066-0.142L23,33.623v10.374c0,0.553,0.447,1,1,1h16c0.553,0,1-0.447,1-1V33.623l1.355,1.142  C42.54,34.92,42.769,35,43,35c0.144,0,0.287-0.03,0.422-0.094C43.774,34.742,44,34.389,44,34v-5c0-0.287-0.123-0.56-0.338-0.749  L42,26.782z M34,42.997h-4V39.73c0-1.103,0.897-2,2-2s2,0.897,2,2V42.997z M39,42.997h-3V39.73c0-2.206-1.794-4-4-4s-4,1.794-4,4  v3.267h-3V31.938l7-5.897l7,5.897V42.997z M42,31.85l-9.355-7.881c-0.187-0.157-0.415-0.235-0.645-0.235s-0.458,0.078-0.645,0.235  L22,31.85v-2.385l10.002-8.429l5.357,4.466c0.299,0.249,0.716,0.301,1.064,0.137C38.775,25.475,39,25.121,39,24.733v-1.73h1v4.23  c0,0.287,0.123,0.56,0.338,0.749L42,29.451V31.85z"/><text x="0" y="79" fill="#000000" font-size="5px" font-weight="bold" font-family="'Helvetica Neue', Helvetica, Arial-Unicode, Arial, Sans-serif">Created by Nithinan Tatah</text><text x="0" y="84" fill="#000000" font-size="5px" font-weight="bold" font-family="'Helvetica Neue', Helvetica, Arial-Unicode, Arial, Sans-serif">from the Noun Project</text></svg>