<svg xmlns="http://www.w3.org/2000/svg" xmlns:xlink="http://www.w3.org/1999/xlink" version="1.1" x="0px" y="0px" viewBox="0 0 72 90" style="enable-background:new 0 0 72 72;" xml:space="preserve"><path d="M63.11,53.7c0.37-1.85,0.37-3.78,0-5.63l-2.12-0.37c-0.28,0-0.55-0.18-0.65-0.55c-0.28-0.65-0.55-1.85-1.29-3.05  c-0.18-0.28-0.18-0.65,0-0.83l1.29-1.85c-1.11-1.57-2.4-2.86-3.97-3.97l-1.75,1.29c-0.28,0.18-0.65,0.18-0.92,0  c-0.18-0.09-1.85-0.92-3.05-1.2c-0.28-0.09-0.55-0.37-0.55-0.65l-0.37-2.22c-0.92-0.18-1.94-0.28-2.86-0.28  c-1.02,0-1.94,0.09-2.86,0.28l-0.37,2.22c0,0.28-0.28,0.55-0.55,0.65c-1.2,0.28-2.86,1.11-3.05,1.2c-0.28,0.18-0.65,0.18-0.92,0  l-1.75-1.29c-1.57,1.11-2.86,2.4-3.97,3.97l1.29,1.85c0.18,0.18,0.18,0.55,0,0.83c-0.74,1.2-1.11,2.4-1.29,3.05  c-0.09,0.37-0.37,0.55-0.65,0.55l-2.12,0.37c-0.37,1.85-0.37,3.78,0,5.63l2.12,0.37c0.28,0.09,0.55,0.28,0.65,0.65  c0.18,0.65,0.55,1.85,1.29,3.05c0.18,0.28,0.18,0.55,0,0.83l-1.29,1.85c1.11,1.48,2.4,2.86,3.97,3.97l1.75-1.29  c0.28-0.18,0.65-0.18,0.92,0c0.18,0.09,1.85,0.92,3.05,1.2c0.28,0.09,0.55,0.37,0.55,0.65l0.37,2.22c0.92,0.18,1.85,0.18,2.86,0.18  c0.92,0,1.94,0,2.86-0.18l0.37-2.22c0-0.28,0.28-0.55,0.55-0.65c1.2-0.28,2.86-1.11,3.05-1.2c0.28-0.18,0.65-0.18,0.92,0l1.75,1.29  c1.57-1.11,2.86-2.49,3.97-3.97l-1.29-1.85c-0.18-0.28-0.18-0.55,0-0.83c0.74-1.2,1.02-2.4,1.29-3.05c0.09-0.37,0.37-0.55,0.65-0.65  L63.11,53.7z M57.58,50.93c0-6-4.8-10.8-10.71-10.8s-10.71,4.8-10.71,10.8c0,6,4.8,10.8,10.71,10.8S57.58,56.93,57.58,50.93  L57.58,50.93z M43.45,53.24c0.18,1.29,1.38,2.22,2.58,2.49v1.29c0,1.02,1.57,1.02,1.57,0v-1.29c1.38-0.28,2.68-1.29,2.68-2.77  c0-3.88-5.26-1.94-5.26-4.06c0-1.66,3.51-1.66,3.69-0.09c0.09,1.02,1.66,0.83,1.57-0.18c-0.18-1.38-1.38-2.22-2.68-2.49v-1.29  c0-1.02-1.57-1.02-1.57,0v1.29c-1.29,0.28-2.58,1.29-2.58,2.77c0,3.78,5.26,1.94,5.26,4.06c0,1.57-3.51,1.75-3.69,0.09  C44.93,52.04,43.36,52.22,43.45,53.24L43.45,53.24z M34.5,18.62c-0.09,2.58,3.51,3.88,4.62,0.92c0.28-2.4,0.65-4.8,0.92-7.29  c0.37-2.95-3.97-3.42-4.62-0.65C35.15,13.92,34.87,16.32,34.5,18.62L34.5,18.62z M27.95,15.67c0.37,1.11,0.28,2.31-0.09,3.42  c0.65,2.77,4.71,2.58,5.08-0.55c0.28-2.77,0.65-5.45,1.02-8.22c0.37-3.42-4.71-4.15-5.17-0.65C28.59,11.61,28.32,13.82,27.95,15.67  L27.95,15.67z M21.02,13.64h4.25c0.46,0,0.92,0.09,1.29,0.28l0.74-5.45c0.46-3.42-4.89-4.25-5.54-0.83L21.02,13.64z M13.27,14.47  c1.11-0.46,2.12-0.83,2.86-0.83h3.23l0.74-5.91c0.28-4.15-5.54-4.62-5.82-1.02L13.27,14.47z M17.98,39.76c-1.75,0-3.23,0-4.98,0  c-0.18,0-0.37,0.18-0.37,0.37c0,0.74,0.18,7.29,0.18,7.29c0,0.09,0.09,0.09,0.18,0.09h4.98C15.85,45.39,15.85,41.98,17.98,39.76  L17.98,39.76z M23.98,39.76h-2.03c-5.08,0-5.17,7.75-0.09,7.75h2.12V39.76z M29.24,42.35c0.65,0,1.2,0.65,1.2,1.29  c0,0.74-0.55,1.29-1.2,1.29c-0.74,0-1.29-0.55-1.29-1.29C27.95,42.99,28.5,42.35,29.24,42.35L29.24,42.35z M28.87,49.18H15.12  l-1.94,13.2c2.58,3.23,6.74,5.26,10.89,5.26c3.78,0,7.2-1.38,9.78-4.06c-0.74-0.83-1.48-1.75-2.12-2.77c-0.18-0.28-0.18-0.65,0-0.92  l1.29-1.75c-0.37-0.83-0.74-1.66-1.02-2.49l-2.22-0.37c-0.37-0.09-0.65-0.37-0.65-0.74C28.78,52.78,28.68,50.93,28.87,49.18  L28.87,49.18z M32.56,39.76h-6.92v7.75h3.42l0.09-0.28c0-0.28,0.28-0.55,0.65-0.65l2.22-0.37c0.28-0.83,0.65-1.66,1.02-2.49  l-1.29-1.75c-0.18-0.28-0.18-0.65,0-1.02C32.01,40.59,32.28,40.22,32.56,39.76L32.56,39.76z M15.3,38.19h17.35  c0.46-2.31,1.66-3.6,2.86-4.98c1.75-1.85,3.69-3.97,3.69-9.32v-1.75c-1.75,1.38-4.34,0.74-5.63-1.02c-1.66,2.03-5.08,2.12-6.65-0.18  c-0.83,1.02-2.03,1.85-3.6,1.94c-1.11,0-2.22-0.09-3.32-0.09c-1.2,0.55-2.22,1.29-2.86,2.58c-0.46,0.92-1.94,0.18-1.48-0.74  c0.92-1.66,2.31-2.68,3.88-3.42c0.18,0,0.28,0,0.37,0c1.11,0,2.22,0.09,3.32,0c1.48-0.09,2.58-1.2,3.05-2.49  c0.28-0.74,0.37-1.75,0.09-2.58c-0.18-0.46-0.55-0.83-1.11-0.83l-9.14-0.09c-1.66,0-5.26,2.77-6.46,3.97  c-0.74,0.83-1.02,2.03-1.02,3.42c0,3.78,1.38,7.29,3.78,10.25C13.55,34.32,14.65,35.79,15.3,38.19L15.3,38.19z M12.99,38.19h0.65  c-0.55-1.85-1.57-3.05-2.49-4.34c-2.58-3.23-4.15-7.11-4.15-11.26c0-1.75,0.46-3.32,1.48-4.52c0.65-0.65,1.85-1.66,3.05-2.49  l1.11-9.05c0.83-5.08,6.83-4.62,8.68-1.48c2.12-2.22,6.37-1.38,7.38,1.57c2.22-1.66,6-0.74,6.74,2.22c2.49-1.66,6.74-0.28,6.28,3.6  l-0.83,5.91v5.54c-0.09,6-2.22,8.31-4.15,10.43c-0.92,1.02-1.75,2.03-2.22,3.42c0.74-0.74,1.48-1.38,2.4-1.94  c0.28-0.18,0.65-0.18,0.92,0l1.85,1.29c0.83-0.37,1.66-0.74,2.49-1.02l0.37-2.22c0.09-0.28,0.28-0.55,0.65-0.65  c1.2-0.28,2.4-0.37,3.69-0.37s2.49,0.09,3.69,0.37c0.37,0.09,0.55,0.37,0.65,0.65l0.37,2.22c0.83,0.28,1.66,0.65,2.49,1.02  l1.85-1.29c0.28-0.18,0.65-0.18,0.92,0c2.12,1.38,3.88,3.14,5.17,5.17c0.18,0.37,0.18,0.74,0,1.02l-1.29,1.75  c0.37,0.83,0.74,1.66,1.02,2.49l2.22,0.37c0.37,0.09,0.65,0.37,0.65,0.65c0.55,2.49,0.55,4.89,0,7.29c0,0.37-0.28,0.65-0.65,0.74  l-2.22,0.37c-0.28,0.83-0.65,1.66-1.02,2.49l1.29,1.75c0.18,0.28,0.18,0.65,0,0.92c-1.29,2.12-3.05,3.88-5.17,5.26  c-0.28,0.18-0.65,0.18-0.92,0l-1.85-1.29c-0.83,0.37-1.66,0.74-2.49,1.02l-0.37,2.22c-0.09,0.28-0.28,0.55-0.65,0.65  c-1.2,0.28-2.4,0.37-3.69,0.37s-2.49-0.09-3.69-0.37c-0.37-0.09-0.55-0.37-0.65-0.65l-0.37-2.22c-0.83-0.28-1.66-0.65-2.49-1.02  l-1.85,1.29c-0.28,0.18-0.65,0.18-0.92,0c-0.65-0.46-1.29-0.92-1.85-1.38c-2.95,2.95-6.74,4.62-10.98,4.62  c-4.71,0-9.42-2.4-12.37-6.18c-0.09-0.18-0.18-0.37-0.18-0.65l1.94-13.29h-0.46c-1.02,0-1.94-0.92-1.94-2.03v-7.02  C11.05,39.02,11.98,38.19,12.99,38.19L12.99,38.19z M56.01,50.93c0,5.08-4.06,9.14-9.14,9.14c-5.08,0-9.14-4.06-9.14-9.14  c0-5.08,4.06-9.14,9.14-9.14C51.95,41.79,56.01,45.85,56.01,50.93L56.01,50.93z"/><text x="0" y="87" fill="#000000" font-size="5px" font-weight="bold" font-family="'Helvetica Neue', Helvetica, Arial-Unicode, Arial, Sans-serif">Created by Besokpagi</text><text x="0" y="92" fill="#000000" font-size="5px" font-weight="bold" font-family="'Helvetica Neue', Helvetica, Arial-Unicode, Arial, Sans-serif">from the Noun Project</text></svg>