<svg xmlns="http://www.w3.org/2000/svg" data-name="Layer 1" viewBox="0 0 128 160" x="0px" y="0px"><title>Miscellaneous 17 final</title><path d="M126,10H2a2,2,0,0,0-2,2V114a2,2,0,0,0,2,2H126a2,2,0,0,0,2-2V12A2,2,0,0,0,126,10Zm-2,102H4V30H124Zm0-86H4V14H124Z"/><path d="M114,22h4a2,2,0,0,0,0-4h-4a2,2,0,0,0,0,4Z"/><path d="M102,22h4a2,2,0,0,0,0-4h-4a2,2,0,0,0,0,4Z"/><path d="M22.49,82.93h0a20,20,0,0,0,2.21,4.52l0,0a5.19,5.19,0,0,0,7.77,6.87h0A19.5,19.5,0,0,0,37.26,96v0a5.19,5.19,0,0,0,5.19,4.85h.31a5.18,5.18,0,0,0,4.86-5.5h0a19.49,19.49,0,0,0,4.51-2.19l0,0A5.18,5.18,0,0,0,59,85.42l0,0a20,20,0,0,0,1.63-4.75h0A5.19,5.19,0,0,0,60,70.28h0a19.26,19.26,0,0,0-2.21-4.52h0A5.19,5.19,0,0,0,50,58.88h0a19.74,19.74,0,0,0-4.75-1.64v0a5.19,5.19,0,0,0-10.36.65v0a20,20,0,0,0-4.52,2.2l0,0a5.18,5.18,0,0,0-6.87,7.76,19.47,19.47,0,0,0-1.63,4.75h0a5.19,5.19,0,0,0,.63,10.36Zm-.38-6.37,1.61-.1a2,2,0,0,0,1.86-1.76,15.59,15.59,0,0,1,2.15-6.29,2,2,0,0,0-.39-2.54l-1.19-1.05a1.18,1.18,0,0,1,.71-2.06,1.13,1.13,0,0,1,.85.29l1.21,1.07a2,2,0,0,0,2.56.07,15.88,15.88,0,0,1,6-2.92A2,2,0,0,0,39,59.23l-.1-1.61a1.19,1.19,0,0,1,2.37-.15l.1,1.63A2,2,0,0,0,43.14,61a15.61,15.61,0,0,1,6.28,2.17A2,2,0,0,0,52,62.75L53,61.53a1.17,1.17,0,0,1,.81-.4,1.16,1.16,0,0,1,.86.3,1.18,1.18,0,0,1,.1,1.67l-1.07,1.21a2,2,0,0,0-.06,2.57,15.37,15.37,0,0,1,2.92,6,2,2,0,0,0,2.06,1.52l1.63-.1a1.19,1.19,0,0,1,1.25,1.13,1.18,1.18,0,0,1-1.11,1.25l-1.61.1a2,2,0,0,0-1.87,1.76,15.87,15.87,0,0,1-2.16,6.3,2,2,0,0,0,.39,2.53l1.22,1.08a1.18,1.18,0,0,1,.1,1.67h0a1.16,1.16,0,0,1-.81.4,1.15,1.15,0,0,1-.85-.29l-1.24-1.1A2,2,0,0,0,51,89a15.58,15.58,0,0,1-6,2.91A2,2,0,0,0,43.53,94l.1,1.61a1.17,1.17,0,0,1-.29.86,1.19,1.19,0,0,1-2.08-.71l-.1-1.63a2,2,0,0,0-1.76-1.86,15.61,15.61,0,0,1-6.3-2.16,2,2,0,0,0-2.54.38l-1.07,1.21a1.19,1.19,0,0,1-1.78-1.57l1.07-1.21a2,2,0,0,0,.07-2.56,15.86,15.86,0,0,1-2.92-6,2,2,0,0,0-2.06-1.52l-1.63.1A1.2,1.2,0,0,1,21,77.82,1.18,1.18,0,0,1,22.11,76.57Z"/><path d="M35,86.55A11.77,11.77,0,0,0,47.59,66.7,11.77,11.77,0,0,0,35,86.55Zm1.4-15.94a7.73,7.73,0,0,1,4.94-1.74,7.63,7.63,0,0,1,4.13,1.19,7.77,7.77,0,1,1-9.07.56Z"/><path d="M67.59,71.08h.17a20,20,0,0,0,2,4.6l0,0a5.19,5.19,0,0,0,7.53,7.14h0a19.47,19.47,0,0,0,4.7,1.8v0a5.19,5.19,0,0,0,5.2,5h.13a5.18,5.18,0,0,0,5.05-5.32h0a19.46,19.46,0,0,0,4.58-2l0,0a5.06,5.06,0,0,0,3.7,1.42,5.18,5.18,0,0,0,3.43-8.94l0,0a20,20,0,0,0,1.8-4.69h0a5.19,5.19,0,0,0-.25-10.38h0a19.27,19.27,0,0,0-2.05-4.6h0a5.19,5.19,0,0,0-.19-7.32l0,0a5.05,5.05,0,0,0-3.67-1.39A5.14,5.14,0,0,0,96.09,48h0a19.79,19.79,0,0,0-4.69-1.81v0A5.19,5.19,0,0,0,81,46.46v0a20,20,0,0,0-4.59,2l0,0A5.18,5.18,0,0,0,69.26,56a19.47,19.47,0,0,0-1.79,4.69h0a5.19,5.19,0,0,0,.13,10.38Zm-.85-6a1.17,1.17,0,0,1,.83-.37l1.61,0A2,2,0,0,0,71.09,63a15.6,15.6,0,0,1,2.37-6.21,2,2,0,0,0-.3-2.55L72,53.12a1.18,1.18,0,0,1,1.62-1.71l1.17,1.11a2,2,0,0,0,2.56.16A15.87,15.87,0,0,1,83.46,50,2,2,0,0,0,85,48l0-1.61a1.19,1.19,0,0,1,2.38-.06l0,1.63a2,2,0,0,0,1.69,1.92,15.64,15.64,0,0,1,6.2,2.39,2,2,0,0,0,2.55-.29L99,50.76a1.17,1.17,0,0,1,.82-.37,1.22,1.22,0,0,1,.84.32l0,0a1.18,1.18,0,0,1,0,1.65L99.6,53.57a2,2,0,0,0-.16,2.57,15.37,15.37,0,0,1,2.71,6.06,2,2,0,0,0,2,1.59l1.64,0A1.18,1.18,0,0,1,107,64.92a1.18,1.18,0,0,1-1.15,1.21l-1.61,0a2,2,0,0,0-1.93,1.69,15.88,15.88,0,0,1-2.38,6.22,2,2,0,0,0,.3,2.55l1.18,1.12a1.18,1.18,0,0,1,0,1.67h0a1.18,1.18,0,0,1-1.67,0l-1.2-1.14A2,2,0,0,0,96,78.16a15.58,15.58,0,0,1-6.07,2.69,2,2,0,0,0-1.59,2l0,1.61a1.17,1.17,0,0,1-.32.85,1.19,1.19,0,0,1-.85.37A1.17,1.17,0,0,1,86,84.55l0-1.63A2,2,0,0,0,84.28,81a15.62,15.62,0,0,1-6.22-2.38,2,2,0,0,0-2.55.29l-1.11,1.17a1.19,1.19,0,0,1-1.72-1.63l1.11-1.17A2,2,0,0,0,74,74.71a15.87,15.87,0,0,1-2.71-6.08,2,2,0,0,0-2-1.59h0l-1.63,0h0a1.19,1.19,0,0,1-1.18-1.17A1.17,1.17,0,0,1,66.73,65.07Z"/><path d="M80.05,75.14a11.77,11.77,0,0,0,13.32-19.4,11.77,11.77,0,0,0-13.32,19.4Zm2-15.88a7.77,7.77,0,0,1,9.42,12.36A7.77,7.77,0,0,1,82,59.26Z"/><text x="0" y="143" fill="#000000" font-size="5px" font-weight="bold" font-family="'Helvetica Neue', Helvetica, Arial-Unicode, Arial, Sans-serif">Created by WEBTECHOPS LLP</text><text x="0" y="148" fill="#000000" font-size="5px" font-weight="bold" font-family="'Helvetica Neue', Helvetica, Arial-Unicode, Arial, Sans-serif">from the Noun Project</text></svg>