<svg xmlns="http://www.w3.org/2000/svg" xmlns:xlink="http://www.w3.org/1999/xlink" version="1.1" x="0px" y="0px" viewBox="0 0 512 640" style="enable-background:new 0 0 512 512;" xml:space="preserve"><g><rect x="361.37" y="134.71" width="36.84" height="19.2"/><path d="M326.16,123.87l-3.34-1.98c-0.54,3.16-0.82,6.38-0.82,9.65v22.36h5.62v-27.47C327.62,125.39,327.06,124.41,326.16,123.87z"/><path d="M403.01,78.61l-4.84,19.5c-0.4,1.59-1.82,2.66-3.39,2.66c-0.28,0-0.56-0.03-0.85-0.1c-1.88-0.47-3.02-2.36-2.55-4.24   l5.78-23.29c0.22-0.89,0.02-1.82-0.54-2.55s-1.42-1.14-2.34-1.14H365.3c-0.92,0-1.77,0.42-2.34,1.14s-0.77,1.65-0.54,2.55   l5.78,23.29c0.47,1.88-0.68,3.77-2.55,4.24c-1.87,0.47-3.77-0.68-4.24-2.55l-4.84-19.5c-15.58,6.85-27.19,20.21-32.05,36.14   l5.22,3.1c3.01,1.79,4.89,5.07,4.89,8.58v27.47h19.75v-22.7c0-1.93,1.57-3.5,3.5-3.5h43.84c1.93,0,3.5,1.57,3.5,3.5v22.7h19.77   v-27.47c0-3.5,1.87-6.79,4.89-8.58l5.21-3.09C430.21,98.83,418.6,85.46,403.01,78.61z"/><path d="M433.43,123.87c-0.9,0.53-1.46,1.51-1.46,2.56v27.47h5.6v-22.36c0-3.27-0.29-6.49-0.82-9.64L433.43,123.87z"/><path d="M410.46,21.43c-61.56-16.9-125.78,19.56-142.83,81.09c-7.7,27.78-4.62,56,6.69,80.21c1.2,2.58,1.38,5.52,0.45,8.21   l-18.61,53.73c-1.42,4.11,2.32,8.15,6.53,7.03l56.95-15.11c2.59-0.69,5.34-0.37,7.73,0.83c7.29,3.66,15.07,6.61,23.3,8.73   c61.26,15.8,124.39-20.82,141.14-81.82C508.82,102.43,472.42,38.43,410.46,21.43z M452.27,170.46c0,4.31-3.51,7.81-7.81,7.81   H315.12c-4.31,0-7.81-3.51-7.81-7.81v-8.74c0-4.27,3.44-7.74,7.68-7.81v-22.37c0-8.5,2.08-16.24,2.11-16.32   c5.1-19.51,19.15-35.94,38.26-43.72c0.17-1.88,0.87-3.69,2.08-5.23c1.9-2.43,4.77-3.83,7.85-3.83h28.98c3.09,0,5.95,1.4,7.85,3.83   c1.2,1.54,1.91,3.35,2.08,5.23c19.07,7.76,33.11,24.15,38.23,43.61c0.11,0.28,2.14,7.94,2.14,16.43v22.37   c4.25,0.07,7.68,3.54,7.68,7.81V170.46z"/><path d="M36.5,88.18l22.17,13.66c0.57,0.35,1.21,0.52,1.83,0.52c1.17,0,2.32-0.59,2.98-1.67c1.01-1.65,0.5-3.8-1.14-4.82   L40.17,82.22c-1.65-1.01-3.8-0.5-4.82,1.14C34.34,85.01,34.85,87.17,36.5,88.18z"/><path d="M125,58.43c0.19,1.8,1.71,3.14,3.48,3.14c0.12,0,0.24-0.01,0.36-0.02c1.92-0.2,3.32-1.92,3.12-3.84l-2.68-25.9   c-0.2-1.92-1.92-3.31-3.84-3.12c-1.92,0.2-3.32,1.92-3.12,3.84L125,58.43z"/><path d="M483.71,395.73l-25.79-3.56c-1.9-0.26-3.68,1.07-3.94,2.99c-0.26,1.91,1.07,3.68,2.99,3.94l25.79,3.56   c0.16,0.02,0.32,0.03,0.48,0.03c1.72,0,3.22-1.27,3.46-3.02C486.96,397.76,485.62,396,483.71,395.73z"/><path d="M414.72,458.66c-0.96-1.68-3.1-2.26-4.77-1.31c-1.68,0.96-2.26,3.09-1.31,4.77l12.9,22.62c0.65,1.13,1.83,1.77,3.04,1.77   c0.59,0,1.18-0.15,1.73-0.46c1.68-0.96,2.26-3.09,1.31-4.77L414.72,458.66z"/><path d="M256.74,108.03c0.24-1.92-1.12-3.67-3.04-3.91c-7.31-0.92-14.78-1.38-22.2-1.38c-97.3,0-176.46,79.16-176.46,176.46   s79.16,176.46,176.46,176.46c97.3,0,176.46-79.16,176.46-176.46c0-4.14-0.14-8.32-0.43-12.41c-0.13-1.93-1.8-3.38-3.73-3.25   c-1.93,0.13-3.38,1.81-3.25,3.73c0.27,3.93,0.41,7.95,0.41,11.93c0,93.44-76.02,169.46-169.46,169.46S62.05,372.64,62.05,279.2   s76.02-169.46,169.46-169.46c7.13,0,14.3,0.45,21.32,1.33C254.75,111.3,256.5,109.94,256.74,108.03z"/><path d="M444.4,245.28c-1.91,0.27-3.25,2.04-2.98,3.96c1.39,9.85,2.1,19.93,2.1,29.96c0,116.9-95.11,212.01-212.01,212.01   S19.5,396.1,19.5,279.2S114.61,67.18,231.51,67.18c10.59,0,21.23,0.79,31.63,2.34c1.92,0.28,3.69-1.03,3.98-2.94   c0.29-1.91-1.03-3.69-2.94-3.98c-10.74-1.61-21.73-2.42-32.67-2.42c-58.5,0-113.5,22.78-154.86,64.15   C35.28,165.7,12.5,220.7,12.5,279.2s22.78,113.5,64.15,154.86c41.37,41.37,96.36,64.15,154.86,64.15s113.5-22.78,154.86-64.15   c41.37-41.37,64.15-96.36,64.15-154.86c0-10.36-0.73-20.77-2.17-30.94C448.08,246.34,446.31,245.01,444.4,245.28z"/><path d="M231.51,262.85c9.02,0,16.35,7.33,16.35,16.35c0,1.93,1.57,3.5,3.5,3.5s3.5-1.57,3.5-3.5c0-12.87-10.47-23.35-23.35-23.35   s-23.35,10.47-23.35,23.35c0,7.08,3.26,13.75,8.68,18.15l-36.79,62.91c-0.98,1.67-0.41,3.81,1.25,4.79   c1.67,0.97,3.81,0.41,4.79-1.25l45.41-77.65l45.15,77.64c0.65,1.12,1.82,1.74,3.03,1.74c0.6,0,1.2-0.15,1.76-0.48   c1.67-0.97,2.24-3.11,1.27-4.79l-48.17-82.83c-0.63-1.08-1.78-1.74-3.02-1.74c0,0,0,0,0,0c-1.24,0-2.39,0.66-3.02,1.73l-8.06,13.78   c-3.31-3.06-5.27-7.42-5.27-12.01C215.16,270.18,222.5,262.85,231.51,262.85z"/><path d="M228.01,414.2v15.49c0,1.93,1.57,3.5,3.5,3.5s3.5-1.57,3.5-3.5V414.2c0-1.93-1.57-3.5-3.5-3.5S228.01,412.27,228.01,414.2z   "/><path d="M235.01,144.19V128.7c0-1.93-1.57-3.5-3.5-3.5s-3.5,1.57-3.5,3.5v15.49c0,1.93,1.57,3.5,3.5,3.5   S235.01,146.12,235.01,144.19z"/><path d="M100.01,279.2c0-1.93-1.57-3.5-3.5-3.5h-15.5c-1.93,0-3.5,1.57-3.5,3.5s1.57,3.5,3.5,3.5h15.5   C98.44,282.7,100.01,281.13,100.01,279.2z"/><path d="M366.52,282.7h15.49c1.93,0,3.5-1.57,3.5-3.5s-1.57-3.5-3.5-3.5h-15.49c-1.93,0-3.5,1.57-3.5,3.5   S364.58,282.7,366.52,282.7z"/><path d="M306.76,413.03c0.59,0,1.2-0.15,1.75-0.47c1.67-0.97,2.25-3.11,1.28-4.78l-7.75-13.42c-0.97-1.67-3.11-2.25-4.78-1.28   c-1.67,0.97-2.25,3.11-1.28,4.78l7.75,13.42C304.38,412.4,305.55,413.03,306.76,413.03z"/><path d="M167.04,160.53l-7.75-13.42c-0.97-1.67-3.11-2.25-4.78-1.28c-1.67,0.97-2.25,3.11-1.28,4.78l7.75,13.42   c0.65,1.12,1.83,1.75,3.03,1.75c0.59,0,1.2-0.15,1.75-0.47C167.43,164.34,168.01,162.2,167.04,160.53z"/><path d="M101.18,357.95c0.59,0,1.2-0.15,1.75-0.47l13.42-7.75c1.67-0.97,2.25-3.11,1.28-4.78c-0.97-1.67-3.11-2.25-4.78-1.28   l-13.42,7.75c-1.67,0.97-2.25,3.11-1.28,4.78C98.79,357.32,99.97,357.95,101.18,357.95z"/><path d="M345.4,344.95c-0.97,1.67-0.39,3.81,1.28,4.78l13.42,7.75c0.55,0.32,1.15,0.47,1.75,0.47c1.21,0,2.39-0.63,3.03-1.75   c0.97-1.67,0.39-3.81-1.28-4.78l-13.42-7.75C348.5,342.7,346.36,343.27,345.4,344.95z"/><path d="M116.34,208.66l-13.42-7.75c-1.67-0.97-3.81-0.39-4.78,1.28c-0.97,1.67-0.39,3.81,1.28,4.78l13.42,7.75   c0.55,0.32,1.15,0.47,1.75,0.47c1.21,0,2.39-0.63,3.03-1.75C118.59,211.77,118.02,209.63,116.34,208.66z"/><path d="M165.76,393.08c-1.67-0.97-3.81-0.39-4.78,1.28l-7.75,13.42c-0.97,1.67-0.39,3.81,1.28,4.78c0.55,0.32,1.15,0.47,1.75,0.47   c1.21,0,2.39-0.63,3.03-1.75l7.75-13.42C168.01,396.19,167.43,394.05,165.76,393.08z"/></g><text x="0" y="527" fill="#000000" font-size="5px" font-weight="bold" font-family="'Helvetica Neue', Helvetica, Arial-Unicode, Arial, Sans-serif">Created by iconfield</text><text x="0" y="532" fill="#000000" font-size="5px" font-weight="bold" font-family="'Helvetica Neue', Helvetica, Arial-Unicode, Arial, Sans-serif">from the Noun Project</text></svg>