<svg xmlns="http://www.w3.org/2000/svg" xmlns:xlink="http://www.w3.org/1999/xlink" version="1.1" x="0px" y="0px" viewBox="0 0 100 125" style="enable-background:new 0 0 100 100;" xml:space="preserve"><path d="M89,12c0.5527344,0,1-0.4477539,1-1s-0.4472656-1-1-1H11c-0.5527344,0-1,0.4477539-1,1s0.4472656,1,1,1h17.6386719  v6.1669922H10.9990234c-0.5527344,0-1,0.4477539-1,1V89c0,0.5522461,0.4472656,1,1,1H89c0.5527344,0,1-0.4477539,1-1V19.1669922  c0-0.5522461-0.4472656-1-1-1H72.1386719V12H89z M88,88H11.9990234V20.1669922H88V88z M70.1386719,18.1669922h-39.5V12h39.5  V18.1669922z"/><path d="M50,39.5883789c-7.90625,0-14.3378906,6.4648438-14.3378906,14.4116211  c0,7.9462891,6.4316406,14.4111328,14.3378906,14.4111328S64.3378906,61.9462891,64.3378906,54  C64.3378906,46.0532227,57.90625,39.5883789,50,39.5883789z M50,66.4111328  c-6.8027344,0-12.3378906-5.5673828-12.3378906-12.4111328S43.1972656,41.5883789,50,41.5883789S62.3378906,47.15625,62.3378906,54  S56.8027344,66.4111328,50,66.4111328z"/><path d="M50,35.1855469c0.5527344,0,1-0.4477539,1-1V28.921875c0-0.5522461-0.4472656-1-1-1s-1,0.4477539-1,1v5.2636719  C49,34.737793,49.4472656,35.1855469,50,35.1855469z"/><path d="M39.2265625,37.340332c0.1855469,0.3208008,0.5214844,0.5,0.8671875,0.5  c0.1699219,0,0.3417969-0.0429688,0.4990234-0.1337891c0.4785156-0.2763672,0.6425781-0.8876953,0.3662109-1.3662109  l-2.6318359-4.5585938c-0.2773438-0.4785156-0.8896484-0.6416016-1.3662109-0.3662109  c-0.4785156,0.2763672-0.6425781,0.8876953-0.3662109,1.3662109L39.2265625,37.340332z"/><path d="M33.3398438,43.2265625L28.78125,40.5947266c-0.4775391-0.2758789-1.0898438-0.1123047-1.3662109,0.3662109  s-0.1123047,1.0898438,0.3662109,1.3662109l4.5585938,2.6318359c0.1572266,0.0908203,0.3291016,0.1337891,0.4990234,0.1337891  c0.3457031,0,0.6816406-0.1791992,0.8671875-0.5C33.9824219,44.1142578,33.8183594,43.5029297,33.3398438,43.2265625z"/><path d="M31.1855469,54c0-0.5522461-0.4472656-1-1-1H24.921875c-0.5527344,0-1,0.4477539-1,1s0.4472656,1,1,1h5.2636719  C30.7382812,55,31.1855469,54.5522461,31.1855469,54z"/><path d="M32.3398438,63.0410156L27.78125,65.6728516c-0.4785156,0.2763672-0.6425781,0.8876953-0.3662109,1.3662109  c0.1855469,0.3208008,0.5214844,0.5,0.8671875,0.5c0.1699219,0,0.3417969-0.0429688,0.4990234-0.1337891l4.5585938-2.6318359  c0.4785156-0.2763672,0.6425781-0.8876953,0.3662109-1.3662109C33.4287109,62.9282227,32.8164062,62.7651367,32.3398438,63.0410156z  "/><path d="M40.5927734,70.293457c-0.4775391-0.2758789-1.0898438-0.1132812-1.3662109,0.3662109l-2.6318359,4.5585938  c-0.2763672,0.4785156-0.1123047,1.0898438,0.3662109,1.3662109c0.1572266,0.0908203,0.3291016,0.1337891,0.4990234,0.1337891  c0.3457031,0,0.6816406-0.1791992,0.8671875-0.5l2.6318359-4.5585938  C41.2353516,71.1811523,41.0712891,70.5698242,40.5927734,70.293457z"/><path d="M50,72.8144531c-0.5527344,0-1,0.4477539-1,1v5.2636719c0,0.5522461,0.4472656,1,1,1s1-0.4477539,1-1v-5.2636719  C51,73.262207,50.5527344,72.8144531,50,72.8144531z"/><path d="M60.7734375,70.659668c-0.2773438-0.4794922-0.8896484-0.6420898-1.3662109-0.3662109  c-0.4785156,0.2763672-0.6425781,0.8876953-0.3662109,1.3662109l2.6318359,4.5585938  c0.1855469,0.3208008,0.5214844,0.5,0.8671875,0.5c0.1699219,0,0.3417969-0.0429688,0.4990234-0.1337891  c0.4785156-0.2763672,0.6425781-0.8876953,0.3662109-1.3662109L60.7734375,70.659668z"/><path d="M72.21875,65.6728516l-4.5585938-2.6318359c-0.4775391-0.2758789-1.0898438-0.112793-1.3662109,0.3662109  c-0.2763672,0.4785156-0.1123047,1.0898438,0.3662109,1.3662109l4.5585938,2.6318359  c0.1572266,0.0908203,0.3291016,0.1337891,0.4990234,0.1337891c0.3457031,0,0.6816406-0.1791992,0.8671875-0.5  C72.8613281,66.5605469,72.6972656,65.9492188,72.21875,65.6728516z"/><path d="M68.8144531,54c0,0.5522461,0.4472656,1,1,1h5.2636719c0.5527344,0,1-0.4477539,1-1s-0.4472656-1-1-1h-5.2636719  C69.2617188,53,68.8144531,53.4477539,68.8144531,54z"/><path d="M66.2939453,44.5927734c0.1855469,0.3208008,0.5214844,0.5,0.8671875,0.5  c0.1699219,0,0.3417969-0.0429688,0.4990234-0.1337891l4.5585938-2.6318359  c0.4785156-0.2763672,0.6425781-0.8876953,0.3662109-1.3662109c-0.2773438-0.4785156-0.890625-0.6420898-1.3662109-0.3662109  l-4.5585938,2.6318359C66.1816406,43.5029297,66.0175781,44.1142578,66.2939453,44.5927734z"/><path d="M59.4072266,37.706543c0.1572266,0.0908203,0.3291016,0.1337891,0.4990234,0.1337891  c0.3457031,0,0.6816406-0.1791992,0.8671875-0.5l2.6318359-4.5585938c0.2763672-0.4785156,0.1123047-1.0898438-0.3662109-1.3662109  c-0.4775391-0.2753906-1.0898438-0.1123047-1.3662109,0.3662109l-2.6318359,4.5585938  C58.7646484,36.8188477,58.9287109,37.4301758,59.4072266,37.706543z"/><text x="0" y="115" fill="#000000" font-size="5px" font-weight="bold" font-family="'Helvetica Neue', Helvetica, Arial-Unicode, Arial, Sans-serif">Created by Made by Made</text><text x="0" y="120" fill="#000000" font-size="5px" font-weight="bold" font-family="'Helvetica Neue', Helvetica, Arial-Unicode, Arial, Sans-serif">from the Noun Project</text></svg>