<svg xmlns="http://www.w3.org/2000/svg" xmlns:xlink="http://www.w3.org/1999/xlink" version="1.1" x="0px" y="0px" viewBox="0 0 100 125" style="enable-background:new 0 0 100 100;" xml:space="preserve"><path style="font-size:medium;font-style:normal;font-variant:normal;font-weight:normal;font-stretch:normal;text-indent:0;text-align:start;text-decoration:none;line-height:normal;letter-spacing:normal;word-spacing:normal;text-transform:none;direction:ltr;block-progression:tb;writing-mode:lr-tb;text-anchor:start;baseline-shift:baseline;opacity:1;color:#FFFFFF;fill:#FFFFFF;fill-opacity:1;stroke:none;stroke-width:0.90638143000000004;marker:none;visibility:visible;display:inline;overflow:visible;enable-background:accumulate;font-family:Sans;-inkscape-font-specification:Sans" d="M94.7896729,67.6574097l-21.5699615-4.6221237c-0.9765625-0.2088737-1.9930267,0.0908775-2.6993866,0.7970543  l-7.8977585,7.8979378c-14.8130226-7.4505234-26.9025612-19.540062-34.3530846-34.3530807l7.8979416-7.8977604  c0.7061157-0.7063599,1.0062904-1.722641,0.7970505-2.6993866L32.3424149,5.2101498  c-0.2909737-1.3575032-1.491003-2.3276498-2.8794422-2.3276498c-4.4641647,0-8.6911201,1.0560577-12.563776,3.1385067  c-3.6316319,1.9528866-6.8122768,4.7850437-9.1980476,8.1900024c-2.3752975,3.3901854-3.9448233,7.3237467-4.5391169,11.3756723  c-0.6343732,4.3257618-0.1868367,8.6361465,1.3298955,12.8117599c4.7198987,12.9931488,12.4074516,25.0538063,22.23176,34.8779945  c9.8243084,9.8241272,21.8848476,17.5116806,34.8779984,22.2317581c2.9493713,1.0715027,5.9655151,1.6093063,9.0073929,1.6093063  c1.2645721-0.0002441,2.5341034-0.0931778,3.8038177-0.2795868c4.0521088-0.5942993,7.985672-2.1638184,11.3756714-4.5391159  c3.4049606-2.3857727,6.2370605-5.5664215,8.1900024-9.1980515c2.082634-3.8726578,3.1386948-8.0997925,3.1386948-12.5639572  C97.1172638,69.1483459,96.1472931,67.9483795,94.7896729,67.6574097z M82.4092865,87.4756699  c-5.5702972,3.9030457-12.4213791,4.8130112-18.7968979,2.4969864c-24.979702-9.074173-44.510746-28.605217-53.5849228-53.584919  c-2.3160257-6.3757-1.4058771-13.2267857,2.4969893-18.796896c3.4706478-4.9535961,8.6972332-8.0400362,14.585741-8.6900291  l3.7600441,17.5469761l-8.2481842,8.2481842c-0.877697,0.8775749-1.1107273,2.2111053-0.5830326,3.3343658  c8.2305069,17.5193062,22.4115143,31.7003136,39.9307632,39.9307594c1.1230774,0.5278778,2.456604,0.2946625,3.3343658-0.5830307  l8.2481842-8.2481842l17.5470352,3.7600479C90.4493179,78.7784348,87.3628769,84.0050201,82.4092865,87.4756699z"/></svg>