<svg xmlns="http://www.w3.org/2000/svg" data-name="Layer 1" viewBox="0 0 95 118.75" x="0px" y="0px"><path d="M77.655,44.445a27.459,27.459,0,0,0-3.418-8.25l2.15-4.222-6.9-6.9L65.27,27.227a27.467,27.467,0,0,0-8.251-3.419l-1.463-4.5H45.8l-1.016,3.13A16.75,16.75,0,1,0,22.721,44.764L19.2,45.908v9.755l4.5,1.462a27.454,27.454,0,0,0,3.418,8.251l-2.15,4.22,6.9,6.9,4.221-2.151a27.446,27.446,0,0,0,8.251,3.421l1.464,4.5h9.754l1.463-4.5a27.486,27.486,0,0,0,8.251-3.42l4.219,2.15,6.9-6.9-2.15-4.22a27.464,27.464,0,0,0,3.419-8.251l4.5-1.462V45.908ZM66.228,64.886a21.174,21.174,0,0,1-3.776,3.307V44.417h3.776Zm.952-22.374H61.5a.952.952,0,0,0-.953.952V69.338q-.744.4-1.522.734V55.046a.952.952,0,0,0-.953-.952h-5.68a.953.953,0,0,0-.953.952V71.771c-.254.009-.5.038-.76.038s-.507-.029-.762-.038V47.933a.953.953,0,0,0-.953-.953h-5.68a.953.953,0,0,0-.953.953V70.072q-.777-.338-1.52-.734V59.424a.953.953,0,0,0-.953-.952H34.176a.952.952,0,0,0-.953.952v3.065a20.9,20.9,0,0,1-3.57-11.7,21.166,21.166,0,0,1,.5-4.555A16.758,16.758,0,0,0,46.329,30.22,21,21,0,0,1,71.7,50.786a20.9,20.9,0,0,1-3.57,11.7V43.464A.952.952,0,0,0,67.18,42.512ZM57.12,70.79a20.9,20.9,0,0,1-3.775.831V56H57.12Zm-9.108.831a20.913,20.913,0,0,1-3.776-.831v-21.9h3.776Zm-9.107-3.427a21.187,21.187,0,0,1-3.777-3.309V60.377h3.777ZM14.8,30.45H16.2a.953.953,0,0,0,0-1.906H14.8A14.855,14.855,0,0,1,28.651,14.688V16.1a.953.953,0,0,0,1.905,0V14.688A14.855,14.855,0,0,1,44.412,28.544H43a.953.953,0,1,0,0,1.906h1.408A14.855,14.855,0,0,1,30.556,44.305V42.9a.953.953,0,1,0-1.905,0v1.408A14.855,14.855,0,0,1,14.8,30.45ZM80.253,54.278,76.027,55.65l-.115.538a25.548,25.548,0,0,1-3.571,8.619l-.3.462,2.019,3.959-4.94,4.939-3.959-2.019-.462.3a25.564,25.564,0,0,1-8.618,3.572l-.539.115L54.171,80.36H47.186l-1.373-4.225-.538-.115a25.537,25.537,0,0,1-8.617-3.572l-.462-.3-3.961,2.018L27.3,69.228l2.019-3.959-.3-.462a25.574,25.574,0,0,1-3.571-8.619l-.115-.538L21.1,54.278V47.293l4.225-1.372.048-.223a16.758,16.758,0,0,0,2.843.491A22.908,22.908,0,1,0,46.3,28.274a16.769,16.769,0,0,0-.472-2.9l1.353-4.166h6.986l1.372,4.226.539.115A25.579,25.579,0,0,1,64.7,29.122l.46.3L69.121,27.4l4.94,4.939L72.042,36.3l.3.462a25.572,25.572,0,0,1,3.571,8.618l.115.538,4.226,1.372ZM29.6,33.149a3.647,3.647,0,0,0,3.51-2.7h3.455a.953.953,0,0,0,0-1.906H33.114a3.645,3.645,0,0,0-2.558-2.558V21.108a.953.953,0,0,0-1.905,0v4.878a3.644,3.644,0,0,0,.953,7.163Zm0-5.4A1.747,1.747,0,1,1,27.856,29.5,1.749,1.749,0,0,1,29.6,27.75Z"/></svg>