<svg xmlns="http://www.w3.org/2000/svg" data-name="Layer 1" viewBox="0 0 100 125" x="0px" y="0px"><title>A</title><path d="M93.638,16.225,54.85,5.047a1.2,1.2,0,0,0-.663,0L15.4,16.225a1.2,1.2,0,0,0-.866,1.151V43.343a53,53,0,0,0,2.329,15.5,2.553,2.553,0,0,0-.959-.188H8.067A2.574,2.574,0,0,0,5.5,61.23V78.355a2.575,2.575,0,0,0,2.571,2.571H15.9a2.565,2.565,0,0,0,1.942-.892,6.159,6.159,0,0,0,4.011,1.441H30.53A52.817,52.817,0,0,0,54.215,94.961a1.2,1.2,0,0,0,.608,0A52.411,52.411,0,0,0,83.74,75.475,53.984,53.984,0,0,0,94.5,43.343V17.376A1.2,1.2,0,0,0,93.638,16.225ZM16.079,78.355a.18.18,0,0,1-.175.175H8.067a.18.18,0,0,1-.175-.175V61.23a.18.18,0,0,1,.175-.175H15.9a.18.18,0,0,1,.175.175Zm2.395-2V61.23a1.678,1.678,0,0,1,.6-1.224L19.085,60a12.808,12.808,0,0,1,1.39-1.109c2.308-1.683,5.8-4.226,4.308-11.489-.277-1.709,0-2.962.774-3.531a2.742,2.742,0,0,1,2.807.072,6.257,6.257,0,0,1,3.141,5.784v8.9a1.2,1.2,0,0,0,1.2,1.2H43.042a2.8,2.8,0,0,1,2.14,1.1,3.025,3.025,0,0,1,.808,1.989L43.618,76.04a3.383,3.383,0,0,1-3.23,3.039H21.857C20.023,79.079,18.474,77.83,18.474,76.352ZM45.681,47.045,35.93,38.8l12.737-.941a1.2,1.2,0,0,0,1.02-.741l4.832-11.823L59.35,37.114a1.2,1.2,0,0,0,1.02.741l12.738.941-9.752,8.249a1.2,1.2,0,0,0-.39,1.2l3.041,12.405L55.149,53.924a1.2,1.2,0,0,0-1.261,0l-7.61,4.713a5.07,5.07,0,0,0-2.473-1.149l2.266-9.244A1.2,1.2,0,0,0,45.681,47.045Zm46.427-3.7a50.933,50.933,0,0,1-37.589,49.22A50.439,50.439,0,0,1,34.027,81.475h6.361a5.716,5.716,0,0,0,5.587-5.009l2.373-13.133a4.568,4.568,0,0,0-.566-2.809l6.737-4.173,12.719,7.878a1.2,1.2,0,0,0,1.794-1.3L65.47,48.394l11.423-9.661a1.2,1.2,0,0,0-.686-2.109l-14.92-1.1-5.66-13.849a1.2,1.2,0,0,0-2.217,0L47.751,35.521l-14.921,1.1a1.2,1.2,0,0,0-.685,2.109l11.423,9.661-2.214,9.033H33.9v-7.7A8.636,8.636,0,0,0,29.448,41.8a5.019,5.019,0,0,0-5.307.133c-.894.655-2.307,2.29-1.718,5.874l.009.048c1.19,5.772-1.128,7.461-3.369,9.095l-.215.157a50.563,50.563,0,0,1-1.919-13.768V18.277L54.519,7.444,92.108,18.277ZM84.975,54.8a1.2,1.2,0,1,1,2.317.608,48.362,48.362,0,0,1-9.619,18.62A47.758,47.758,0,0,1,60.948,86.8a1.184,1.184,0,0,1-.5.108,1.2,1.2,0,0,1-.5-2.287A45.825,45.825,0,0,0,84.975,54.8Zm-28.7,32.589a1.2,1.2,0,0,1-.785,1.5q-.316.1-.634.194a1.2,1.2,0,0,1-.683-2.3q.3-.09.6-.184A1.2,1.2,0,0,1,56.279,87.385Z"/></svg>