<svg xmlns="http://www.w3.org/2000/svg" xmlns:xlink="http://www.w3.org/1999/xlink" version="1.1" x="0px" y="0px" viewBox="0 0 96 120" style="enable-background:new 0 0 96 96;" xml:space="preserve"><style type="text/css">
	.st0{fill-rule:evenodd;clip-rule:evenodd;}
</style><path d="M25.52,52.58c0,12.395,10.084,22.48,22.48,22.48c12.395,0,22.48-10.084,22.48-22.48S60.395,30.1,48,30.1  C35.605,30.1,25.52,40.185,25.52,52.58z M67.637,52.58c0,10.828-8.809,19.637-19.637,19.637c-10.828,0-19.637-8.809-19.637-19.637  S37.172,32.943,48,32.943C58.828,32.943,67.637,41.752,67.637,52.58z M8.616,56.829c0.034,0,0.068-0.001,0.102-0.004  c0.783-0.055,1.373-0.735,1.317-1.518c-0.065-0.921-0.098-1.838-0.098-2.727c0-17.249,11.383-32.125,27.862-36.678  c1.233,4.477,5.338,7.776,10.201,7.776c5.835,0,10.582-4.747,10.582-10.582S53.835,2.514,48,2.514  c-5.823,0-10.562,4.728-10.581,10.547c-8.358,2.237-15.904,7.158-21.352,13.954c-5.786,7.217-8.972,16.296-8.972,25.565  c0,0.955,0.035,1.94,0.105,2.928C7.253,56.257,7.877,56.829,8.616,56.829z M48,5.357c4.267,0,7.739,3.472,7.739,7.739  S52.267,20.835,48,20.835s-7.739-3.472-7.739-7.739S43.733,5.357,48,5.357z M69.348,84.096c-6.31,4.283-13.692,6.547-21.348,6.547  c-10.095,0-19.504-3.861-26.659-10.901c1.882-1.911,3.046-4.532,3.046-7.42c0-5.835-4.747-10.582-10.582-10.582  S3.224,66.487,3.224,72.322c0,5.835,4.747,10.582,10.582,10.582c1.916,0,3.713-0.514,5.265-1.409  c3.603,3.609,7.786,6.478,12.45,8.534c5.204,2.294,10.748,3.456,16.48,3.456c8.228,0,16.162-2.433,22.945-7.037  c0.65-0.441,0.819-1.325,0.378-1.974C70.881,83.824,69.997,83.655,69.348,84.096z M6.067,72.322c0-4.267,3.472-7.739,7.739-7.739  s7.739,3.472,7.739,7.739s-3.472,7.739-7.739,7.739S6.067,76.589,6.067,72.322z M40.964,47.028c0,2.03,0.866,3.862,2.246,5.147  c-4.537,1.885-7.736,6.361-7.736,11.572c0,0.785,0.636,1.421,1.421,1.421h22.21c0.785,0,1.421-0.636,1.421-1.421  c0-5.211-3.199-9.687-7.736-11.572c1.38-1.285,2.246-3.117,2.246-5.147c0-3.88-3.156-7.036-7.036-7.036S40.964,43.148,40.964,47.028  z M57.58,62.326H38.421c0.689-4.668,4.723-8.262,9.579-8.262C52.857,54.064,56.89,57.658,57.58,62.326z M48,42.834  c2.312,0,4.193,1.881,4.193,4.193c0,2.312-1.881,4.193-4.193,4.193c-2.312,0-4.193-1.881-4.193-4.193  C43.807,44.716,45.688,42.834,48,42.834z M87.515,63.182c0.922-3.444,1.39-7.004,1.39-10.601c0-7.822-2.215-15.425-6.406-21.987  c-4.079-6.387-9.831-11.511-16.633-14.819c-0.706-0.343-1.557-0.049-1.9,0.657c-0.343,0.706-0.049,1.557,0.657,1.9  c13.225,6.431,21.44,19.554,21.44,34.249c0,3.222-0.403,6.412-1.197,9.503c-0.854-0.223-1.749-0.342-2.671-0.342  c-5.835,0-10.582,4.747-10.582,10.582c0,5.835,4.747,10.582,10.582,10.582c5.835,0,10.582-4.747,10.582-10.582  C92.776,68.427,90.658,65.018,87.515,63.182z M82.194,80.061c-4.267,0-7.739-3.472-7.739-7.739s3.472-7.739,7.739-7.739  s7.739,3.472,7.739,7.739S86.461,80.061,82.194,80.061z"/></svg>