<svg xmlns="http://www.w3.org/2000/svg" xmlns:xlink="http://www.w3.org/1999/xlink" version="1.1" x="0px" y="0px" viewBox="0 0 512 640" enable-background="new 0 0 512 512" xml:space="preserve"><g><path d="M403.019,119.782c-1.056,0-2.109-0.415-2.895-1.239C335.688,50.98,234.688,37.016,154.508,84.582   c-1.901,1.127-4.354,0.5-5.481-1.399c-1.127-1.9-0.501-4.354,1.399-5.481c39.631-23.511,86.763-33.131,132.712-27.088   c46.641,6.134,90.243,28.297,122.774,62.408c1.525,1.599,1.465,4.131-0.134,5.655C405.005,119.416,404.011,119.782,403.019,119.782   z"/><path d="M444.501,92.756c-1.104,0-2.203-0.455-2.994-1.345C358.535-2.111,218.433-19.255,115.619,51.532   c-1.819,1.252-4.31,0.793-5.563-1.026c-1.253-1.82-0.793-4.311,1.026-5.563c106.137-73.073,250.761-55.381,336.411,41.158   c1.466,1.653,1.315,4.181-0.337,5.647C446.393,92.424,445.445,92.756,444.501,92.756z"/><path d="M396.218,407.018c-1.056,0-2.109-0.415-2.895-1.239c-1.525-1.599-1.465-4.131,0.134-5.655   c67.564-64.435,81.528-165.436,33.959-245.615c-1.127-1.9-0.501-4.354,1.399-5.481c1.9-1.128,4.354-0.5,5.481,1.399   c23.512,39.63,33.133,86.762,27.09,132.712c-6.134,46.641-28.297,90.243-62.408,122.773   C398.204,406.651,397.21,407.018,396.218,407.018z"/><path d="M423.245,448.5c-1.104,0-2.203-0.455-2.994-1.345c-1.466-1.652-1.315-4.181,0.337-5.647   c93.522-82.975,110.667-223.077,39.88-325.89c-1.253-1.82-0.793-4.311,1.026-5.563s4.31-0.793,5.563,1.026   c73.074,106.135,55.379,250.76-41.159,336.412C425.136,448.168,424.188,448.5,423.245,448.5z"/><path d="M255.82,463.149c-8.989,0-17.996-0.583-26.959-1.762c-46.641-6.134-90.243-28.298-122.774-62.409   c-1.525-1.599-1.465-4.131,0.134-5.655s4.13-1.465,5.655,0.134c64.436,67.563,165.437,81.529,245.616,33.961   c1.899-1.128,4.354-0.501,5.481,1.399c1.127,1.9,0.501,4.354-1.399,5.481C329.673,453.224,292.912,463.149,255.82,463.149z"/><path d="M256.304,511.989c-71.112,0-141.584-29.496-191.796-86.09c-1.466-1.653-1.315-4.181,0.337-5.647   c1.653-1.466,4.181-1.314,5.647,0.337c82.973,93.521,223.076,110.666,325.889,39.878c1.82-1.252,4.31-0.793,5.563,1.026   c1.253,1.82,0.793,4.311-1.026,5.563C357.004,497.291,306.493,511.989,256.304,511.989z"/><path d="M81.147,363.533c-1.366,0-2.697-0.7-3.444-1.959c-23.512-39.63-33.133-86.762-27.09-132.712   c6.134-46.641,28.297-90.243,62.408-122.774c1.598-1.525,4.13-1.465,5.655,0.134s1.465,4.131-0.134,5.655   c-67.564,64.436-81.528,165.436-33.959,245.615c1.127,1.9,0.501,4.354-1.399,5.481C82.544,363.353,81.841,363.533,81.147,363.533z"/><path d="M48.241,402.651c-1.272,0-2.522-0.605-3.298-1.732c-73.074-106.135-55.379-250.76,41.159-336.412   c1.653-1.466,4.181-1.314,5.647,0.337c1.466,1.652,1.315,4.181-0.337,5.647c-93.522,82.975-110.667,223.077-39.88,325.89   c1.253,1.82,0.793,4.311-1.026,5.563C49.813,402.422,49.023,402.651,48.241,402.651z"/><path d="M466.844,174.747c-0.62,0-1.24-0.144-1.812-0.434l-83.289-42.302c-1.274-0.647-2.106-1.925-2.183-3.352   s0.614-2.787,1.812-3.566l19.461-12.67c1.853-1.206,4.33-0.681,5.535,1.169c1.206,1.852,0.682,4.33-1.169,5.535l-13.654,8.889   l70.934,36.027l-4.265-79.443l-11.53,7.507c-1.852,1.206-4.33,0.683-5.535-1.169c-1.206-1.852-0.682-4.33,1.169-5.535   l17.336-11.287c1.198-0.78,2.722-0.86,3.994-0.214c1.274,0.647,2.106,1.925,2.183,3.352l5.008,93.278   c0.077,1.427-0.614,2.786-1.811,3.566C468.366,174.529,467.606,174.747,466.844,174.747z"/><path d="M341.255,470.843c-1.348,0-2.611-0.68-3.352-1.817c-0.78-1.198-0.861-2.72-0.214-3.994l42.298-83.288   c0.647-1.274,1.925-2.106,3.352-2.183c1.424-0.075,2.787,0.614,3.566,1.812l12.673,19.461c1.206,1.851,0.682,4.329-1.169,5.535   c-1.852,1.205-4.329,0.682-5.535-1.169l-8.892-13.655l-36.024,70.934l79.44-4.265l-7.508-11.529   c-1.206-1.851-0.682-4.329,1.169-5.535c1.851-1.206,4.328-0.682,5.535,1.169l11.288,17.334c0.78,1.197,0.861,2.72,0.214,3.994   c-0.647,1.274-1.925,2.106-3.352,2.183l-93.276,5.008C341.398,470.841,341.326,470.843,341.255,470.843z"/><path d="M50.164,438.531c-0.62,0-1.24-0.144-1.812-0.434c-1.274-0.647-2.106-1.925-2.183-3.352l-5.007-93.278   c-0.077-1.427,0.614-2.787,1.812-3.566c1.197-0.779,2.719-0.862,3.994-0.214l83.288,42.302c1.274,0.647,2.106,1.925,2.183,3.352   c0.077,1.427-0.614,2.787-1.812,3.566l-19.461,12.67c-1.852,1.207-4.33,0.682-5.535-1.169c-1.206-1.852-0.682-4.33,1.169-5.535   l13.654-8.889l-70.933-36.027l4.264,79.443l11.53-7.507c1.853-1.205,4.33-0.682,5.535,1.169c1.206,1.852,0.682,4.33-1.169,5.535   l-17.336,11.287C51.686,438.313,50.926,438.531,50.164,438.531z"/><path d="M128.446,132.445c-1.348,0-2.611-0.68-3.352-1.817l-12.673-19.461c-1.206-1.851-0.682-4.329,1.169-5.535   c1.852-1.206,4.329-0.683,5.535,1.169l8.892,13.655l36.024-70.935l-79.44,4.266l7.508,11.529c1.206,1.851,0.682,4.329-1.169,5.535   c-1.852,1.204-4.329,0.682-5.535-1.169L74.117,52.348c-0.78-1.197-0.861-2.72-0.214-3.994c0.647-1.274,1.925-2.106,3.352-2.183   l93.276-5.009c1.431-0.076,2.786,0.614,3.566,1.811c0.78,1.198,0.861,2.72,0.214,3.994l-42.298,83.289   c-0.647,1.274-1.925,2.106-3.352,2.183C128.589,132.443,128.517,132.445,128.446,132.445z"/><path d="M256,211.635c-0.692,0-1.384-0.179-2.003-0.538c-22.583-13.068-36.612-37.365-36.612-63.408   c0-26.042,14.029-50.339,36.612-63.409c1.239-0.718,2.768-0.718,4.007,0c22.583,13.07,36.612,37.367,36.612,63.409   c0,26.043-14.029,50.34-36.612,63.408C257.384,211.456,256.692,211.635,256,211.635z M256,92.413   c-18.943,11.894-30.616,32.86-30.616,55.276c0,22.417,11.673,43.384,30.616,55.276c18.943-11.893,30.616-32.859,30.616-55.276   C286.616,125.272,274.943,104.306,256,92.413z"/><path d="M287.297,297.89c-0.001,0-0.002,0-0.003,0c-11.462,0-22.913-2.758-33.115-7.974c-1.4-0.716-2.25-2.185-2.174-3.755   c0.081-1.674,0.081-3.46-0.002-5.623c-0.004-0.102-0.004-0.203,0-0.305c0.901-23.614,13.247-45.341,33.025-58.122   c11.735-7.581,25.292-11.588,39.204-11.588c11.461,0,22.912,2.757,33.114,7.973c1.275,0.652,2.104,1.936,2.174,3.366   c1.262,25.771-11.391,50.462-33.021,64.438C314.764,293.883,301.208,297.89,287.297,297.89z M260.064,283.886   c8.499,3.934,17.86,6.004,27.23,6.004c0,0,0.002,0,0.003,0c12.368,0,24.421-3.564,34.861-10.309   c18.584-12.009,29.719-32.913,29.444-54.988c-8.537-3.977-17.95-6.069-27.37-6.069c-12.369,0-24.424,3.564-34.863,10.308   c-17.548,11.339-28.519,30.606-29.366,51.559C260.049,281.648,260.07,282.799,260.064,283.886z"/><path d="M224.707,297.89C224.707,297.89,224.707,297.89,224.707,297.89c-13.914,0-27.47-4.007-39.205-11.589   c-21.632-13.977-34.286-38.668-33.022-64.438c0.07-1.43,0.899-2.714,2.174-3.366c10.203-5.216,21.653-7.973,33.114-7.973   c13.913,0,27.469,4.007,39.203,11.588c19.779,12.78,32.125,34.507,33.025,58.122c0.004,0.102,0.004,0.203,0,0.305   c-0.083,2.181-0.084,3.966-0.002,5.619c0.078,1.572-0.773,3.043-2.174,3.759C247.618,295.133,236.167,297.89,224.707,297.89z    M160.399,224.594c-0.276,22.074,10.858,42.979,29.445,54.988c10.438,6.744,22.493,10.309,34.862,10.309   c9.368,0,18.729-2.07,27.229-6.004c-0.005-1.082,0.016-2.233,0.062-3.496c-0.848-20.954-11.818-40.22-29.367-51.559   c-10.438-6.743-22.493-10.308-34.862-10.308C178.348,218.524,168.936,220.617,160.399,224.594z"/><path d="M256,290.355c-2.132,0-3.89-1.672-3.995-3.802c-0.094-1.892-0.094-3.899-0.002-6.319c0.082-2.148,1.847-3.848,3.997-3.848   l0,0c2.15,0,3.915,1.699,3.997,3.848c0.091,2.398,0.091,4.405-0.002,6.315c-0.103,2.13-1.86,3.805-3.993,3.806   C256.002,290.355,256,290.355,256,290.355z"/><path d="M290.972,408.354c-0.001,0-0.002,0-0.004,0c-12.733,0-25.455-3.064-36.789-8.858c-1.275-0.652-2.104-1.936-2.174-3.366   c-1.404-28.629,12.653-56.06,36.686-71.586c13.036-8.422,28.095-12.873,43.55-12.873c12.732,0,25.454,3.063,36.788,8.857   c1.275,0.652,2.104,1.936,2.174,3.366c1.404,28.629-12.653,56.06-36.684,71.586C321.483,403.902,306.425,408.354,290.972,408.354z    M259.918,393.402c9.671,4.553,20.356,6.951,31.05,6.952h0.004c13.91,0,27.466-4.009,39.206-11.594   c20.988-13.56,33.527-37.202,33.112-62.139c-9.672-4.553-20.356-6.951-31.049-6.951c-13.912,0-27.47,4.009-39.209,11.593   C272.043,344.823,259.504,368.465,259.918,393.402z"/><path d="M221.032,408.354c-15.456,0-30.516-4.452-43.551-12.874c-24.031-15.526-38.088-42.957-36.684-71.586   c0.07-1.43,0.899-2.714,2.174-3.366c11.334-5.794,24.056-8.857,36.788-8.857c15.455,0,30.515,4.451,43.55,12.873   c24.033,15.526,38.09,42.957,36.686,71.586c-0.07,1.43-0.899,2.714-2.174,3.366C246.486,405.291,233.765,408.354,221.032,408.354z    M148.71,326.621c-0.415,24.937,12.125,48.579,33.112,62.139c11.739,7.585,25.297,11.594,39.209,11.594   c10.693,0,21.378-2.398,31.05-6.952c0.415-24.937-12.125-48.579-33.113-62.139c-11.739-7.584-25.298-11.593-39.209-11.593   C169.066,319.67,158.382,322.068,148.71,326.621z"/><path d="M256,428.258c-2.209,0-4-1.791-4-4V207.635c0-2.209,1.791-4,4-4s4,1.791,4,4v216.623   C260,426.467,258.209,428.258,256,428.258z"/><path d="M326.768,370.246c-1.23,0-2.444-0.565-3.228-1.633c-1.308-1.781-0.924-4.284,0.856-5.592   c3.31-2.43,3.162-8.494-0.324-13.241c-1.798-2.449-4.283-4.265-6.817-4.982c-1.279-0.362-3.726-0.752-5.716,0.71   c-1.993,1.462-2.354,3.912-2.391,5.242c-0.075,2.632,0.914,5.546,2.712,7.997c1.308,1.781,0.924,4.284-0.857,5.591   c-1.78,1.309-4.284,0.924-5.591-0.857c-2.874-3.914-4.387-8.516-4.261-12.958c0.135-4.747,2.195-8.925,5.653-11.463   c3.456-2.538,8.059-3.253,12.629-1.959c4.276,1.209,8.214,4.031,11.087,7.945c6.156,8.384,5.533,19.34-1.39,24.423   C328.418,369.994,327.589,370.246,326.768,370.246z"/><path d="M302.372,385.743c-5.592,0-11.574-3.048-15.621-8.558c-6.155-8.383-5.53-19.338,1.392-24.422   c1.782-1.307,4.285-0.924,5.592,0.856c1.308,1.781,0.924,4.284-0.856,5.592c-3.31,2.431-3.163,8.493,0.321,13.239   c3.485,4.746,9.227,6.702,12.538,4.273c3.309-2.43,3.161-8.493-0.325-13.24c-1.307-1.781-0.923-4.284,0.857-5.592   c1.783-1.307,4.285-0.922,5.592,0.857c6.155,8.385,5.532,19.341-1.39,24.423C308.099,384.913,305.288,385.743,302.372,385.743z"/><path d="M327.3,351.414c-1.23,0-2.444-0.565-3.228-1.633c-1.308-1.781-0.924-4.284,0.857-5.591l7.964-5.847   c1.782-1.309,4.285-0.924,5.591,0.857c1.308,1.781,0.924,4.284-0.857,5.591l-7.964,5.847   C328.951,351.162,328.122,351.414,327.3,351.414z"/><path d="M282.017,384.665c-1.23,0-2.443-0.565-3.228-1.633c-1.308-1.78-0.924-4.284,0.856-5.592l7.962-5.848   c1.781-1.308,4.284-0.924,5.592,0.856c1.308,1.78,0.924,4.284-0.856,5.592l-7.962,5.848   C283.667,384.412,282.838,384.665,282.017,384.665z"/><path d="M209.749,385.661c-2.845,0-5.591-0.795-7.932-2.467c-1.798-1.284-2.214-3.782-0.93-5.58c1.283-1.799,3.782-2.215,5.58-0.93   c3.341,2.384,9.057,0.355,12.48-4.437c1.767-2.473,2.718-5.4,2.608-8.031c-0.055-1.33-0.447-3.774-2.458-5.21   c-2.011-1.436-4.452-1.016-5.727-0.637c-2.524,0.75-4.985,2.598-6.751,5.07c-1.285,1.796-3.783,2.213-5.58,0.93   c-1.797-1.284-2.214-3.783-0.93-5.58c2.823-3.951,6.724-6.824,10.984-8.089c4.553-1.354,9.164-0.697,12.654,1.796   c3.49,2.493,5.604,6.644,5.801,11.389c0.184,4.44-1.269,9.062-4.092,13.012C221.436,382.526,215.398,385.661,209.749,385.661z"/><path d="M190.992,372.222c-2.933,0-5.715-0.845-8.012-2.485c-6.988-4.993-7.753-15.941-1.708-24.405   c6.048-8.461,16.651-11.284,23.638-6.292c1.797,1.284,2.214,3.782,0.93,5.58c-1.284,1.797-3.782,2.214-5.58,0.93   c-3.34-2.387-9.055-0.355-12.479,4.434c-3.423,4.792-3.492,10.857-0.151,13.245c2.01,1.437,4.451,1.015,5.727,0.635   c2.524-0.75,4.986-2.599,6.752-5.072c1.284-1.798,3.782-2.215,5.58-0.93c1.797,1.284,2.214,3.783,0.93,5.58   c-2.823,3.951-6.723,6.824-10.983,8.09C194.079,371.994,192.515,372.222,190.992,372.222z"/><path d="M230.237,384.317c-0.805,0-1.617-0.242-2.322-0.746l-8.039-5.744c-1.798-1.285-2.214-3.783-0.93-5.58   c1.284-1.797,3.782-2.215,5.58-0.93l8.039,5.744c1.798,1.285,2.214,3.783,0.93,5.58   C232.715,383.735,231.485,384.317,230.237,384.317z"/><path d="M184.523,351.657c-0.805,0-1.617-0.242-2.321-0.746l-8.039-5.742c-1.798-1.284-2.214-3.782-0.93-5.58   c1.284-1.798,3.782-2.215,5.58-0.93l8.039,5.742c1.798,1.284,2.214,3.782,0.93,5.58   C187.001,351.075,185.771,351.657,184.523,351.657z"/><path d="M323.275,263.338c-1.23,0-2.443-0.565-3.228-1.633c-1.308-1.781-0.924-4.284,0.856-5.592   c3.31-2.431,3.162-8.495-0.324-13.242c-3.484-4.745-9.225-6.703-12.533-4.271c-3.31,2.431-3.163,8.493,0.321,13.239   c1.308,1.781,0.924,4.284-0.857,5.591c-1.781,1.309-4.284,0.924-5.591-0.857c-6.155-8.383-5.53-19.338,1.392-24.421   c6.922-5.082,17.562-2.398,23.717,5.984c6.155,8.385,5.532,19.341-1.39,24.425C324.926,263.085,324.097,263.338,323.275,263.338z"/><path d="M298.879,278.835c-5.591,0-11.574-3.049-15.62-8.56c-6.155-8.383-5.53-19.338,1.392-24.421   c1.782-1.307,4.285-0.924,5.592,0.856c1.308,1.781,0.924,4.284-0.856,5.592c-3.31,2.431-3.163,8.493,0.321,13.239   c3.485,4.747,9.225,6.702,12.537,4.273c1.991-1.462,2.352-3.912,2.389-5.242c0.074-2.633-0.915-5.548-2.713-7.999   c-1.308-1.781-0.924-4.284,0.857-5.591c1.781-1.309,4.285-0.923,5.591,0.857c2.874,3.914,4.387,8.516,4.262,12.958   c-0.134,4.748-2.194,8.927-5.651,11.465C304.606,278.005,301.796,278.835,298.879,278.835z"/><path d="M323.809,244.505c-1.23,0-2.444-0.566-3.228-1.633c-1.307-1.781-0.923-4.284,0.857-5.592l7.963-5.846   c1.783-1.307,4.284-0.921,5.592,0.857c1.307,1.781,0.923,4.284-0.857,5.592l-7.963,5.846   C325.459,244.252,324.63,244.505,323.809,244.505z"/><path d="M278.524,277.756c-1.23,0-2.443-0.565-3.228-1.633c-1.308-1.78-0.924-4.284,0.856-5.592l7.962-5.848   c1.781-1.308,4.284-0.924,5.592,0.856c1.308,1.78,0.924,4.284-0.856,5.592l-7.962,5.848   C280.175,277.503,279.346,277.756,278.524,277.756z"/><path d="M194.416,265.261c-2.859,0-5.618-0.801-7.965-2.487c-3.484-2.502-5.587-6.658-5.772-11.403   c-0.173-4.44,1.292-9.058,4.124-13.001c2.833-3.944,6.741-6.808,11.005-8.063c4.557-1.339,9.167-0.675,12.65,1.828   c1.794,1.289,2.204,3.788,0.915,5.582c-1.289,1.794-3.787,2.205-5.582,0.915c-2.006-1.44-4.448-1.025-5.724-0.65   c-2.527,0.744-4.993,2.586-6.766,5.055c-1.772,2.468-2.73,5.393-2.628,8.023c0.052,1.33,0.438,3.775,2.444,5.216   c3.338,2.397,9.055,0.378,12.49-4.403c1.289-1.794,3.788-2.205,5.582-0.915c1.794,1.289,2.204,3.788,0.915,5.582   C206.079,262.144,200.052,265.261,194.416,265.261z"/><path d="M213.3,278.786c-2.947,0-5.744-0.853-8.047-2.507c-1.794-1.289-2.204-3.789-0.915-5.583   c1.289-1.793,3.788-2.204,5.583-0.915c2.008,1.442,4.449,1.027,5.725,0.652c2.526-0.744,4.992-2.585,6.764-5.053   c3.436-4.783,3.52-10.849,0.185-13.245c-2.006-1.44-4.447-1.026-5.724-0.65c-2.527,0.744-4.993,2.586-6.767,5.055   c-1.289,1.793-3.788,2.204-5.583,0.915c-1.794-1.289-2.204-3.788-0.915-5.583c2.833-3.943,6.741-6.806,11.004-8.062   c4.556-1.34,9.167-0.675,12.651,1.827c6.975,5.01,7.713,15.96,1.646,24.408c-2.833,3.944-6.741,6.807-11.004,8.061   C216.36,278.562,214.81,278.786,213.3,278.786z"/><path d="M188.048,244.703c-0.808,0-1.624-0.244-2.33-0.752l-8.024-5.764c-1.794-1.289-2.204-3.788-0.915-5.582   c1.289-1.794,3.788-2.205,5.582-0.915l8.024,5.764c1.794,1.289,2.204,3.788,0.915,5.582   C190.519,244.124,189.292,244.703,188.048,244.703z"/><path d="M233.679,277.476c-0.808,0-1.624-0.244-2.33-0.751l-8.024-5.762c-1.794-1.289-2.205-3.788-0.916-5.582   c1.289-1.794,3.789-2.205,5.582-0.916l8.024,5.762c1.794,1.289,2.205,3.788,0.916,5.582   C236.15,276.897,234.924,277.476,233.679,277.476z"/><path d="M255.999,151.688c-9.609,0-17.426-6.485-17.426-14.457s7.817-14.457,17.426-14.457c9.61,0,17.428,6.485,17.428,14.457   c0,2.209-1.791,4-4,4s-4-1.791-4-4c0-3.5-4.317-6.457-9.428-6.457c-5.109,0-9.426,2.957-9.426,6.457s4.317,6.457,9.426,6.457   c2.209,0,4,1.791,4,4S258.208,151.688,255.999,151.688z"/><path d="M255.999,172.604c-9.609,0-17.426-6.486-17.426-14.458c0-2.209,1.791-4,4-4s4,1.791,4,4c0,3.5,4.317,6.458,9.426,6.458   c5.111,0,9.428-2.957,9.428-6.458s-4.317-6.458-9.428-6.458c-2.209,0-4-1.791-4-4s1.791-4,4-4c9.61,0,17.428,6.486,17.428,14.458   C273.427,166.118,265.609,172.604,255.999,172.604z"/><path d="M255.999,130.774c-2.209,0-4-1.791-4-4v-8.926c0-2.209,1.791-4,4-4s4,1.791,4,4v8.926   C259.999,128.983,258.208,130.774,255.999,130.774z"/><path d="M255.999,181.529c-2.209,0-4-1.791-4-4v-8.926c0-2.209,1.791-4,4-4s4,1.791,4,4v8.926   C259.999,179.738,258.208,181.529,255.999,181.529z"/></g></svg>