<svg xmlns="http://www.w3.org/2000/svg" xmlns:xlink="http://www.w3.org/1999/xlink" version="1.1" x="0px" y="0px" viewBox="0 0 70 87.5" style="enable-background:new 0 0 70 70;" xml:space="preserve"><path d="M65.5595703,22.0800781h-1.8544922V11.0966797c0-2.0478516-1.6640625-3.7138672-3.7089844-3.7138672h-1.6259766V3  c0-0.5527344-0.4472656-1-1-1s-1,0.4472656-1,1v4.3828125H47.453125V3.7509766c0-0.5527344-0.4472656-1-1-1s-1,0.4472656-1,1  v3.6318359h-8.9160156V3c0-0.5527344-0.4472656-1-1-1s-1,0.4472656-1,1v4.3828125h-21.5H6.953125H5.7089844  C3.6640625,7.3828125,2,9.0488281,2,11.0966797v27.578125c0,2.0478516,1.6640625,3.7138672,3.7089844,3.7138672h2.3095703v2.4130859  c0,1.4700928,1.0618286,2.690918,2.4570312,2.947998v4.833252H5.7080078C3.6630859,52.5830078,2,54.2480469,2,56.2949219V67  c0,0.5527344,0.4472656,1,1,1h64c0.5527344,0,1-0.4472656,1-1V56.2949219c0-2.046875-1.6630859-3.7119141-3.7080078-3.7119141  h-0.5869141V36.4326172h1.8544922C66.9052734,36.4326172,68,35.3369141,68,33.9902344v-9.4677734  C68,23.1757812,66.9052734,22.0800781,65.5595703,22.0800781z M12.0371094,9.3828125v15.4082031  c0,1.1279297-0.9160156,2.0458984-2.0419922,2.0458984S7.953125,25.9189453,7.953125,24.7910156V9.3828125H12.0371094z   M4,38.6748047v-6.4570312h15.703125v6.4570312c0,0.9453125-0.7666016,1.7138672-1.7089844,1.7138672h-4.0615234H9.0185547  H5.7089844C4.7666016,40.3886719,4,39.6201172,4,38.6748047z M10.0185547,44.8017578v-2.4130859h2.9140625v2.4130859  c0,0.5527344-0.4482422,1.0029297-1,1.0029297h-0.9140625C10.4667969,45.8046875,10.0185547,45.3544922,10.0185547,44.8017578z   M12.4755859,47.7497559c1.3952026-0.2570801,2.4570312-1.4779053,2.4570312-2.947998v-2.4130859h3.0615234  c2.0449219,0,3.7089844-1.6660156,3.7089844-3.7138672V28.5869141h19.6679688v23.9960938H12.4755859V47.7497559z M4,66v-6.1962891  h62V66H4z M64.2919922,54.5830078C65.2333984,54.5830078,66,55.3505859,66,56.2949219v1.5087891H4v-1.5087891  c0-0.9443359,0.7666016-1.7119141,1.7080078-1.7119141h36.6630859c0.5527344,0,1-0.4472656,1-1V27.5869141  c0-0.5527344-0.4472656-1-1-1H20.703125c-0.5527344,0-1,0.4472656-1,1v2.6308594H4V11.0966797  c0-0.9453125,0.7666016-1.7138672,1.7089844-1.7138672H5.953125v15.4082031c0,2.2304688,1.8134766,4.0458984,4.0419922,4.0458984  s4.0419922-1.8154297,4.0419922-4.0458984V9.3828125h45.9589844c0.9423828,0,1.7089844,0.7685547,1.7089844,1.7138672v11.9833984  v12.3525391v18.1503906c0,0.5527344,0.4472656,1,1,1H64.2919922z M66,33.9902344  c0,0.2441406-0.1972656,0.4423828-0.4404297,0.4423828h-1.8544922V24.0800781h1.8544922  C65.8027344,24.0800781,66,24.2783203,66,24.5224609V33.9902344z"/><path d="M52.7451172,28.2558594c-3.1181641,0-4.75,6.234375-4.75,12.3935547s1.6318359,12.3935547,4.75,12.3935547  s4.75-6.234375,4.75-12.3935547S55.8632812,28.2558594,52.7451172,28.2558594z M52.7451172,51.0429688  c-0.9697266,0-2.75-3.9462891-2.75-10.3935547s1.7802734-10.3935547,2.75-10.3935547s2.75,3.9462891,2.75,10.3935547  S53.7148438,51.0429688,52.7451172,51.0429688z"/><path d="M54.4951172,13.0683594c0-0.5527344-0.4472656-1-1-1h-35.125c-0.5527344,0-1,0.4472656-1,1s0.4472656,1,1,1h35.125  C54.0478516,14.0683594,54.4951172,13.6210938,54.4951172,13.0683594z"/><path d="M57.3701172,21.2978516h-35.125c-0.5527344,0-1,0.4472656-1,1s0.4472656,1,1,1h35.125c0.5527344,0,1-0.4472656,1-1  S57.9228516,21.2978516,57.3701172,21.2978516z"/><path d="M51.7451172,38.9648438v3.3691406c0,0.5527344,0.4472656,1,1,1s1-0.4472656,1-1v-3.3691406c0-0.5527344-0.4472656-1-1-1  S51.7451172,38.4121094,51.7451172,38.9648438z"/></svg>