<svg xmlns="http://www.w3.org/2000/svg" viewBox="0 0 666.71 181"><defs><style>.cls-1{fill:#bf0000;}.cls-2{fill:none;stroke:#bf0000;stroke-miterlimit:10;stroke-width:2px;}</style></defs><g id="Layer_2" data-name="Layer 2"><g id="Layer_1-2" data-name="Layer 1"><path class="cls-1" d="M649.71,157.83h6.55c3,0,6.62,0,8.7,2.95,1.68,2.35,2,5.45,1.58,8.56a13.66,13.66,0,0,1-5.08,9.28c-2.49,1.85-5.29,1.85-8.61,1.85h-6.36ZM650,177.9h3.07c2.16,0,4.44-.13,6.1-1.26,3.2-2.16,3.82-5.86,4-7.18.12-.84.61-4.7-1.19-7.05-1.21-1.6-3-2-5.74-2h-3.76Z"/><path class="cls-1" d="M613.85,157.83h14.21l-.45,2.66H616.54l-1.2,7.06h10.54l-.45,2.63H614.89l-1.28,7.53h11.32l-.46,2.76H610Z"/><path class="cls-1" d="M579.78,180.47l1.3-20h-7.59l.18-2.66H592l-.18,2.66h-7.59l-1.3,20Z"/><path class="cls-1" d="M545.51,157.83h3.35l7.77,22.64h-3.42l-2.08-5.9H540.62l-2.81,5.9h-3.23ZM541.78,172h8.56l-3.49-11.1Z"/><path class="cls-1" d="M500.78,157.83h8.09c1.16,0,3.54,0,5.13,1.07a4.91,4.91,0,0,1,2.17,4.6,6,6,0,0,1-1.89,4,6.14,6.14,0,0,1-2.77,1.47c2.12.57,3,1.54,3.14,4.36a29.42,29.42,0,0,0,.89,7.12h-3.35a37.84,37.84,0,0,1-.61-6c-.13-3.29-.85-4.23-4.64-4.23H503l-.74,10.22h-3.11Zm2.34,9.75h4.95a7.64,7.64,0,0,0,3-.5,3.52,3.52,0,0,0,1.74-3c.27-3.67-3-3.67-4.25-3.67h-4.95Z"/><path class="cls-1" d="M465,157.83h14.2l-.26,2.66H467.85l-.7,7.06h10.53l-.26,2.63H466.89l-.75,7.53h11.32l-.27,2.76H462.73Z"/><path class="cls-1" d="M430.39,157.83h3.11l-1.32,19.85h10.53l-.18,2.79H428.89Z"/><path class="cls-1" d="M393.76,157.83H408l-.18,2.66H396.72l-.47,7.06h10.54l-.18,2.63H396.08l-.5,7.53H406.9l-.19,2.76H392.26Z"/><path class="cls-1" d="M368.42,163.94c-.13-.78-.53-3.92-4.89-3.92-5.46,0-6.43,5.59-6.43,9.35,0,4.26,1.22,8.87,6.4,8.87a4.9,4.9,0,0,0,3.67-1.35,4.42,4.42,0,0,0,1.09-2.38h3.45c-.47,4.45-4.58,6.3-8.46,6.3-8,0-9.51-7-9.51-11.41,0-4.77,1.85-11.88,9.91-11.88,3.2,0,7.72,1.28,8.12,6.42Z"/><path class="cls-1" d="M330.56,163.94c-.12-.78-.53-3.92-4.89-3.92-5.45,0-6.43,5.59-6.43,9.35,0,4.26,1.23,8.87,6.4,8.87a4.88,4.88,0,0,0,3.67-1.35,4.53,4.53,0,0,0,1.1-2.38h3.45c-.47,4.45-4.58,6.3-8.47,6.3-8,0-9.5-7-9.5-11.41,0-4.77,1.85-11.88,9.91-11.88,3.2,0,7.71,1.28,8.12,6.42Z"/><path class="cls-1" d="M285,157.83h3.35l9.16,22.64h-3.42l-2.45-5.9h-10.5l-2.45,5.9h-3.23ZM282.17,172h8.56l-4.17-11.1Z"/><path class="cls-1" d="M15.93,163.47c-.35-2.1-2-3.54-5.11-3.54a6.51,6.51,0,0,0-5.11,1.91,10.87,10.87,0,0,0-2.42,7.28c0,1.91.41,5.14,2.07,7.12,1.48,1.69,3.76,2.22,6,2.22a16,16,0,0,0,4.93-.72V171H11.13v-2.6h8.31v11.16A24.74,24.74,0,0,1,11.38,181c-4.17,0-6.61-1.19-8.21-2.82A12.1,12.1,0,0,1,0,169.53c0-2.26.56-7.59,4.86-10.48a11.81,11.81,0,0,1,6.3-1.6,8.92,8.92,0,0,1,6.68,2.42,5.19,5.19,0,0,1,1.51,3.6Z"/><path class="cls-1" d="M41.87,157.83H50c1.16,0,3.54,0,5.21,1.07a5.3,5.3,0,0,1,2.5,4.6A5.48,5.48,0,0,1,53.41,169c2.16.57,3.13,1.54,3.45,4.36a29.86,29.86,0,0,0,1.41,7.12H54.91a39.57,39.57,0,0,1-1-6c-.38-3.29-1.16-4.23-5-4.23H45v10.22h-3.1Zm3,9.75h5a7.3,7.3,0,0,0,3-.5,3.22,3.22,0,0,0,1.54-3c0-3.67-3.26-3.67-4.51-3.67h-5Z"/><path class="cls-1" d="M81.79,160.28a10.12,10.12,0,0,1,7.56-3.05c6.27,0,10.22,4,10.22,11.7,0,6-2.41,12.07-10.47,12.07-7.71,0-10.22-5.49-10.22-11.69C78.88,166.73,79.32,162.94,81.79,160.28Zm2.39,16a6.18,6.18,0,0,0,5,2.07,6.28,6.28,0,0,0,5-2.07c1.85-2.26,2-5.84,2-7.37,0-5.14-1.69-9-6.87-9-5.74,0-7.21,4.61-7.21,9.25C82.17,171.59,82.61,174.32,84.18,176.27Z"/><path class="cls-1" d="M120.72,157.83l4.89,18.62L131,157.83h3.89L140,176.61l5.14-18.78h3.08l-6.71,22.64H138l-5.24-19.35-5.61,19.35h-3.39l-6.43-22.64Z"/><path class="cls-1" d="M173.66,180.47v-20h-7.59v-2.66h18.28v2.66h-7.59v20Z"/><path class="cls-1" d="M207.4,157.83v9.72h10.76v-9.72h3.13v22.64h-3.13V170.25H207.4v10.22h-3.13V157.83Z"/><line class="cls-2" x1="3.06" y1="134.66" x2="660.95" y2="134.66"/><path class="cls-1" d="M8.39,2.62H58q10.32,0,17.55,3A32.85,32.85,0,0,1,87.3,13.55a30.31,30.31,0,0,1,6.62,11.32,42,42,0,0,1,0,26.1A30.39,30.39,0,0,1,87.3,62.21a32.85,32.85,0,0,1-11.78,7.93q-7.23,3-17.55,3H32.56v39.42H8.39ZM32.56,54.35H51.35a50.8,50.8,0,0,0,8-.61,18.65,18.65,0,0,0,6.77-2.39,13,13,0,0,0,4.7-5,17.61,17.61,0,0,0,1.77-8.47,17.61,17.61,0,0,0-1.77-8.47,13,13,0,0,0-4.7-5A18.65,18.65,0,0,0,59.36,22a50.78,50.78,0,0,0-8-.62H32.56Z"/><path class="cls-1" d="M172.68,71.91h.93l28.48,40.8H174.84L147.12,73.14H135.27v39.57H111.09V2.62h49.43a46.46,46.46,0,0,1,17.63,3,33.59,33.59,0,0,1,11.93,7.93,30,30,0,0,1,6.7,11.32,41.7,41.7,0,0,1,2.08,13,40.69,40.69,0,0,1-1.54,11A34.15,34.15,0,0,1,192.62,59a30.79,30.79,0,0,1-8.08,8A33.65,33.65,0,0,1,172.68,71.91ZM154.05,21.4H135.27V54.51h18.78a51.69,51.69,0,0,0,8.16-.62,17.13,17.13,0,0,0,6.7-2.46,13.25,13.25,0,0,0,4.54-5.08,18.26,18.26,0,0,0,1.7-8.47,18.62,18.62,0,0,0-1.7-8.62,12.63,12.63,0,0,0-4.54-5,17,17,0,0,0-6.7-2.31A58.74,58.74,0,0,0,154.05,21.4Z"/><path class="cls-1" d="M242.9,92.08h62V112.4H219.49V2.16h80.22V22.48H242.9V47.27h50.19v21.4H242.9Z"/><path class="cls-1" d="M421.2,83.15a57.66,57.66,0,0,1-8.62,12.09,55.81,55.81,0,0,1-11.4,9.39,54.64,54.64,0,0,1-13.78,6.08,55.43,55.43,0,0,1-15.47,2.16,54.24,54.24,0,0,1-21.71-4.39,55.87,55.87,0,0,1-29.64-29.64,54.11,54.11,0,0,1-4.39-21.71,53.71,53.71,0,0,1,4.39-21.56,57.28,57.28,0,0,1,11.93-17.79,55.78,55.78,0,0,1,17.71-12A56,56,0,0,1,387,3.46a55.59,55.59,0,0,1,13.47,5.86,54.08,54.08,0,0,1,11.24,9,56.83,56.83,0,0,1,8.55,11.55q-3.54,1.85-5.7,3c-1.44.77-2.82,1.49-4.16,2.16L406,37.26c-1.65.83-3.75,1.85-6.32,3.08a30.93,30.93,0,0,0-11.39-11.47,32.34,32.34,0,0,0-29-1.77,34.64,34.64,0,0,0-10.4,7,31.58,31.58,0,0,0-7,10.39,32.85,32.85,0,0,0,0,25.33,32.77,32.77,0,0,0,17.4,17.4,31.93,31.93,0,0,0,12.7,2.54,31.43,31.43,0,0,0,16.86-4.7,32.49,32.49,0,0,0,11.78-12.39l6.23,3.23q2.4,1.23,4.39,2.31c1.34.72,2.72,1.44,4.16,2.16S418.74,82,421.2,83.15Z"/><path class="cls-1" d="M436.14,2.62h24.17V112.56H436.14Z"/><path class="cls-1" d="M498,76.07a20.11,20.11,0,0,0,2,9.39,17.35,17.35,0,0,0,5.31,6.23,22.89,22.89,0,0,0,7.7,3.55,36.45,36.45,0,0,0,9.32,1.15,48,48,0,0,0,6.92-.54,23.92,23.92,0,0,0,6.93-2.08,15,15,0,0,0,5.39-4.23,10.61,10.61,0,0,0,2.16-6.85,9.65,9.65,0,0,0-2.85-7.24,23.68,23.68,0,0,0-7.47-4.7A63.16,63.16,0,0,0,523,67.52q-5.85-1.3-11.86-3a106,106,0,0,1-12-3.78A41,41,0,0,1,488.64,55a27.31,27.31,0,0,1-7.46-8.78,26.73,26.73,0,0,1-2.85-12.93A28.75,28.75,0,0,1,482,18.55a32.7,32.7,0,0,1,9.47-10.39A41.38,41.38,0,0,1,504.66,2a56.45,56.45,0,0,1,14.78-2A70.1,70.1,0,0,1,536,1.92a41.52,41.52,0,0,1,14.09,6.24,31.59,31.59,0,0,1,9.78,11q3.61,6.7,3.62,16.25H540.07A19.41,19.41,0,0,0,538,27.25a13.61,13.61,0,0,0-4.69-5.08,19.81,19.81,0,0,0-6.78-2.61,41,41,0,0,0-8.16-.77,28.35,28.35,0,0,0-5.85.61,15.56,15.56,0,0,0-5.31,2.16,13,13,0,0,0-3.93,3.92,10.43,10.43,0,0,0-1.54,5.78A9.88,9.88,0,0,0,503,36.49c.82,1.34,2.44,2.54,4.85,3.62a73.55,73.55,0,0,0,10,3.39q6.39,1.77,16.71,4.39c1.33.31,3.08.74,5.23,1.31a55.41,55.41,0,0,1,6.86,2.31,43.92,43.92,0,0,1,7.23,3.77,31.43,31.43,0,0,1,6.62,5.7,26.8,26.8,0,0,1,4.86,8.08,29.56,29.56,0,0,1,1.84,10.86,33.58,33.58,0,0,1-2.92,14,30.42,30.42,0,0,1-8.7,11.16,42.83,42.83,0,0,1-14.32,7.39,65.82,65.82,0,0,1-19.79,2.7,67.26,67.26,0,0,1-17.63-2.31,44.41,44.41,0,0,1-15-7.09,34.59,34.59,0,0,1-14.17-29.71Z"/><path class="cls-1" d="M602.12,92.08h62.06V112.4H578.72V2.16h80.22V22.48H602.12V47.27h50.2v21.4h-50.2Z"/><path class="cls-1" d="M385.52,57.65A14.5,14.5,0,1,1,371,43.15,14.5,14.5,0,0,1,385.52,57.65Z"/></g></g></svg>